<?xml version="1.0" encoding="UTF-8"?>
<!DOCTYPE svg PUBLIC "-//W3C//DTD SVG 1.1//EN" "http://www.w3.org/Graphics/SVG/1.1/DTD/svg11.dtd">
<svg xmlns="http://www.w3.org/2000/svg" version="1.1" width="500px" height="500px" style="shape-rendering:geometricPrecision; text-rendering:geometricPrecision; image-rendering:optimizeQuality; fill-rule:evenodd; clip-rule:evenodd" xmlns:xlink="http://www.w3.org/1999/xlink">
<g><path style="opacity:1" fill="#30201e" d="M 258.5,27.5 C 255.856,27.2847 253.523,27.2847 251.5,27.5C 250.18,26.0582 248.514,25.3915 246.5,25.5C 246.489,27.5466 246.156,29.5466 245.5,31.5C 245.703,33.2077 246.536,34.541 248,35.5C 248.495,37.4727 248.662,39.4727 248.5,41.5C 245.459,41.5944 243.793,40.0944 243.5,37C 242.5,36.8333 241.5,36.6667 240.5,36.5C 237.954,37.0567 235.621,38.0567 233.5,39.5C 234.418,36.4965 235.751,33.6632 237.5,31C 238.167,30.8333 238.833,30.6667 239.5,30.5C 241.036,31.2485 242.369,32.2485 243.5,33.5C 243.833,33 244.167,32.5 244.5,32C 242.3,28.0575 241.966,24.2242 243.5,20.5C 244.601,19.4017 245.934,19.235 247.5,20C 251.58,22.0285 255.246,24.5285 258.5,27.5 Z"/></g>
<g><path style="opacity:1" fill="#675752" d="M 243.5,20.5 C 241.966,24.2242 242.3,28.0575 244.5,32C 244.167,32.5 243.833,33 243.5,33.5C 242.369,32.2485 241.036,31.2485 239.5,30.5C 238.833,30.6667 238.167,30.8333 237.5,31C 235.751,33.6632 234.418,36.4965 233.5,39.5C 232.472,42.0983 231.472,42.0983 230.5,39.5C 231.935,33.9643 234.435,28.9643 238,24.5C 239.451,22.5359 241.284,21.2026 243.5,20.5 Z"/></g>
<g><path style="opacity:1" fill="#3f2220" d="M 258.5,27.5 C 284.624,34.8949 309.624,45.0616 333.5,58C 335.037,59.7073 336.704,61.2073 338.5,62.5C 338.733,64.0618 339.4,65.3951 340.5,66.5C 338.456,65.9688 336.789,64.8022 335.5,63C 333.833,62.6667 332.167,62.3333 330.5,62C 330.833,61.6667 331.167,61.3333 331.5,61C 330.048,59.4827 328.548,59.316 327,60.5C 319.228,57.9661 311.395,55.7995 303.5,54C 301.208,52.7101 299.208,51.0435 297.5,49C 292.544,49.4425 290.211,47.2758 290.5,42.5C 287.09,42.5429 283.757,42.0429 280.5,41C 275.625,38.8164 270.625,36.8164 265.5,35C 263.694,34.1904 262.194,33.0238 261,31.5C 258.88,33.0682 257.38,32.5682 256.5,30C 257.756,29.5831 258.423,28.7498 258.5,27.5 Z"/></g>
<g><path style="opacity:1" fill="#636160" d="M 230.5,39.5 C 229.744,43.767 228.411,47.767 226.5,51.5C 226.619,46.9961 227.952,42.9961 230.5,39.5 Z"/></g>
<g><path style="opacity:1" fill="#18100e" d="M 251.5,27.5 C 253.954,29.2851 255.621,31.6185 256.5,34.5C 255.596,35.209 255.263,36.209 255.5,37.5C 253.911,45.0617 254.578,52.5617 257.5,60C 257.138,61.8853 255.971,62.7186 254,62.5C 251.863,61.9233 249.696,61.59 247.5,61.5C 243.521,60.5349 239.521,60.0349 235.5,60C 233.333,62.1667 231.167,64.3333 229,66.5C 225.634,71.2348 222.801,76.2348 220.5,81.5C 219.903,81.2648 219.57,80.7648 219.5,80C 221.008,73.4471 222.674,66.9471 224.5,60.5C 224.676,57.2727 225.343,54.2727 226.5,51.5C 228.411,47.767 229.744,43.767 230.5,39.5C 231.472,42.0983 232.472,42.0983 233.5,39.5C 235.621,38.0567 237.954,37.0567 240.5,36.5C 241.5,36.6667 242.5,36.8333 243.5,37C 243.793,40.0944 245.459,41.5944 248.5,41.5C 248.662,39.4727 248.495,37.4727 248,35.5C 246.536,34.541 245.703,33.2077 245.5,31.5C 246.156,29.5466 246.489,27.5466 246.5,25.5C 248.514,25.3915 250.18,26.0582 251.5,27.5 Z"/></g>
<g><path style="opacity:1" fill="#62473c" d="M 256.5,34.5 C 264.295,41.4534 272.295,48.2868 280.5,55C 280.043,55.414 279.709,55.914 279.5,56.5C 280.77,57.2876 281.77,58.2876 282.5,59.5C 282.44,60.0431 282.107,60.3764 281.5,60.5C 277.73,58.1972 274.23,55.5306 271,52.5C 270.601,52.7284 270.435,53.0618 270.5,53.5C 268.549,52.2842 267.049,50.6175 266,48.5C 265.415,50.1293 264.581,51.6293 263.5,53C 265.826,58.1715 269.159,62.6715 273.5,66.5C 273.333,66.8333 273.167,67.1667 273,67.5C 270.356,65.69 267.856,63.69 265.5,61.5C 265.167,61.6667 264.833,61.8333 264.5,62C 266.16,63.4877 267.16,65.321 267.5,67.5C 266.508,67.6716 265.842,67.3382 265.5,66.5C 259.077,57.9692 255.744,48.3026 255.5,37.5C 255.263,36.209 255.596,35.209 256.5,34.5 Z"/></g>
<g><path style="opacity:1" fill="#3a2620" d="M 255.5,37.5 C 255.744,48.3026 259.077,57.9692 265.5,66.5C 259.292,65.203 253.292,63.5364 247.5,61.5C 249.696,61.59 251.863,61.9233 254,62.5C 255.971,62.7186 257.138,61.8853 257.5,60C 254.578,52.5617 253.911,45.0617 255.5,37.5 Z"/></g>
<g><path style="opacity:1" fill="#747474" d="M 224.5,60.5 C 222.674,66.9471 221.008,73.4471 219.5,80C 219.57,80.7648 219.903,81.2648 220.5,81.5C 220.068,82.7095 219.401,83.7095 218.5,84.5C 159.966,97.814 118.133,132.147 93,187.5C 87.5285,201.219 83.6952,215.386 81.5,230C 81.5143,231.385 81.8476,232.551 82.5,233.5C 81.9101,234.766 81.4101,236.099 81,237.5C 80.3333,271.167 80.3333,304.833 81,338.5C 81.9476,340.57 83.4476,342.07 85.5,343C 95.5,343.667 105.5,343.667 115.5,343C 116.667,341.833 117.833,340.667 119,339.5C 119.5,330.84 119.666,322.173 119.5,313.5C 129.537,313.713 139.537,313.213 149.5,312C 161.742,309.349 168.909,301.849 171,289.5C 171.754,276.807 171.587,264.141 170.5,251.5C 172.497,254.16 173.997,257.16 175,260.5C 175.5,266.825 175.666,273.158 175.5,279.5C 176.083,287.764 174.916,295.764 172,303.5C 166.914,311.13 159.747,315.297 150.5,316C 141.506,316.5 132.506,316.666 123.5,316.5C 123.666,325.839 123.5,335.173 123,344.5C 122.5,345 122,345.5 121.5,346C 116.798,346.172 112.132,346.672 107.5,347.5C 146.67,405.248 201.336,431.748 271.5,427C 305.871,423.725 336.204,411.225 362.5,389.5C 370.174,389.666 377.841,389.5 385.5,389C 391.103,388.449 395.603,385.949 399,381.5C 400.446,367.907 400.946,354.24 400.5,340.5C 401.302,341.952 401.802,343.618 402,345.5C 431.149,294.863 435.482,242.196 415,187.5C 401.17,154.493 379.337,128.16 349.5,108.5C 348.571,107.311 348.238,105.978 348.5,104.5C 350.132,97.9558 350.799,91.2891 350.5,84.5C 406.188,117.763 438.688,166.763 448,231.5C 453.761,316.488 420.594,380.988 348.5,425C 305.929,447.781 260.929,454.447 213.5,445C 150.827,430.316 105.327,394.149 77,336.5C 57.8264,292.808 54.1598,247.808 66,201.5C 91.3466,123.656 144.18,76.6559 224.5,60.5 Z"/></g>
<g><path style="opacity:1" fill="#888484" d="M 338.5,62.5 C 340.587,63.5846 341.92,65.2512 342.5,67.5C 341.833,67.1667 341.167,66.8333 340.5,66.5C 339.4,65.3951 338.733,64.0618 338.5,62.5 Z"/></g>
<g><path style="opacity:1" fill="#7a604f" d="M 270.5,53.5 C 273.672,57.5052 277.339,61.0052 281.5,64C 279.039,63.5924 276.706,62.9258 274.5,62C 275.455,63.7175 276.455,65.3842 277.5,67C 276.833,67.3333 276.167,67.6667 275.5,68C 277.362,69.3657 279.028,70.8657 280.5,72.5C 275.776,71.6299 271.443,69.9632 267.5,67.5C 267.16,65.321 266.16,63.4877 264.5,62C 264.833,61.8333 265.167,61.6667 265.5,61.5C 267.856,63.69 270.356,65.69 273,67.5C 273.167,67.1667 273.333,66.8333 273.5,66.5C 269.159,62.6715 265.826,58.1715 263.5,53C 264.581,51.6293 265.415,50.1293 266,48.5C 267.049,50.6175 268.549,52.2842 270.5,53.5 Z"/></g>
<g><path style="opacity:1" fill="#ead4b7" d="M 247.5,61.5 C 253.292,63.5364 259.292,65.203 265.5,66.5C 265.842,67.3382 266.508,67.6716 267.5,67.5C 271.443,69.9632 275.776,71.6299 280.5,72.5C 280.842,73.3382 281.508,73.6716 282.5,73.5C 286.018,75.0856 289.685,76.4189 293.5,77.5C 297.251,78.9729 300.917,80.6396 304.5,82.5C 302.333,83.2685 300.166,84.2685 298,85.5C 297.316,86.7839 297.483,87.9505 298.5,89C 294.909,93.6759 292.576,98.8425 291.5,104.5C 287.548,103.728 283.548,103.395 279.5,103.5C 275.237,102.947 271.07,101.947 267,100.5C 265.018,100.99 263.351,101.99 262,103.5C 261.415,104.998 261.915,105.998 263.5,106.5C 263.44,107.043 263.107,107.376 262.5,107.5C 261.335,106.509 260.168,105.509 259,104.5C 255.169,108.291 251.669,112.457 248.5,117C 246.833,117.333 245.167,117.667 243.5,118C 243.833,118.333 244.167,118.667 244.5,119C 243.382,120.074 242.382,121.24 241.5,122.5C 240.549,121.674 239.549,121.508 238.5,122C 236.435,123.979 234.268,125.812 232,127.5C 229.851,126.16 228.684,126.827 228.5,129.5C 228.167,129.5 227.833,129.5 227.5,129.5C 222.786,129.827 218.12,129.493 213.5,128.5C 211.563,126.851 210.563,124.685 210.5,122C 210.896,119.46 211.063,116.96 211,114.5C 209.644,113.62 208.144,113.286 206.5,113.5C 209.72,103.505 213.72,93.8383 218.5,84.5C 219.401,83.7095 220.068,82.7095 220.5,81.5C 222.801,76.2348 225.634,71.2348 229,66.5C 231.167,64.3333 233.333,62.1667 235.5,60C 239.521,60.0349 243.521,60.5349 247.5,61.5 Z"/></g>
<g><path style="opacity:1" fill="#493329" d="M 282.5,59.5 C 285.719,59.7759 288.385,61.1093 290.5,63.5C 291.684,64.6879 291.684,65.8545 290.5,67C 291.357,67.6891 292.023,68.5224 292.5,69.5C 288.987,70.9318 285.32,71.7652 281.5,72C 282.056,72.3826 282.389,72.8826 282.5,73.5C 281.508,73.6716 280.842,73.3382 280.5,72.5C 279.028,70.8657 277.362,69.3657 275.5,68C 276.167,67.6667 276.833,67.3333 277.5,67C 276.455,65.3842 275.455,63.7175 274.5,62C 276.706,62.9258 279.039,63.5924 281.5,64C 277.339,61.0052 273.672,57.5052 270.5,53.5C 270.435,53.0618 270.601,52.7284 271,52.5C 274.23,55.5306 277.73,58.1972 281.5,60.5C 282.107,60.3764 282.44,60.0431 282.5,59.5 Z"/></g>
<g><path style="opacity:1" fill="#321716" d="M 258.5,27.5 C 258.423,28.7498 257.756,29.5831 256.5,30C 257.38,32.5682 258.88,33.0682 261,31.5C 262.194,33.0238 263.694,34.1904 265.5,35C 270.625,36.8164 275.625,38.8164 280.5,41C 283.757,42.0429 287.09,42.5429 290.5,42.5C 290.211,47.2758 292.544,49.4425 297.5,49C 299.208,51.0435 301.208,52.7101 303.5,54C 311.395,55.7995 319.228,57.9661 327,60.5C 328.548,59.316 330.048,59.4827 331.5,61C 331.167,61.3333 330.833,61.6667 330.5,62C 332.167,62.3333 333.833,62.6667 335.5,63C 336.789,64.8022 338.456,65.9688 340.5,66.5C 341.167,66.8333 341.833,67.1667 342.5,67.5C 342.877,69.258 343.544,70.9246 344.5,72.5C 343.37,75.4531 342.036,78.2865 340.5,81C 337.975,81.0407 335.642,80.2073 333.5,78.5C 329.906,79.4259 326.24,79.7592 322.5,79.5C 320.315,77.7088 317.982,75.8755 315.5,74C 311.34,72.782 307.34,71.282 303.5,69.5C 303.5,68.5 303.5,67.5 303.5,66.5C 299.154,65.9817 295.321,64.315 292,61.5C 290.97,61.8361 290.47,62.5028 290.5,63.5C 288.385,61.1093 285.719,59.7759 282.5,59.5C 281.77,58.2876 280.77,57.2876 279.5,56.5C 279.709,55.914 280.043,55.414 280.5,55C 272.295,48.2868 264.295,41.4534 256.5,34.5C 255.621,31.6185 253.954,29.2851 251.5,27.5C 253.523,27.2847 255.856,27.2847 258.5,27.5 Z"/></g>
<g><path style="opacity:1" fill="#201210" d="M 322.5,79.5 C 322.134,80.6946 321.301,81.3613 320,81.5C 317,79.8333 314,78.1667 311,76.5C 310.055,76.9054 309.388,77.572 309,78.5C 304.358,76.8794 299.525,75.8794 294.5,75.5C 292.279,75.4387 291.946,76.1054 293.5,77.5C 289.685,76.4189 286.018,75.0856 282.5,73.5C 282.389,72.8826 282.056,72.3826 281.5,72C 285.32,71.7652 288.987,70.9318 292.5,69.5C 292.023,68.5224 291.357,67.6891 290.5,67C 291.684,65.8545 291.684,64.6879 290.5,63.5C 290.47,62.5028 290.97,61.8361 292,61.5C 295.321,64.315 299.154,65.9817 303.5,66.5C 303.5,67.5 303.5,68.5 303.5,69.5C 307.34,71.282 311.34,72.782 315.5,74C 317.982,75.8755 320.315,77.7088 322.5,79.5 Z"/></g>
<g><path style="opacity:1" fill="#37342b" d="M 227.5,76.5 C 229.199,76.3398 230.866,76.5065 232.5,77C 235.393,80.3961 238.726,83.2294 242.5,85.5C 244.653,87.9289 245.319,90.5956 244.5,93.5C 241.048,92.6083 238.048,90.9416 235.5,88.5C 232.813,84.4428 230.146,80.4428 227.5,76.5 Z"/></g>
<g><path style="opacity:1" fill="#272525" d="M 218.5,84.5 C 213.72,93.8383 209.72,103.505 206.5,113.5C 204.863,115.316 203.363,117.316 202,119.5C 199.396,125.577 197.563,131.91 196.5,138.5C 195.347,144.653 195.18,150.986 196,157.5C 196.232,158.737 196.732,159.737 197.5,160.5C 199.497,166.83 202.33,172.83 206,178.5C 206.198,186.578 206.698,194.578 207.5,202.5C 207.993,204.806 208.326,207.139 208.5,209.5C 200.647,209.629 192.814,209.295 185,208.5C 182.075,208.523 179.241,209.023 176.5,210C 167.968,214.516 159.301,218.85 150.5,223C 148.734,226.404 146.401,229.238 143.5,231.5C 124.544,230.359 105.544,230.192 86.5,231C 85.0161,231.662 83.6828,232.496 82.5,233.5C 81.8476,232.551 81.5143,231.385 81.5,230C 83.6952,215.386 87.5285,201.219 93,187.5C 118.133,132.147 159.966,97.814 218.5,84.5 Z"/></g>
<g><path style="opacity:1" fill="#e0bf9b" d="M 304.5,82.5 C 306.954,83.2271 309.287,84.2271 311.5,85.5C 310.402,86.397 310.402,87.2303 311.5,88C 309.671,88.2735 308.171,89.1068 307,90.5C 306.154,94.9405 304.987,99.2738 303.5,103.5C 302.675,104.386 301.675,104.719 300.5,104.5C 299.82,107.062 299.653,109.729 300,112.5C 299.333,113.833 298.667,115.167 298,116.5C 297.667,116.167 297.333,115.833 297,115.5C 295.525,123.855 293.358,132.022 290.5,140C 286.591,145.035 282.591,149.868 278.5,154.5C 278.335,151.482 278.502,148.482 279,145.5C 282.39,140.497 285.557,135.33 288.5,130C 286.744,129.798 285.078,129.298 283.5,128.5C 286.057,128.218 288.723,128.051 291.5,128C 289.347,127.901 287.681,127.067 286.5,125.5C 287.552,125.649 288.552,125.483 289.5,125C 283.853,120.177 277.853,115.843 271.5,112C 265.638,109.973 261.972,111.806 260.5,117.5C 261.791,117.263 262.791,117.596 263.5,118.5C 262.448,118.351 261.448,118.517 260.5,119C 261.696,119.654 261.696,120.154 260.5,120.5C 259.833,119.167 259.167,117.833 258.5,116.5C 257.066,117.936 255.9,119.602 255,121.5C 253.958,127.932 253.458,134.265 253.5,140.5C 253.998,137.319 253.165,134.653 251,132.5C 250.209,129.041 249.209,125.707 248,122.5C 245.243,124.533 243.076,127.033 241.5,130C 237.141,130.534 232.808,130.368 228.5,129.5C 228.684,126.827 229.851,126.16 232,127.5C 234.268,125.812 236.435,123.979 238.5,122C 239.549,121.508 240.549,121.674 241.5,122.5C 242.382,121.24 243.382,120.074 244.5,119C 244.167,118.667 243.833,118.333 243.5,118C 245.167,117.667 246.833,117.333 248.5,117C 251.669,112.457 255.169,108.291 259,104.5C 260.168,105.509 261.335,106.509 262.5,107.5C 263.107,107.376 263.44,107.043 263.5,106.5C 272.432,110.501 281.765,111.501 291.5,109.5C 292.167,108.833 292.833,108.167 293.5,107.5C 293.167,107.167 292.833,106.833 292.5,106.5C 288.093,105.254 283.76,104.254 279.5,103.5C 283.548,103.395 287.548,103.728 291.5,104.5C 292.576,98.8425 294.909,93.6759 298.5,89C 297.483,87.9505 297.316,86.7839 298,85.5C 300.166,84.2685 302.333,83.2685 304.5,82.5 Z"/></g>
<g><path style="opacity:1" fill="#2c201a" d="M 231.5,99.5 C 226.566,96.0843 222.899,97.0843 220.5,102.5C 219.5,102.5 218.5,102.5 217.5,102.5C 218.819,94.5929 223.152,92.4263 230.5,96C 234.285,97.7927 236.452,100.626 237,104.5C 235.296,102.627 233.463,100.96 231.5,99.5 Z"/></g>
<g><path style="opacity:1" fill="#6a4b42" d="M 231.5,99.5 C 231.74,101.962 231.24,104.629 230,107.5C 228.708,108.791 227.542,108.791 226.5,107.5C 226.216,105.585 226.549,103.919 227.5,102.5C 227.611,101.883 227.944,101.383 228.5,101C 223.662,99.6724 221.329,101.506 221.5,106.5C 220.566,105.432 220.232,104.099 220.5,102.5C 222.899,97.0843 226.566,96.0843 231.5,99.5 Z"/></g>
<g><path style="opacity:1" fill="#1c0c0a" d="M 227.5,102.5 C 226.549,103.919 226.216,105.585 226.5,107.5C 224.784,107.371 223.117,107.038 221.5,106.5C 221.329,101.506 223.662,99.6724 228.5,101C 227.944,101.383 227.611,101.883 227.5,102.5 Z"/></g>
<g><path style="opacity:1" fill="#e8e6e2" d="M 227.5,102.5 C 229.337,102.639 229.67,103.306 228.5,104.5C 227.702,104.043 227.369,103.376 227.5,102.5 Z"/></g>
<g><path style="opacity:1" fill="#302c25" d="M 279.5,103.5 C 283.76,104.254 288.093,105.254 292.5,106.5C 292.833,106.833 293.167,107.167 293.5,107.5C 292.833,108.167 292.167,108.833 291.5,109.5C 281.765,111.501 272.432,110.501 263.5,106.5C 261.915,105.998 261.415,104.998 262,103.5C 263.351,101.99 265.018,100.99 267,100.5C 271.07,101.947 275.237,102.947 279.5,103.5 Z"/></g>
<g><path style="opacity:1" fill="#644536" d="M 321.5,91.5 C 322.362,94.8234 323.028,98.3234 323.5,102C 322.429,106.119 321.595,110.285 321,114.5C 320.148,115.571 319.315,116.571 318.5,117.5C 320.083,108.922 321.083,100.256 321.5,91.5 Z"/></g>
<g><path style="opacity:1" fill="#130809" d="M 342.5,67.5 C 347.557,71.9511 350.224,77.6177 350.5,84.5C 350.799,91.2891 350.132,97.9558 348.5,104.5C 345.587,118.911 342.254,133.245 338.5,147.5C 338.141,145.629 337.141,144.129 335.5,143C 332.895,141.979 330.228,141.145 327.5,140.5C 323.979,143.187 320.979,146.353 318.5,150C 316.735,150.64 315.068,150.473 313.5,149.5C 314.387,143.302 316.221,137.302 319,131.5C 319.947,126.97 319.447,122.636 317.5,118.5C 317.624,117.893 317.957,117.56 318.5,117.5C 319.315,116.571 320.148,115.571 321,114.5C 321.595,110.285 322.429,106.119 323.5,102C 323.028,98.3234 322.362,94.8234 321.5,91.5C 319.5,90.1667 317.5,88.8333 315.5,87.5C 314.486,86.3263 313.153,85.6596 311.5,85.5C 309.287,84.2271 306.954,83.2271 304.5,82.5C 300.917,80.6396 297.251,78.9729 293.5,77.5C 291.946,76.1054 292.279,75.4387 294.5,75.5C 299.525,75.8794 304.358,76.8794 309,78.5C 309.388,77.572 310.055,76.9054 311,76.5C 314,78.1667 317,79.8333 320,81.5C 321.301,81.3613 322.134,80.6946 322.5,79.5C 326.24,79.7592 329.906,79.4259 333.5,78.5C 335.642,80.2073 337.975,81.0407 340.5,81C 342.036,78.2865 343.37,75.4531 344.5,72.5C 343.544,70.9246 342.877,69.258 342.5,67.5 Z"/></g>
<g><path style="opacity:1" fill="#272525" d="M 348.5,104.5 C 348.238,105.978 348.571,107.311 349.5,108.5C 379.337,128.16 401.17,154.493 415,187.5C 435.482,242.196 431.149,294.863 402,345.5C 401.802,343.618 401.302,341.952 400.5,340.5C 400.598,338.447 399.931,336.78 398.5,335.5C 395.391,325.932 388.725,321.266 378.5,321.5C 374.018,320.674 369.351,320.174 364.5,320C 370.948,310.551 377.782,301.384 385,292.5C 387.106,289.392 388.772,286.059 390,282.5C 390.667,268.833 390.667,255.167 390,241.5C 388.45,240.409 387.283,239.076 386.5,237.5C 386.201,234.358 384.534,232.191 381.5,231C 372.5,230.333 363.5,230.333 354.5,231C 350.392,232.812 348.392,235.979 348.5,240.5C 344.115,238.093 339.782,235.593 335.5,233C 324.693,230.63 314.026,227.63 303.5,224C 299.5,223.333 295.5,223.333 291.5,224C 287.803,226.092 283.803,227.259 279.5,227.5C 282.439,225.687 285.439,224.02 288.5,222.5C 289.756,222.539 290.756,222.039 291.5,221C 284.186,212.031 283.519,202.531 289.5,192.5C 295.89,187.772 301.557,182.438 306.5,176.5C 314.684,183.248 321.684,181.914 327.5,172.5C 327.833,171.833 328.167,171.167 328.5,170.5C 334.238,164.01 337.572,156.343 338.5,147.5C 342.254,133.245 345.587,118.911 348.5,104.5 Z"/></g>
<g><path style="opacity:1" fill="#1b1413" d="M 270.5,116.5 C 269.167,117.5 269.167,118.5 270.5,119.5C 270.5,120.167 270.167,120.5 269.5,120.5C 267.447,120.598 265.78,119.931 264.5,118.5C 264.316,115.679 265.649,114.012 268.5,113.5C 269.919,114.005 270.585,115.005 270.5,116.5 Z"/></g>
<g><path style="opacity:1" fill="#d5cec2" d="M 270.5,116.5 C 271.167,116.5 271.833,116.5 272.5,116.5C 272.715,118.179 272.048,119.179 270.5,119.5C 269.167,118.5 269.167,117.5 270.5,116.5 Z"/></g>
<g><path style="opacity:1" fill="#3e3026" d="M 286.5,125.5 C 283.461,122.46 280.127,119.794 276.5,117.5C 275.434,116.308 274.601,116.641 274,118.5C 273.722,117.584 273.222,116.918 272.5,116.5C 271.833,116.5 271.167,116.5 270.5,116.5C 270.585,115.005 269.919,114.005 268.5,113.5C 265.649,114.012 264.316,115.679 264.5,118.5C 264.167,118.5 263.833,118.5 263.5,118.5C 262.791,117.596 261.791,117.263 260.5,117.5C 261.972,111.806 265.638,109.973 271.5,112C 277.853,115.843 283.853,120.177 289.5,125C 288.552,125.483 287.552,125.649 286.5,125.5 Z"/></g>
<g><path style="opacity:1" fill="#876a57" d="M 272.5,116.5 C 273.222,116.918 273.722,117.584 274,118.5C 274.601,116.641 275.434,116.308 276.5,117.5C 275.609,118.261 274.942,119.261 274.5,120.5C 272.701,121.788 271.035,121.788 269.5,120.5C 270.167,120.5 270.5,120.167 270.5,119.5C 272.048,119.179 272.715,118.179 272.5,116.5 Z"/></g>
<g><path style="opacity:1" fill="#d8a378" d="M 315.5,89.5 C 316.29,90.4013 317.29,91.0679 318.5,91.5C 314.922,97.636 311.422,104.303 308,111.5C 305.517,120.87 302.85,130.203 300,139.5C 294.766,146.715 290.433,154.382 287,162.5C 281.932,170.899 274.932,177.232 266,181.5C 265.51,180.207 265.343,178.873 265.5,177.5C 266.303,176.577 266.47,175.577 266,174.5C 263.724,175.762 261.891,177.429 260.5,179.5C 260.557,178.391 260.89,177.391 261.5,176.5C 261.833,175.5 262.5,174.833 263.5,174.5C 265.456,172.103 267.29,172.103 269,174.5C 273.743,174.534 277.409,172.534 280,168.5C 282.579,160.874 285.579,153.54 289,146.5C 292.295,144.941 294.961,142.607 297,139.5C 299.266,127.881 301.6,116.548 304,105.5C 307.317,100.968 309.817,95.9684 311.5,90.5C 312.736,89.7542 314.07,89.4208 315.5,89.5 Z"/></g>
<g><path style="opacity:1" fill="#a9745b" d="M 315.5,87.5 C 317.5,88.8333 319.5,90.1667 321.5,91.5C 321.083,100.256 320.083,108.922 318.5,117.5C 317.957,117.56 317.624,117.893 317.5,118.5C 319.447,122.636 319.947,126.97 319,131.5C 316.221,137.302 314.387,143.302 313.5,149.5C 313.421,150.93 313.754,152.264 314.5,153.5C 311.02,154.057 309.353,156.057 309.5,159.5C 307.5,159.833 305.5,160.167 303.5,160.5C 302.134,167.707 298.801,173.874 293.5,179C 292.552,179.483 291.552,179.649 290.5,179.5C 290.575,175.206 292.408,171.873 296,169.5C 296.721,164.934 299.055,161.601 303,159.5C 303.311,157.444 303.811,155.444 304.5,153.5C 306.353,152.24 308.186,152.24 310,153.5C 310.5,153 311,152.5 311.5,152C 310.74,150.559 310.074,149.059 309.5,147.5C 311.348,143.772 312.348,139.772 312.5,135.5C 316.159,134.995 317.826,132.828 317.5,129C 317.107,125.673 316.773,122.339 316.5,119C 318.384,111.626 319.384,104.126 319.5,96.5C 319.784,94.5853 319.451,92.9187 318.5,91.5C 317.29,91.0679 316.29,90.4013 315.5,89.5C 315.5,88.8333 315.5,88.1667 315.5,87.5 Z"/></g>
<g><path style="opacity:1" fill="#ce9168" d="M 318.5,91.5 C 319.451,92.9187 319.784,94.5853 319.5,96.5C 318.717,99.5091 318.05,102.676 317.5,106C 311.962,115.071 308.462,124.905 307,135.5C 304.969,142.535 300.969,148.201 295,152.5C 293.205,157.085 291.705,161.752 290.5,166.5C 289.178,166.33 288.011,166.663 287,167.5C 285.331,169.169 284.498,171.169 284.5,173.5C 281.187,175.604 277.52,177.271 273.5,178.5C 270.227,180.717 267.06,183.05 264,185.5C 260.901,182.559 261.401,179.892 265.5,177.5C 265.343,178.873 265.51,180.207 266,181.5C 274.932,177.232 281.932,170.899 287,162.5C 290.433,154.382 294.766,146.715 300,139.5C 302.85,130.203 305.517,120.87 308,111.5C 311.422,104.303 314.922,97.636 318.5,91.5 Z"/></g>
<g><path style="opacity:1" fill="#635b51" d="M 196.5,138.5 C 196.179,144.026 196.512,149.36 197.5,154.5C 197.5,156.5 197.5,158.5 197.5,160.5C 196.732,159.737 196.232,158.737 196,157.5C 195.18,150.986 195.347,144.653 196.5,138.5 Z"/></g>
<g><path style="opacity:1" fill="#e7cead" d="M 206.5,113.5 C 208.144,113.286 209.644,113.62 211,114.5C 211.063,116.96 210.896,119.46 210.5,122C 210.563,124.685 211.563,126.851 213.5,128.5C 218.12,129.493 222.786,129.827 227.5,129.5C 226.418,130.594 225.752,131.927 225.5,133.5C 225.747,134.713 226.414,135.38 227.5,135.5C 227.833,137.833 229.167,139.167 231.5,139.5C 231.62,140.586 232.287,141.253 233.5,141.5C 240.343,143.109 247.01,142.776 253.5,140.5C 253.458,134.265 253.958,127.932 255,121.5C 255.9,119.602 257.066,117.936 258.5,116.5C 259.167,117.833 259.833,119.167 260.5,120.5C 261.696,120.154 261.696,119.654 260.5,119C 261.448,118.517 262.448,118.351 263.5,118.5C 263.833,118.5 264.167,118.5 264.5,118.5C 265.78,119.931 267.447,120.598 269.5,120.5C 271.035,121.788 272.701,121.788 274.5,120.5C 274.942,119.261 275.609,118.261 276.5,117.5C 280.127,119.794 283.461,122.46 286.5,125.5C 287.681,127.067 289.347,127.901 291.5,128C 288.723,128.051 286.057,128.218 283.5,128.5C 285.078,129.298 286.744,129.798 288.5,130C 285.557,135.33 282.39,140.497 279,145.5C 278.502,148.482 278.335,151.482 278.5,154.5C 277.167,154.5 275.833,154.5 274.5,154.5C 274.666,158.514 274.499,162.514 274,166.5C 271.656,168.774 268.822,169.941 265.5,170C 263.963,171.11 263.297,172.61 263.5,174.5C 262.5,174.833 261.833,175.5 261.5,176.5C 259.983,176.511 258.816,177.177 258,178.5C 256.734,183.336 255.234,188.002 253.5,192.5C 251.213,192.724 249.047,193.391 247,194.5C 245.05,194.293 243.884,193.293 243.5,191.5C 244.496,191.586 245.329,191.252 246,190.5C 247.18,188.14 248.347,185.807 249.5,183.5C 251.098,179.993 253.431,176.993 256.5,174.5C 258.253,172.777 260.253,171.277 262.5,170C 261.584,169.626 260.75,169.126 260,168.5C 259.501,163.845 259.334,159.179 259.5,154.5C 260.552,154.649 261.552,154.483 262.5,154C 261.359,153.259 261.359,152.425 262.5,151.5C 252.631,150.739 242.797,149.739 233,148.5C 231.272,148.899 229.772,149.566 228.5,150.5C 227.5,151.167 226.5,151.833 225.5,152.5C 231.421,154.298 237.754,155.131 244.5,155C 243.833,156 243.167,157 242.5,158C 238.848,158.499 235.182,158.665 231.5,158.5C 231.5,159.5 231.5,160.5 231.5,161.5C 235.215,161.68 238.882,161.346 242.5,160.5C 243.938,160.719 245.271,161.219 246.5,162C 247.833,165 247.833,168 246.5,171C 248.075,173.834 250.075,175.334 252.5,175.5C 251.855,176.812 250.855,177.812 249.5,178.5C 245.03,175.53 241.03,172.03 237.5,168C 232.055,165.847 226.722,166.014 221.5,168.5C 222.127,169.417 222.461,170.417 222.5,171.5C 223.133,176.309 222.8,181.142 221.5,186C 222.898,187.649 222.564,188.982 220.5,190C 220.833,190.333 221.167,190.667 221.5,191C 217.873,191.564 214.707,193.064 212,195.5C 212.532,191.243 212.532,186.909 212,182.5C 211,178.5 210,178.5 209,182.5C 210.093,178.778 209.427,175.444 207,172.5C 206.506,170.866 206.34,169.199 206.5,167.5C 207.5,167.5 208.5,167.5 209.5,167.5C 208.833,162.164 207.166,157.164 204.5,152.5C 203.672,153.415 202.672,154.081 201.5,154.5C 200.02,153.568 198.687,153.568 197.5,154.5C 196.512,149.36 196.179,144.026 196.5,138.5C 197.563,131.91 199.396,125.577 202,119.5C 203.363,117.316 204.863,115.316 206.5,113.5 Z"/></g>
<g><path style="opacity:1" fill="#b0714c" d="M 236.5,140.5 C 234.883,139.962 233.216,139.629 231.5,139.5C 229.167,139.167 227.833,137.833 227.5,135.5C 227.47,134.503 227.97,133.836 229,133.5C 236.118,133.943 243.285,133.943 250.5,133.5C 250.626,135.2 251.293,136.7 252.5,138C 252.355,138.772 252.022,139.439 251.5,140C 246.406,141.682 241.406,141.848 236.5,140.5 Z"/></g>
<g><path style="opacity:1" fill="#8b3f27" d="M 236.5,140.5 C 238.045,135.693 241.211,134.36 246,136.5C 246.49,137.793 246.657,139.127 246.5,140.5C 243.167,140.5 239.833,140.5 236.5,140.5 Z"/></g>
<g><path style="opacity:1" fill="#d9a87e" d="M 253.5,140.5 C 247.01,142.776 240.343,143.109 233.5,141.5C 232.287,141.253 231.62,140.586 231.5,139.5C 233.216,139.629 234.883,139.962 236.5,140.5C 241.406,141.848 246.406,141.682 251.5,140C 252.022,139.439 252.355,138.772 252.5,138C 251.293,136.7 250.626,135.2 250.5,133.5C 243.285,133.943 236.118,133.943 229,133.5C 227.97,133.836 227.47,134.503 227.5,135.5C 226.414,135.38 225.747,134.713 225.5,133.5C 225.752,131.927 226.418,130.594 227.5,129.5C 227.833,129.5 228.167,129.5 228.5,129.5C 232.808,130.368 237.141,130.534 241.5,130C 243.076,127.033 245.243,124.533 248,122.5C 249.209,125.707 250.209,129.041 251,132.5C 253.165,134.653 253.998,137.319 253.5,140.5 Z"/></g>
<g><path style="opacity:1" fill="#c99b72" d="M 228.5,150.5 C 238.834,151.238 249.168,152.072 259.5,153C 259.167,153.333 258.833,153.667 258.5,154C 247.497,153.903 236.497,153.403 225.5,152.5C 226.5,151.833 227.5,151.167 228.5,150.5 Z"/></g>
<g><path style="opacity:1" fill="#a86a49" d="M 334.5,156.5 C 333.842,155.602 333.176,154.602 332.5,153.5C 331.264,154.246 329.93,154.579 328.5,154.5C 328.799,156.604 328.466,158.604 327.5,160.5C 323.557,163.699 320.057,167.366 317,171.5C 316.517,172.448 316.351,173.448 316.5,174.5C 318.527,174.662 320.527,174.495 322.5,174C 324.049,171.289 326.049,169.123 328.5,167.5C 328.5,168.5 328.5,169.5 328.5,170.5C 328.167,171.167 327.833,171.833 327.5,172.5C 322.125,176.164 316.125,177.831 309.5,177.5C 309.192,175.076 309.526,172.743 310.5,170.5C 312.101,169.835 313.601,169.501 315,169.5C 316.81,164.922 318.31,160.255 319.5,155.5C 321.821,154.034 323.821,152.201 325.5,150C 324.5,149.667 323.5,149.333 322.5,149C 326.152,145.404 330.485,144.237 335.5,145.5C 337.043,149.462 336.71,153.128 334.5,156.5 Z"/></g>
<g><path style="opacity:1" fill="#dfb388" d="M 311.5,85.5 C 313.153,85.6596 314.486,86.3263 315.5,87.5C 315.5,88.1667 315.5,88.8333 315.5,89.5C 314.07,89.4208 312.736,89.7542 311.5,90.5C 309.817,95.9684 307.317,100.968 304,105.5C 301.6,116.548 299.266,127.881 297,139.5C 294.961,142.607 292.295,144.941 289,146.5C 285.579,153.54 282.579,160.874 280,168.5C 277.409,172.534 273.743,174.534 269,174.5C 267.29,172.103 265.456,172.103 263.5,174.5C 263.297,172.61 263.963,171.11 265.5,170C 268.822,169.941 271.656,168.774 274,166.5C 274.499,162.514 274.666,158.514 274.5,154.5C 275.833,154.5 277.167,154.5 278.5,154.5C 282.591,149.868 286.591,145.035 290.5,140C 293.358,132.022 295.525,123.855 297,115.5C 297.333,115.833 297.667,116.167 298,116.5C 298.667,115.167 299.333,113.833 300,112.5C 299.653,109.729 299.82,107.062 300.5,104.5C 301.675,104.719 302.675,104.386 303.5,103.5C 304.987,99.2738 306.154,94.9405 307,90.5C 308.171,89.1068 309.671,88.2735 311.5,88C 310.402,87.2303 310.402,86.397 311.5,85.5 Z"/></g>
<g><path style="opacity:1" fill="#dda478" d="M 334.5,156.5 C 332.766,160.3 330.766,163.966 328.5,167.5C 326.049,169.123 324.049,171.289 322.5,174C 320.527,174.495 318.527,174.662 316.5,174.5C 316.351,173.448 316.517,172.448 317,171.5C 320.057,167.366 323.557,163.699 327.5,160.5C 328.466,158.604 328.799,156.604 328.5,154.5C 329.93,154.579 331.264,154.246 332.5,153.5C 333.176,154.602 333.842,155.602 334.5,156.5 Z"/></g>
<g><path style="opacity:1" fill="#e2c19b" d="M 256.5,174.5 C 256.179,172.952 255.179,172.285 253.5,172.5C 253.737,173.791 253.404,174.791 252.5,175.5C 250.075,175.334 248.075,173.834 246.5,171C 247.833,168 247.833,165 246.5,162C 245.271,161.219 243.938,160.719 242.5,160.5C 238.882,161.346 235.215,161.68 231.5,161.5C 231.5,160.5 231.5,159.5 231.5,158.5C 235.182,158.665 238.848,158.499 242.5,158C 243.167,157 243.833,156 244.5,155C 237.754,155.131 231.421,154.298 225.5,152.5C 236.497,153.403 247.497,153.903 258.5,154C 258.833,153.667 259.167,153.333 259.5,153C 249.168,152.072 238.834,151.238 228.5,150.5C 229.772,149.566 231.272,148.899 233,148.5C 242.797,149.739 252.631,150.739 262.5,151.5C 261.359,152.425 261.359,153.259 262.5,154C 261.552,154.483 260.552,154.649 259.5,154.5C 259.334,159.179 259.501,163.845 260,168.5C 260.75,169.126 261.584,169.626 262.5,170C 260.253,171.277 258.253,172.777 256.5,174.5 Z"/></g>
<g><path style="opacity:1" fill="#382a1f" d="M 252.5,175.5 C 253.404,174.791 253.737,173.791 253.5,172.5C 255.179,172.285 256.179,172.952 256.5,174.5C 253.431,176.993 251.098,179.993 249.5,183.5C 249.5,182.167 249.5,180.833 249.5,179.5C 244.105,180.002 240.772,177.668 239.5,172.5C 236.684,171.007 233.85,169.674 231,168.5C 226.985,168.866 225.818,170.866 227.5,174.5C 231.544,175.594 233.211,178.261 232.5,182.5C 230.605,181.027 228.939,179.36 227.5,177.5C 226.557,174.891 224.89,172.891 222.5,171.5C 222.461,170.417 222.127,169.417 221.5,168.5C 226.722,166.014 232.055,165.847 237.5,168C 241.03,172.03 245.03,175.53 249.5,178.5C 250.855,177.812 251.855,176.812 252.5,175.5 Z"/></g>
<g><path style="opacity:1" fill="#98705c" d="M 338.5,147.5 C 337.572,156.343 334.238,164.01 328.5,170.5C 328.5,169.5 328.5,168.5 328.5,167.5C 330.766,163.966 332.766,160.3 334.5,156.5C 336.71,153.128 337.043,149.462 335.5,145.5C 330.485,144.237 326.152,145.404 322.5,149C 323.5,149.333 324.5,149.667 325.5,150C 323.821,152.201 321.821,154.034 319.5,155.5C 318.31,160.255 316.81,164.922 315,169.5C 313.601,169.501 312.101,169.835 310.5,170.5C 309.526,172.743 309.192,175.076 309.5,177.5C 316.125,177.831 322.125,176.164 327.5,172.5C 321.684,181.914 314.684,183.248 306.5,176.5C 307.547,175.922 307.38,175.256 306,174.5C 301.777,175.589 299.277,178.589 298.5,183.5C 295.021,185.77 291.187,187.436 287,188.5C 283.618,191.113 280.118,193.613 276.5,196C 269.701,196.662 263.034,197.829 256.5,199.5C 256.5,199.167 256.5,198.833 256.5,198.5C 256.833,198.5 257.167,198.5 257.5,198.5C 268.357,194.741 279.024,190.408 289.5,185.5C 290.466,183.604 290.799,181.604 290.5,179.5C 291.552,179.649 292.552,179.483 293.5,179C 298.801,173.874 302.134,167.707 303.5,160.5C 305.5,160.167 307.5,159.833 309.5,159.5C 309.353,156.057 311.02,154.057 314.5,153.5C 313.754,152.264 313.421,150.93 313.5,149.5C 315.068,150.473 316.735,150.64 318.5,150C 320.979,146.353 323.979,143.187 327.5,140.5C 330.228,141.145 332.895,141.979 335.5,143C 337.141,144.129 338.141,145.629 338.5,147.5 Z"/></g>
<g><path style="opacity:1" fill="#bb7855" d="M 319.5,96.5 C 319.384,104.126 318.384,111.626 316.5,119C 316.773,122.339 317.107,125.673 317.5,129C 317.826,132.828 316.159,134.995 312.5,135.5C 312.348,139.772 311.348,143.772 309.5,147.5C 310.074,149.059 310.74,150.559 311.5,152C 311,152.5 310.5,153 310,153.5C 308.186,152.24 306.353,152.24 304.5,153.5C 303.811,155.444 303.311,157.444 303,159.5C 299.055,161.601 296.721,164.934 296,169.5C 292.408,171.873 290.575,175.206 290.5,179.5C 289.167,179.5 287.833,179.5 286.5,179.5C 285.527,180.791 284.527,180.791 283.5,179.5C 282.571,180.689 282.238,182.022 282.5,183.5C 274.363,184.534 266.363,186.201 258.5,188.5C 258.5,189.5 258.5,190.5 258.5,191.5C 258.167,191.5 257.833,191.5 257.5,191.5C 257.5,190.167 257.5,188.833 257.5,187.5C 258.512,184.748 259.512,182.081 260.5,179.5C 261.891,177.429 263.724,175.762 266,174.5C 266.47,175.577 266.303,176.577 265.5,177.5C 261.401,179.892 260.901,182.559 264,185.5C 267.06,183.05 270.227,180.717 273.5,178.5C 277.52,177.271 281.187,175.604 284.5,173.5C 284.498,171.169 285.331,169.169 287,167.5C 288.011,166.663 289.178,166.33 290.5,166.5C 291.705,161.752 293.205,157.085 295,152.5C 300.969,148.201 304.969,142.535 307,135.5C 308.462,124.905 311.962,115.071 317.5,106C 318.05,102.676 318.717,99.5091 319.5,96.5 Z"/></g>
<g><path style="opacity:1" fill="#2c2321" d="M 249.5,183.5 C 248.347,185.807 247.18,188.14 246,190.5C 245.329,191.252 244.496,191.586 243.5,191.5C 238.423,190.441 234.757,187.441 232.5,182.5C 233.211,178.261 231.544,175.594 227.5,174.5C 225.818,170.866 226.985,168.866 231,168.5C 233.85,169.674 236.684,171.007 239.5,172.5C 240.772,177.668 244.105,180.002 249.5,179.5C 249.5,180.833 249.5,182.167 249.5,183.5 Z"/></g>
<g><path style="opacity:1" fill="#955d47" d="M 286.5,179.5 C 287.833,179.5 289.167,179.5 290.5,179.5C 290.799,181.604 290.466,183.604 289.5,185.5C 279.024,190.408 268.357,194.741 257.5,198.5C 257.5,196.167 257.5,193.833 257.5,191.5C 257.833,191.5 258.167,191.5 258.5,191.5C 263.479,192.729 268.145,191.896 272.5,189C 279.801,189.51 284.467,186.343 286.5,179.5 Z"/></g>
<g><path style="opacity:1" fill="#a86545" d="M 286.5,179.5 C 284.467,186.343 279.801,189.51 272.5,189C 268.145,191.896 263.479,192.729 258.5,191.5C 258.5,190.5 258.5,189.5 258.5,188.5C 266.363,186.201 274.363,184.534 282.5,183.5C 282.238,182.022 282.571,180.689 283.5,179.5C 284.527,180.791 285.527,180.791 286.5,179.5 Z"/></g>
<g><path style="opacity:1" fill="#e2c5a3" d="M 222.5,171.5 C 224.89,172.891 226.557,174.891 227.5,177.5C 228.274,182.131 229.274,186.798 230.5,191.5C 230,192.5 229.5,193.5 229,194.5C 223.206,197.072 217.706,200.239 212.5,204C 210.457,204.64 208.79,204.14 207.5,202.5C 206.698,194.578 206.198,186.578 206,178.5C 202.33,172.83 199.497,166.83 197.5,160.5C 197.5,158.5 197.5,156.5 197.5,154.5C 198.687,153.568 200.02,153.568 201.5,154.5C 202.672,154.081 203.672,153.415 204.5,152.5C 207.166,157.164 208.833,162.164 209.5,167.5C 208.5,167.5 207.5,167.5 206.5,167.5C 206.34,169.199 206.506,170.866 207,172.5C 209.427,175.444 210.093,178.778 209,182.5C 210,178.5 211,178.5 212,182.5C 212.532,186.909 212.532,191.243 212,195.5C 214.707,193.064 217.873,191.564 221.5,191C 221.167,190.667 220.833,190.333 220.5,190C 222.564,188.982 222.898,187.649 221.5,186C 222.8,181.142 223.133,176.309 222.5,171.5 Z"/></g>
<g><path style="opacity:1" fill="#dbb289" d="M 261.5,176.5 C 260.89,177.391 260.557,178.391 260.5,179.5C 259.512,182.081 258.512,184.748 257.5,187.5C 256.239,190.258 255.406,193.258 255,196.5C 254.344,198.986 252.844,200.653 250.5,201.5C 243.082,202.81 239.082,199.81 238.5,192.5C 236.165,191.587 233.999,190.253 232,188.5C 231.545,194.202 229.711,199.369 226.5,204C 228.045,205.688 229.045,207.688 229.5,210C 228.511,212.23 229.178,214.064 231.5,215.5C 237.141,216.316 241.807,218.816 245.5,223C 248.525,223.133 251.192,224.133 253.5,226C 254.337,227.011 254.67,228.178 254.5,229.5C 255.791,229.263 256.791,229.596 257.5,230.5C 253.486,230.334 249.486,230.501 245.5,231C 243.714,231.785 242.214,232.951 241,234.5C 239.584,240.715 239.084,247.048 239.5,253.5C 236.397,246.704 232.397,240.37 227.5,234.5C 222.632,228.267 217.632,221.601 212.5,214.5C 211.92,212.251 210.587,210.585 208.5,209.5C 208.326,207.139 207.993,204.806 207.5,202.5C 208.79,204.14 210.457,204.64 212.5,204C 217.706,200.239 223.206,197.072 229,194.5C 229.5,193.5 230,192.5 230.5,191.5C 229.274,186.798 228.274,182.131 227.5,177.5C 228.939,179.36 230.605,181.027 232.5,182.5C 234.757,187.441 238.423,190.441 243.5,191.5C 243.884,193.293 245.05,194.293 247,194.5C 249.047,193.391 251.213,192.724 253.5,192.5C 255.234,188.002 256.734,183.336 258,178.5C 258.816,177.177 259.983,176.511 261.5,176.5 Z"/></g>
<g><path style="opacity:1" fill="#9d8881" d="M 306.5,176.5 C 301.557,182.438 295.89,187.772 289.5,192.5C 283.519,202.531 284.186,212.031 291.5,221C 290.756,222.039 289.756,222.539 288.5,222.5C 287.5,222.5 286.5,222.5 285.5,222.5C 286.706,220.563 286.373,218.896 284.5,217.5C 283.445,211.889 282.779,206.222 282.5,200.5C 273.818,200.521 265.152,200.854 256.5,201.5C 256.5,200.833 256.5,200.167 256.5,199.5C 263.034,197.829 269.701,196.662 276.5,196C 280.118,193.613 283.618,191.113 287,188.5C 291.187,187.436 295.021,185.77 298.5,183.5C 299.277,178.589 301.777,175.589 306,174.5C 307.38,175.256 307.547,175.922 306.5,176.5 Z"/></g>
<g><path style="opacity:1" fill="#987567" d="M 284.5,217.5 C 283.351,217.209 282.684,216.376 282.5,215C 282.028,211.323 281.362,207.823 280.5,204.5C 272.7,202.64 264.7,201.973 256.5,202.5C 256.5,202.167 256.5,201.833 256.5,201.5C 265.152,200.854 273.818,200.521 282.5,200.5C 282.779,206.222 283.445,211.889 284.5,217.5 Z"/></g>
<g><path style="opacity:1" fill="#d8a57a" d="M 250.5,201.5 C 249.653,202.966 248.32,203.8 246.5,204C 244.167,204.333 241.833,204.667 239.5,205C 240.274,207.405 240.774,209.905 241,212.5C 243.663,214.577 246.496,216.243 249.5,217.5C 249.277,220.114 250.444,221.781 253,222.5C 253.464,221.906 253.631,221.239 253.5,220.5C 255.771,223.789 258.105,227.122 260.5,230.5C 259.5,230.5 258.5,230.5 257.5,230.5C 256.791,229.596 255.791,229.263 254.5,229.5C 254.67,228.178 254.337,227.011 253.5,226C 251.192,224.133 248.525,223.133 245.5,223C 241.807,218.816 237.141,216.316 231.5,215.5C 229.178,214.064 228.511,212.23 229.5,210C 229.045,207.688 228.045,205.688 226.5,204C 229.711,199.369 231.545,194.202 232,188.5C 233.999,190.253 236.165,191.587 238.5,192.5C 239.082,199.81 243.082,202.81 250.5,201.5 Z"/></g>
<g><path style="opacity:1" fill="#9b6248" d="M 256.5,202.5 C 264.7,201.973 272.7,202.64 280.5,204.5C 280.875,207.397 280.375,210.063 279,212.5C 275.898,210.499 272.398,209.499 268.5,209.5C 264.117,209.983 259.784,210.65 255.5,211.5C 255.19,208.287 255.523,205.287 256.5,202.5 Z"/></g>
<g><path style="opacity:1" fill="#2b2f3d" d="M 208.5,209.5 C 210.587,210.585 211.92,212.251 212.5,214.5C 211.191,215.624 210.525,217.124 210.5,219C 213.107,227.438 218.774,232.604 227.5,234.5C 232.397,240.37 236.397,246.704 239.5,253.5C 239.5,258.5 239.5,263.5 239.5,268.5C 234.833,268.5 230.167,268.5 225.5,268.5C 224.577,264.936 224.244,261.269 224.5,257.5C 229.907,259.257 231.907,257.424 230.5,252C 228.402,251.322 226.402,251.489 224.5,252.5C 224.759,248.76 224.426,245.094 223.5,241.5C 226.694,237.416 225.694,235.416 220.5,235.5C 218.918,233.03 216.585,231.53 213.5,231C 204.833,230.333 196.167,230.333 187.5,231C 185.919,231.707 184.419,232.54 183,233.5C 181.532,248.737 181.032,264.07 181.5,279.5C 179.5,279.5 177.5,279.5 175.5,279.5C 175.666,273.158 175.5,266.825 175,260.5C 173.997,257.16 172.497,254.16 170.5,251.5C 166.077,238.777 157.077,232.11 143.5,231.5C 146.401,229.238 148.734,226.404 150.5,223C 159.301,218.85 167.968,214.516 176.5,210C 179.241,209.023 182.075,208.523 185,208.5C 192.814,209.295 200.647,209.629 208.5,209.5 Z"/></g>
<g><path style="opacity:1" fill="#c88f67" d="M 257.5,187.5 C 257.5,188.833 257.5,190.167 257.5,191.5C 257.5,193.833 257.5,196.167 257.5,198.5C 257.167,198.5 256.833,198.5 256.5,198.5C 255.21,199.058 254.377,200.058 254,201.5C 253.5,207.825 253.334,214.158 253.5,220.5C 253.631,221.239 253.464,221.906 253,222.5C 250.444,221.781 249.277,220.114 249.5,217.5C 246.496,216.243 243.663,214.577 241,212.5C 240.774,209.905 240.274,207.405 239.5,205C 241.833,204.667 244.167,204.333 246.5,204C 248.32,203.8 249.653,202.966 250.5,201.5C 252.844,200.653 254.344,198.986 255,196.5C 255.406,193.258 256.239,190.258 257.5,187.5 Z"/></g>
<g><path style="opacity:1" fill="#b07655" d="M 280.5,204.5 C 281.362,207.823 282.028,211.323 282.5,215C 282.684,216.376 283.351,217.209 284.5,217.5C 286.373,218.896 286.706,220.563 285.5,222.5C 284.609,223.11 283.609,223.443 282.5,223.5C 281.77,221.955 280.437,221.122 278.5,221C 274.128,221.526 269.795,221.359 265.5,220.5C 265.286,218.856 265.62,217.356 266.5,216C 265.338,215.173 264.171,214.34 263,213.5C 261.049,214.16 259.216,214.493 257.5,214.5C 256.449,213.778 255.782,212.778 255.5,211.5C 259.784,210.65 264.117,209.983 268.5,209.5C 272.398,209.499 275.898,210.499 279,212.5C 280.375,210.063 280.875,207.397 280.5,204.5 Z"/></g>
<g><path style="opacity:1" fill="#b58960" d="M 282.5,223.5 C 275.018,224.016 267.518,224.349 260,224.5C 257.836,221.553 257.002,218.219 257.5,214.5C 259.216,214.493 261.049,214.16 263,213.5C 264.171,214.34 265.338,215.173 266.5,216C 265.62,217.356 265.286,218.856 265.5,220.5C 269.795,221.359 274.128,221.526 278.5,221C 280.437,221.122 281.77,221.955 282.5,223.5 Z"/></g>
<g><path style="opacity:1" fill="#b49170" d="M 256.5,198.5 C 256.5,198.833 256.5,199.167 256.5,199.5C 256.5,200.167 256.5,200.833 256.5,201.5C 256.5,201.833 256.5,202.167 256.5,202.5C 255.523,205.287 255.19,208.287 255.5,211.5C 255.782,212.778 256.449,213.778 257.5,214.5C 257.002,218.219 257.836,221.553 260,224.5C 267.518,224.349 275.018,224.016 282.5,223.5C 283.609,223.443 284.609,223.11 285.5,222.5C 286.5,222.5 287.5,222.5 288.5,222.5C 285.439,224.02 282.439,225.687 279.5,227.5C 276.101,228.016 272.768,228.85 269.5,230C 270.737,230.232 271.737,230.732 272.5,231.5C 268.5,231.167 264.5,230.833 260.5,230.5C 258.105,227.122 255.771,223.789 253.5,220.5C 253.334,214.158 253.5,207.825 254,201.5C 254.377,200.058 255.21,199.058 256.5,198.5 Z"/></g>
<g><path style="opacity:1" fill="#e4c8b0" d="M 212.5,214.5 C 217.632,221.601 222.632,228.267 227.5,234.5C 218.774,232.604 213.107,227.438 210.5,219C 210.525,217.124 211.191,215.624 212.5,214.5 Z"/></g>
<g><path style="opacity:1" fill="#252934" d="M 348.5,240.5 C 348.666,249.506 348.5,258.506 348,267.5C 345.73,272.386 342.73,276.72 339,280.5C 336.416,278.327 334.583,275.66 333.5,272.5C 333.666,262.494 333.5,252.494 333,242.5C 332.184,241.177 331.017,240.511 329.5,240.5C 329.701,235.526 327.368,232.36 322.5,231C 314.167,230.333 305.833,230.333 297.5,231C 294.506,231.406 292.339,232.906 291,235.5C 290.5,244.827 290.334,254.161 290.5,263.5C 288.211,261.552 285.878,259.552 283.5,257.5C 282.715,252.248 282.215,246.915 282,241.5C 280.887,240.695 279.721,240.028 278.5,239.5C 279.119,234.794 277.119,232.127 272.5,231.5C 271.737,230.732 270.737,230.232 269.5,230C 272.768,228.85 276.101,228.016 279.5,227.5C 283.803,227.259 287.803,226.092 291.5,224C 295.5,223.333 299.5,223.333 303.5,224C 314.026,227.63 324.693,230.63 335.5,233C 339.782,235.593 344.115,238.093 348.5,240.5 Z"/></g>
<g><path style="opacity:1" fill="#d0d0d0" d="M 143.5,231.5 C 157.077,232.11 166.077,238.777 170.5,251.5C 171.587,264.141 171.754,276.807 171,289.5C 168.909,301.849 161.742,309.349 149.5,312C 139.537,313.213 129.537,313.713 119.5,313.5C 119.666,322.173 119.5,330.84 119,339.5C 117.833,340.667 116.667,341.833 115.5,343C 105.5,343.667 95.5,343.667 85.5,343C 83.4476,342.07 81.9476,340.57 81,338.5C 80.3333,304.833 80.3333,271.167 81,237.5C 81.4101,236.099 81.9101,234.766 82.5,233.5C 83.6828,232.496 85.0161,231.662 86.5,231C 105.544,230.192 124.544,230.359 143.5,231.5 Z"/></g>
<g><path style="opacity:1" fill="#d6d6d5" d="M 220.5,235.5 C 220.5,246.5 220.5,257.5 220.5,268.5C 222.167,268.5 223.833,268.5 225.5,268.5C 230.167,268.5 234.833,268.5 239.5,268.5C 239.5,263.5 239.5,258.5 239.5,253.5C 239.084,247.048 239.584,240.715 241,234.5C 242.214,232.951 243.714,231.785 245.5,231C 249.486,230.501 253.486,230.334 257.5,230.5C 258.5,230.5 259.5,230.5 260.5,230.5C 264.5,230.833 268.5,231.167 272.5,231.5C 277.119,232.127 279.119,234.794 278.5,239.5C 278.667,272.835 278.5,306.168 278,339.5C 276.961,340.71 275.794,341.71 274.5,342.5C 273.514,338.03 273.181,333.363 273.5,328.5C 273.831,297.995 273.498,267.662 272.5,237.5C 270.393,236.532 268.059,236.198 265.5,236.5C 258.833,236.5 252.167,236.5 245.5,236.5C 245.5,245.5 245.5,254.5 245.5,263.5C 244.521,266.625 244.187,269.958 244.5,273.5C 234.833,273.5 225.167,273.5 215.5,273.5C 215.828,261.322 215.495,249.322 214.5,237.5C 205.432,236.172 196.265,236.172 187,237.5C 186.169,270.669 186.336,303.669 187.5,336.5C 187.56,337.043 187.893,337.376 188.5,337.5C 189.167,332.683 189.834,328.017 190.5,323.5C 190.609,330.196 190.276,336.863 189.5,343.5C 188.5,343.5 187.5,343.5 186.5,343.5C 184.525,342.354 183.025,340.687 182,338.5C 181.5,318.836 181.333,299.169 181.5,279.5C 181.032,264.07 181.532,248.737 183,233.5C 184.419,232.54 185.919,231.707 187.5,231C 196.167,230.333 204.833,230.333 213.5,231C 216.585,231.53 218.918,233.03 220.5,235.5 Z"/></g>
<g><path style="opacity:1" fill="#d1d1d1" d="M 329.5,240.5 C 329.334,249.506 329.5,258.506 330,267.5C 331.03,269.346 332.196,271.013 333.5,272.5C 334.583,275.66 336.416,278.327 339,280.5C 342.73,276.72 345.73,272.386 348,267.5C 348.5,258.506 348.666,249.506 348.5,240.5C 348.392,235.979 350.392,232.812 354.5,231C 363.5,230.333 372.5,230.333 381.5,231C 384.534,232.191 386.201,234.358 386.5,237.5C 386.93,251.892 386.43,266.226 385,280.5C 377.108,293.059 368.441,305.059 359,316.5C 358.506,318.134 358.34,319.801 358.5,321.5C 356.833,321.5 355.167,321.5 353.5,321.5C 353.337,319.143 353.503,316.81 354,314.5C 363.056,302.444 371.722,290.11 380,277.5C 381.441,264.908 381.941,252.241 381.5,239.5C 381.586,238.504 381.252,237.671 380.5,237C 371.84,236.5 363.173,236.334 354.5,236.5C 354.666,246.839 354.5,257.172 354,267.5C 351.433,273.069 348.433,278.403 345,283.5C 343.887,284.305 342.721,284.972 341.5,285.5C 339.473,285.662 337.473,285.495 335.5,285C 331.388,280.609 327.888,275.776 325,270.5C 323.574,260.246 323.074,249.912 323.5,239.5C 323.5,238.5 323.5,237.5 323.5,236.5C 314.249,236.182 305.083,236.515 296,237.5C 295.191,248.576 295.358,259.576 296.5,270.5C 296.068,273.877 296.735,276.877 298.5,279.5C 306.37,291.55 314.87,303.217 324,314.5C 324.49,315.793 324.657,317.127 324.5,318.5C 324.5,321.167 324.5,323.833 324.5,326.5C 323.115,324.117 321.115,322.45 318.5,321.5C 318.66,319.801 318.494,318.134 318,316.5C 308.916,304.264 300.082,291.931 291.5,279.5C 290.8,275.202 290.467,270.869 290.5,266.5C 290.5,265.5 290.5,264.5 290.5,263.5C 290.334,254.161 290.5,244.827 291,235.5C 292.339,232.906 294.506,231.406 297.5,231C 305.833,230.333 314.167,230.333 322.5,231C 327.368,232.36 329.701,235.526 329.5,240.5 Z"/></g>
<g><path style="opacity:1" fill="#2c2b2c" d="M 153.5,239.5 C 133.356,239.428 113.022,239.595 92.5,240C 91.6195,240.708 90.9528,241.542 90.5,242.5C 89.8333,264.5 89.1667,286.5 88.5,308.5C 88.2785,305.933 87.6118,303.599 86.5,301.5C 86.5,279.833 86.5,258.167 86.5,236.5C 104.17,236.333 121.836,236.5 139.5,237C 144.276,237.346 148.942,238.179 153.5,239.5 Z"/></g>
<g><path style="opacity:1" fill="#2c2b2d" d="M 381.5,239.5 C 374.492,239.334 367.492,239.5 360.5,240C 360,240.5 359.5,241 359,241.5C 358.667,252.167 358.333,262.833 358,273.5C 354.958,278.419 351.791,283.252 348.5,288C 346.5,288.667 344.5,288.667 342.5,288C 341.748,287.329 341.414,286.496 341.5,285.5C 342.721,284.972 343.887,284.305 345,283.5C 348.433,278.403 351.433,273.069 354,267.5C 354.5,257.172 354.666,246.839 354.5,236.5C 363.173,236.334 371.84,236.5 380.5,237C 381.252,237.671 381.586,238.504 381.5,239.5 Z"/></g>
<g><path style="opacity:1" fill="#37373f" d="M 265.5,236.5 C 268.059,236.198 270.393,236.532 272.5,237.5C 271.012,239.845 269.012,240.179 266.5,238.5C 266.167,237.833 265.833,237.167 265.5,236.5 Z"/></g>
<g><path style="opacity:1" fill="#727272" d="M 153.5,239.5 C 160.508,243.017 164.675,248.684 166,256.5C 166.667,266.833 166.667,277.167 166,287.5C 164.221,296.588 159.054,302.754 150.5,306C 138.553,307.391 126.553,307.891 114.5,307.5C 114.666,317.172 114.5,326.839 114,336.5C 104.917,337.485 95.7506,337.818 86.5,337.5C 86.5,325.5 86.5,313.5 86.5,301.5C 87.6118,303.599 88.2785,305.933 88.5,308.5C 88.9867,309.473 89.4867,310.473 90,311.5C 90.5,288.502 90.6666,265.502 90.5,242.5C 90.9528,241.542 91.6195,240.708 92.5,240C 113.022,239.595 133.356,239.428 153.5,239.5 Z"/></g>
<g><path style="opacity:1" fill="#737373" d="M 272.5,237.5 C 273.498,267.662 273.831,297.995 273.5,328.5C 272.833,328.167 272.167,327.833 271.5,327.5C 271.822,325.278 271.155,323.444 269.5,322C 262.842,321.5 256.175,321.334 249.5,321.5C 249.5,317.167 249.5,312.833 249.5,308.5C 248.167,308.5 246.833,308.5 245.5,308.5C 245.5,305.5 245.5,302.5 245.5,299.5C 235.5,299.5 225.5,299.5 215.5,299.5C 214.67,308.658 214.17,317.991 214,327.5C 213.722,326.584 213.222,325.918 212.5,325.5C 212.489,323.983 211.823,322.816 210.5,322C 204.175,321.5 197.842,321.334 191.5,321.5C 191.333,294.831 191.5,268.165 192,241.5C 192.5,241 193,240.5 193.5,240C 200.492,239.5 207.492,239.334 214.5,239.5C 214.5,251.167 214.5,262.833 214.5,274.5C 217.833,274.5 221.167,274.5 224.5,274.5C 224.5,275.5 224.5,276.5 224.5,277.5C 232.833,277.5 241.167,277.5 249.5,277.5C 249.702,275.05 249.369,272.717 248.5,270.5C 249.33,261.009 249.83,251.342 250,241.5C 250.75,240.874 251.584,240.374 252.5,240C 257.351,239.826 262.018,239.326 266.5,238.5C 269.012,240.179 271.012,239.845 272.5,237.5 Z"/></g>
<g><path style="opacity:1" fill="#777777" d="M 220.5,235.5 C 225.694,235.416 226.694,237.416 223.5,241.5C 224.426,245.094 224.759,248.76 224.5,252.5C 224.5,254.167 224.5,255.833 224.5,257.5C 224.244,261.269 224.577,264.936 225.5,268.5C 223.833,268.5 222.167,268.5 220.5,268.5C 220.5,257.5 220.5,246.5 220.5,235.5 Z"/></g>
<g><path style="opacity:1" fill="#797979" d="M 278.5,239.5 C 279.721,240.028 280.887,240.695 282,241.5C 282.215,246.915 282.715,252.248 283.5,257.5C 282.508,264.648 282.175,271.981 282.5,279.5C 282.17,299.007 282.503,318.341 283.5,337.5C 281.949,340.836 280.615,344.169 279.5,347.5C 274.5,346.167 269.5,346.167 264.5,347.5C 263.733,346.828 263.066,345.995 262.5,345C 257.177,344.501 251.844,344.334 246.5,344.5C 255.833,343.833 265.167,343.167 274.5,342.5C 275.794,341.71 276.961,340.71 278,339.5C 278.5,306.168 278.667,272.835 278.5,239.5 Z"/></g>
<g><path style="opacity:1" fill="#727272" d="M 323.5,239.5 C 323.074,249.912 323.574,260.246 325,270.5C 327.888,275.776 331.388,280.609 335.5,285C 337.473,285.495 339.473,285.662 341.5,285.5C 341.414,286.496 341.748,287.329 342.5,288C 344.5,288.667 346.5,288.667 348.5,288C 351.791,283.252 354.958,278.419 358,273.5C 358.333,262.833 358.667,252.167 359,241.5C 359.5,241 360,240.5 360.5,240C 367.492,239.5 374.492,239.334 381.5,239.5C 381.941,252.241 381.441,264.908 380,277.5C 371.722,290.11 363.056,302.444 354,314.5C 353.503,316.81 353.337,319.143 353.5,321.5C 350.15,321.335 346.817,321.502 343.5,322C 343,322.5 342.5,323 342,323.5C 341.501,328.155 341.334,332.821 341.5,337.5C 337.154,337.666 332.821,337.499 328.5,337C 327.418,335.67 326.751,334.17 326.5,332.5C 327.645,328.689 327.812,324.689 327,320.5C 326.292,319.619 325.458,318.953 324.5,318.5C 324.657,317.127 324.49,315.793 324,314.5C 314.87,303.217 306.37,291.55 298.5,279.5C 299.468,277.393 299.802,275.059 299.5,272.5C 299.334,262.494 299.5,252.494 300,242.5C 300.833,241.667 301.667,240.833 302.5,240C 309.492,239.5 316.492,239.334 323.5,239.5 Z"/></g>
<g><path style="opacity:1" fill="#6c6d6e" d="M 329.5,240.5 C 331.017,240.511 332.184,241.177 333,242.5C 333.5,252.494 333.666,262.494 333.5,272.5C 332.196,271.013 331.03,269.346 330,267.5C 329.5,258.506 329.334,249.506 329.5,240.5 Z"/></g>
<g><path style="opacity:1" fill="#757575" d="M 386.5,237.5 C 387.283,239.076 388.45,240.409 390,241.5C 390.667,255.167 390.667,268.833 390,282.5C 388.772,286.059 387.106,289.392 385,292.5C 377.782,301.384 370.948,310.551 364.5,320C 369.351,320.174 374.018,320.674 378.5,321.5C 371.833,321.5 365.167,321.5 358.5,321.5C 358.34,319.801 358.506,318.134 359,316.5C 368.441,305.059 377.108,293.059 385,280.5C 386.43,266.226 386.93,251.892 386.5,237.5 Z"/></g>
<g><path style="opacity:1" fill="#393b49" d="M 323.5,239.5 C 316.492,239.334 309.492,239.5 302.5,240C 301.667,240.833 300.833,241.667 300,242.5C 299.5,252.494 299.334,262.494 299.5,272.5C 298.5,271.833 297.5,271.167 296.5,270.5C 295.358,259.576 295.191,248.576 296,237.5C 305.083,236.515 314.249,236.182 323.5,236.5C 323.5,237.5 323.5,238.5 323.5,239.5 Z"/></g>
<g><path style="opacity:1" fill="#4e4d4d" d="M 90.5,242.5 C 90.6666,265.502 90.5,288.502 90,311.5C 89.4867,310.473 88.9867,309.473 88.5,308.5C 89.1667,286.5 89.8333,264.5 90.5,242.5 Z"/></g>
<g><path style="opacity:1" fill="#dabf9f" d="M 265.5,236.5 C 265.833,237.167 266.167,237.833 266.5,238.5C 262.018,239.326 257.351,239.826 252.5,240C 251.584,240.374 250.75,240.874 250,241.5C 249.83,251.342 249.33,261.009 248.5,270.5C 247.737,268.632 246.737,266.965 245.5,265.5C 245.5,264.833 245.5,264.167 245.5,263.5C 245.5,254.5 245.5,245.5 245.5,236.5C 252.167,236.5 258.833,236.5 265.5,236.5 Z"/></g>
<g><path style="opacity:1" fill="#a0a4a1" d="M 224.5,257.5 C 224.5,255.833 224.5,254.167 224.5,252.5C 226.402,251.489 228.402,251.322 230.5,252C 231.907,257.424 229.907,259.257 224.5,257.5 Z"/></g>
<g><path style="opacity:1" fill="#aaaaaa" d="M 133.5,259.5 C 127.167,259.5 120.833,259.5 114.5,259.5C 114.5,268.5 114.5,277.5 114.5,286.5C 113.506,277.348 113.173,268.015 113.5,258.5C 120.354,258.176 127.021,258.509 133.5,259.5 Z"/></g>
<g><path style="opacity:1" fill="#d7d7d7" d="M 133.5,259.5 C 136.091,260.254 137.924,261.921 139,264.5C 139.499,268.821 139.666,273.154 139.5,277.5C 139.64,283.026 136.973,286.026 131.5,286.5C 125.833,286.5 120.167,286.5 114.5,286.5C 114.5,277.5 114.5,268.5 114.5,259.5C 120.833,259.5 127.167,259.5 133.5,259.5 Z"/></g>
<g><path style="opacity:1" fill="#6f6f70" d="M 133.5,279.5 C 133.5,275.5 133.5,271.5 133.5,267.5C 130.167,267.5 126.833,267.5 123.5,267.5C 123.5,271.833 123.5,276.167 123.5,280.5C 126.5,280.5 129.5,280.5 132.5,280.5C 128.366,281.485 124.032,281.818 119.5,281.5C 119.5,275.833 119.5,270.167 119.5,264.5C 123.846,264.334 128.179,264.501 132.5,265C 133,265.5 133.5,266 134,266.5C 134.814,271.02 134.647,275.354 133.5,279.5 Z"/></g>
<g><path style="opacity:1" fill="#464852" d="M 214.5,237.5 C 214.5,238.167 214.5,238.833 214.5,239.5C 207.492,239.334 200.492,239.5 193.5,240C 193,240.5 192.5,241 192,241.5C 191.5,268.165 191.333,294.831 191.5,321.5C 191.5,322.167 191.167,322.5 190.5,322.5C 190.5,308.167 190.5,293.833 190.5,279.5C 189.5,279.5 188.5,279.5 187.5,279.5C 187.5,298.5 187.5,317.5 187.5,336.5C 186.336,303.669 186.169,270.669 187,237.5C 196.265,236.172 205.432,236.172 214.5,237.5 Z"/></g>
<g><path style="opacity:1" fill="#bba48f" d="M 283.5,257.5 C 285.878,259.552 288.211,261.552 290.5,263.5C 290.5,264.5 290.5,265.5 290.5,266.5C 287.619,265.391 285.619,263.391 284.5,260.5C 283.504,266.798 283.17,273.132 283.5,279.5C 283.167,279.5 282.833,279.5 282.5,279.5C 282.175,271.981 282.508,264.648 283.5,257.5 Z"/></g>
<g><path style="opacity:1" fill="#262832" d="M 133.5,279.5 C 133.5,280.167 133.167,280.5 132.5,280.5C 129.5,280.5 126.5,280.5 123.5,280.5C 123.5,276.167 123.5,271.833 123.5,267.5C 126.833,267.5 130.167,267.5 133.5,267.5C 133.5,271.5 133.5,275.5 133.5,279.5 Z"/></g>
<g><path style="opacity:1" fill="#acacae" d="M 214.5,237.5 C 215.495,249.322 215.828,261.322 215.5,273.5C 225.167,273.5 234.833,273.5 244.5,273.5C 244.187,269.958 244.521,266.625 245.5,263.5C 245.5,264.167 245.5,264.833 245.5,265.5C 245.5,268.5 245.5,271.5 245.5,274.5C 238.5,274.5 231.5,274.5 224.5,274.5C 221.167,274.5 217.833,274.5 214.5,274.5C 214.5,262.833 214.5,251.167 214.5,239.5C 214.5,238.833 214.5,238.167 214.5,237.5 Z"/></g>
<g><path style="opacity:1" fill="#e6c49f" d="M 290.5,266.5 C 290.467,270.869 290.8,275.202 291.5,279.5C 288.833,279.5 286.167,279.5 283.5,279.5C 283.17,273.132 283.504,266.798 284.5,260.5C 285.619,263.391 287.619,265.391 290.5,266.5 Z"/></g>
<g><path style="opacity:1" fill="#30323f" d="M 245.5,265.5 C 246.737,266.965 247.737,268.632 248.5,270.5C 249.369,272.717 249.702,275.05 249.5,277.5C 241.167,277.5 232.833,277.5 224.5,277.5C 224.5,276.5 224.5,275.5 224.5,274.5C 231.5,274.5 238.5,274.5 245.5,274.5C 245.5,271.5 245.5,268.5 245.5,265.5 Z"/></g>
<g><path style="opacity:1" fill="#dab497" d="M 296.5,270.5 C 297.5,271.167 298.5,271.833 299.5,272.5C 299.802,275.059 299.468,277.393 298.5,279.5C 296.735,276.877 296.068,273.877 296.5,270.5 Z"/></g>
<g><path style="opacity:1" fill="#29282b" d="M 131.5,286.5 C 136.973,286.026 139.64,283.026 139.5,277.5C 140.319,274.695 140.819,271.695 141,268.5C 141.915,269.328 142.581,270.328 143,271.5C 146.73,288.596 140.23,294.263 123.5,288.5C 126.306,287.832 128.972,287.166 131.5,286.5 Z"/></g>
<g><path style="opacity:1" fill="#282626" d="M 175.5,279.5 C 177.5,279.5 179.5,279.5 181.5,279.5C 181.333,299.169 181.5,318.836 182,338.5C 183.025,340.687 184.525,342.354 186.5,343.5C 184.5,343.5 182.5,343.5 180.5,343.5C 181.113,337.729 180.446,332.396 178.5,327.5C 178.822,325.278 178.155,323.444 176.5,322C 170.167,321.333 163.833,321.333 157.5,322C 157,322.5 156.5,323 156,323.5C 155.333,343.833 155.333,364.167 156,384.5C 157.174,386.671 159.007,387.671 161.5,387.5C 161.611,388.117 161.944,388.617 162.5,389C 168.167,389.667 173.833,389.667 179.5,389C 180.056,388.617 180.389,388.117 180.5,387.5C 181.491,381.021 181.824,374.354 181.5,367.5C 184.167,367.5 186.833,367.5 189.5,367.5C 189.334,373.176 189.501,378.843 190,384.5C 191.264,386.607 193.097,387.607 195.5,387.5C 195.611,388.117 195.944,388.617 196.5,389C 202.749,389.809 208.916,389.642 215,388.5C 215.5,374.504 215.667,360.504 215.5,346.5C 217.5,346.5 219.5,346.5 221.5,346.5C 221.333,359.171 221.5,371.838 222,384.5C 223.174,386.671 225.007,387.671 227.5,387.5C 227.611,388.117 227.944,388.617 228.5,389C 243.167,389.667 257.833,389.667 272.5,389C 273.635,384.252 273.802,379.419 273,374.5C 272.617,373.944 272.117,373.611 271.5,373.5C 271.822,371.278 271.155,369.444 269.5,368C 261.841,367.5 254.174,367.334 246.5,367.5C 252.421,365.702 258.754,364.869 265.5,365C 266.632,360.587 266.799,356.087 266,351.5C 265.617,350.944 265.117,350.611 264.5,350.5C 264.5,349.5 264.5,348.5 264.5,347.5C 269.5,346.167 274.5,346.167 279.5,347.5C 278.91,348.766 278.41,350.099 278,351.5C 277.333,362.833 277.333,374.167 278,385.5C 279.11,387.037 280.61,387.703 282.5,387.5C 282.611,388.117 282.944,388.617 283.5,389C 289.167,389.667 294.833,389.667 300.5,389C 301.469,384.263 301.803,379.43 301.5,374.5C 304.833,374.5 308.167,374.5 311.5,374.5C 311.335,377.85 311.502,381.183 312,384.5C 313.174,386.671 315.007,387.671 317.5,387.5C 320.087,388.816 323.087,389.483 326.5,389.5C 329.752,389.479 332.919,389.146 336,388.5C 336.667,378.167 336.667,367.833 336,357.5C 335.434,355.277 334.6,353.277 333.5,351.5C 333.167,350.167 332.833,348.833 332.5,347.5C 335.287,346.523 338.287,346.19 341.5,346.5C 341.171,359.344 341.505,372.011 342.5,384.5C 343.401,386.727 345.067,387.727 347.5,387.5C 347.611,388.117 347.944,388.617 348.5,389C 353.155,389.499 357.821,389.666 362.5,389.5C 336.204,411.225 305.871,423.725 271.5,427C 201.336,431.748 146.67,405.248 107.5,347.5C 112.132,346.672 116.798,346.172 121.5,346C 122,345.5 122.5,345 123,344.5C 123.5,335.173 123.666,325.839 123.5,316.5C 132.506,316.666 141.506,316.5 150.5,316C 159.747,315.297 166.914,311.13 172,303.5C 174.916,295.764 176.083,287.764 175.5,279.5 Z"/></g>
<g><path style="opacity:1" fill="#272525" d="M 190.5,322.5 C 190.5,322.833 190.5,323.167 190.5,323.5C 189.834,328.017 189.167,332.683 188.5,337.5C 187.893,337.376 187.56,337.043 187.5,336.5C 187.5,317.5 187.5,298.5 187.5,279.5C 188.5,279.5 189.5,279.5 190.5,279.5C 190.5,293.833 190.5,308.167 190.5,322.5 Z"/></g>
<g><path style="opacity:1" fill="#474545" d="M 282.5,279.5 C 282.833,279.5 283.167,279.5 283.5,279.5C 283.17,298.008 283.503,316.341 284.5,334.5C 284.443,335.609 284.11,336.609 283.5,337.5C 282.503,318.341 282.17,299.007 282.5,279.5 Z"/></g>
<g><path style="opacity:1" fill="#292727" d="M 283.5,279.5 C 286.167,279.5 288.833,279.5 291.5,279.5C 300.082,291.931 308.916,304.264 318,316.5C 318.494,318.134 318.66,319.801 318.5,321.5C 309.161,321.334 299.827,321.5 290.5,322C 287.638,325.752 285.638,329.918 284.5,334.5C 283.503,316.341 283.17,298.008 283.5,279.5 Z"/></g>
<g><path style="opacity:1" fill="#d5d5d5" d="M 215.5,299.5 C 225.5,299.5 235.5,299.5 245.5,299.5C 245.5,302.5 245.5,305.5 245.5,308.5C 245.5,312.833 245.5,317.167 245.5,321.5C 243.5,321.5 241.5,321.5 239.5,321.5C 239.5,317.167 239.5,312.833 239.5,308.5C 239.5,307.167 239.5,305.833 239.5,304.5C 233.167,304.5 226.833,304.5 220.5,304.5C 220.667,315.838 220.5,327.172 220,338.5C 219.252,340.751 217.752,342.084 215.5,342.5C 215.5,328.167 215.5,313.833 215.5,299.5 Z"/></g>
<g><path style="opacity:1" fill="#2a2828" d="M 239.5,308.5 C 239.5,312.833 239.5,317.167 239.5,321.5C 234.5,321.5 229.5,321.5 224.5,321.5C 224.5,317.167 224.5,312.833 224.5,308.5C 229.5,308.5 234.5,308.5 239.5,308.5 Z"/></g>
<g><path style="opacity:1" fill="#2c2a2a" d="M 245.5,308.5 C 246.833,308.5 248.167,308.5 249.5,308.5C 249.5,312.833 249.5,317.167 249.5,321.5C 248.167,321.5 246.833,321.5 245.5,321.5C 245.5,317.167 245.5,312.833 245.5,308.5 Z"/></g>
<g><path style="opacity:1" fill="#2a2828" d="M 324.5,318.5 C 325.458,318.953 326.292,319.619 327,320.5C 327.812,324.689 327.645,328.689 326.5,332.5C 325.637,330.579 324.971,328.579 324.5,326.5C 324.5,323.833 324.5,321.167 324.5,318.5 Z"/></g>
<g><path style="opacity:1" fill="#e5e2e2" d="M 178.5,327.5 C 177.887,333.271 178.554,338.604 180.5,343.5C 182.5,343.5 184.5,343.5 186.5,343.5C 187.5,343.5 188.5,343.5 189.5,343.5C 190.276,336.863 190.609,330.196 190.5,323.5C 190.5,323.167 190.5,322.833 190.5,322.5C 191.167,322.5 191.5,322.167 191.5,321.5C 197.842,321.334 204.175,321.5 210.5,322C 211.823,322.816 212.489,323.983 212.5,325.5C 212.667,345.503 212.5,365.503 212,385.5C 211.5,386 211,386.5 210.5,387C 205.511,387.499 200.511,387.666 195.5,387.5C 193.097,387.607 191.264,386.607 190,384.5C 189.501,378.843 189.334,373.176 189.5,367.5C 189.5,367.167 189.5,366.833 189.5,366.5C 186.316,364.586 182.649,363.92 178.5,364.5C 178.929,371.947 178.429,379.281 177,386.5C 171.928,387.471 166.762,387.805 161.5,387.5C 159.007,387.671 157.174,386.671 156,384.5C 155.333,364.167 155.333,343.833 156,323.5C 156.5,323 157,322.5 157.5,322C 163.833,321.333 170.167,321.333 176.5,322C 178.155,323.444 178.822,325.278 178.5,327.5 Z"/></g>
<g><path style="opacity:1" fill="#e6e3e3" d="M 224.5,321.5 C 229.5,321.5 234.5,321.5 239.5,321.5C 241.5,321.5 243.5,321.5 245.5,321.5C 246.833,321.5 248.167,321.5 249.5,321.5C 256.175,321.334 262.842,321.5 269.5,322C 271.155,323.444 271.822,325.278 271.5,327.5C 271.665,331.182 271.499,334.848 271,338.5C 270.167,339.333 269.333,340.167 268.5,341C 260.507,341.5 252.507,341.666 244.5,341.5C 244.285,343.179 244.952,344.179 246.5,344.5C 251.844,344.334 257.177,344.501 262.5,345C 263.066,345.995 263.733,346.828 264.5,347.5C 264.5,348.5 264.5,349.5 264.5,350.5C 264.665,353.85 264.498,357.183 264,360.5C 263.692,361.308 263.192,361.975 262.5,362.5C 256.561,363.457 250.561,363.79 244.5,363.5C 244.157,365.483 244.824,366.817 246.5,367.5C 254.174,367.334 261.841,367.5 269.5,368C 271.155,369.444 271.822,371.278 271.5,373.5C 271.665,377.182 271.499,380.848 271,384.5C 270.5,385.667 269.667,386.5 268.5,387C 254.837,387.5 241.171,387.667 227.5,387.5C 225.007,387.671 223.174,386.671 222,384.5C 221.5,371.838 221.333,359.171 221.5,346.5C 221.334,338.826 221.5,331.159 222,323.5C 222.708,322.619 223.542,321.953 224.5,321.5 Z"/></g>
<g><path style="opacity:1" fill="#e5e2e2" d="M 318.5,321.5 C 321.115,322.45 323.115,324.117 324.5,326.5C 324.971,328.579 325.637,330.579 326.5,332.5C 326.751,334.17 327.418,335.67 328.5,337C 332.821,337.499 337.154,337.666 341.5,337.5C 341.334,332.821 341.501,328.155 342,323.5C 342.5,323 343,322.5 343.5,322C 346.817,321.502 350.15,321.335 353.5,321.5C 355.167,321.5 356.833,321.5 358.5,321.5C 365.167,321.5 371.833,321.5 378.5,321.5C 388.725,321.266 395.391,325.932 398.5,335.5C 398.667,348.171 398.5,360.838 398,373.5C 396.001,381.492 390.834,385.992 382.5,387C 370.838,387.5 359.171,387.667 347.5,387.5C 345.067,387.727 343.401,386.727 342.5,384.5C 342.5,370.833 342.5,357.167 342.5,343.5C 338.486,343.334 334.486,343.501 330.5,344C 331.085,345.302 331.751,346.469 332.5,347.5C 332.833,348.833 333.167,350.167 333.5,351.5C 334.574,362.473 334.74,373.473 334,384.5C 333.167,385.333 332.333,386.167 331.5,387C 326.845,387.499 322.179,387.666 317.5,387.5C 315.007,387.671 313.174,386.671 312,384.5C 311.502,381.183 311.335,377.85 311.5,374.5C 311.5,373.5 311.5,372.5 311.5,371.5C 307.5,371.5 303.5,371.5 299.5,371.5C 302.323,385.675 296.656,391.008 282.5,387.5C 280.61,387.703 279.11,387.037 278,385.5C 277.333,374.167 277.333,362.833 278,351.5C 278.41,350.099 278.91,348.766 279.5,347.5C 280.615,344.169 281.949,340.836 283.5,337.5C 284.11,336.609 284.443,335.609 284.5,334.5C 285.638,329.918 287.638,325.752 290.5,322C 299.827,321.5 309.161,321.334 318.5,321.5 Z"/></g>
<g><path style="opacity:1" fill="#434141" d="M 175.5,327.5 C 170.833,327.5 166.167,327.5 161.5,327.5C 161.5,346.167 161.5,364.833 161.5,383.5C 160.5,383.5 159.5,383.5 158.5,383.5C 158.333,364.164 158.5,344.83 159,325.5C 164.082,324.363 169.249,324.196 174.5,325C 175.252,325.671 175.586,326.504 175.5,327.5 Z"/></g>
<g><path style="opacity:1" fill="#7d7d7d" d="M 209.5,327.5 C 205.154,327.334 200.821,327.501 196.5,328C 195.549,331.057 195.216,334.223 195.5,337.5C 193.57,333.627 192.903,329.294 193.5,324.5C 198.833,324.5 204.167,324.5 209.5,324.5C 209.5,325.5 209.5,326.5 209.5,327.5 Z"/></g>
<g><path style="opacity:1" fill="#494747" d="M 239.5,324.5 C 239.5,325.5 239.5,326.5 239.5,327.5C 235.5,327.5 231.5,327.5 227.5,327.5C 227.5,346.167 227.5,364.833 227.5,383.5C 226.5,383.5 225.5,383.5 224.5,383.5C 224.333,364.164 224.5,344.83 225,325.5C 229.737,324.531 234.57,324.197 239.5,324.5 Z"/></g>
<g><path style="opacity:1" fill="#767676" d="M 245.5,324.5 C 253.019,324.175 260.352,324.508 267.5,325.5C 260.576,327.463 253.243,328.13 245.5,327.5C 245.5,326.5 245.5,325.5 245.5,324.5 Z"/></g>
<g><path style="opacity:1" fill="#363434" d="M 318.5,325.5 C 310.651,327.177 302.485,328.177 294,328.5C 289.941,338.011 286.274,347.678 283,357.5C 282.5,366.16 282.334,374.827 282.5,383.5C 281.172,378.881 280.506,373.881 280.5,368.5C 280.667,363.5 280.833,358.5 281,353.5C 284.222,344.057 287.722,334.724 291.5,325.5C 300.658,324.178 309.658,324.178 318.5,325.5 Z"/></g>
<g><path style="opacity:1" fill="#757575" d="M 345.5,325.5 C 347.857,325.337 350.19,325.503 352.5,326C 350.899,326.273 349.399,326.773 348,327.5C 347.502,330.817 347.335,334.15 347.5,337.5C 345.577,333.971 344.911,329.971 345.5,325.5 Z"/></g>
<g><path style="opacity:1" fill="#383636" d="M 362.5,324.5 C 369.557,324.24 376.557,324.573 383.5,325.5C 376.5,326.833 369.5,326.833 362.5,325.5C 362.5,325.167 362.5,324.833 362.5,324.5 Z"/></g>
<g><path style="opacity:1" fill="#a6a6a6" d="M 239.5,324.5 C 241.5,327.167 243.5,327.167 245.5,324.5C 245.5,325.5 245.5,326.5 245.5,327.5C 253.243,328.13 260.576,327.463 267.5,325.5C 268.483,329.298 268.817,333.298 268.5,337.5C 259.167,337.5 249.833,337.5 240.5,337.5C 240.5,340.833 240.5,344.167 240.5,347.5C 242.5,347.5 244.5,347.5 246.5,347.5C 246.5,348.5 246.5,349.5 246.5,350.5C 251.5,350.5 256.5,350.5 261.5,350.5C 261.5,353.5 261.5,356.5 261.5,359.5C 254.833,359.5 248.167,359.5 241.5,359.5C 241.5,363.167 241.5,366.833 241.5,370.5C 243.167,370.5 244.833,370.5 246.5,370.5C 246.5,371.167 246.5,371.833 246.5,372.5C 253.648,373.492 260.981,373.825 268.5,373.5C 268.5,376.833 268.5,380.167 268.5,383.5C 254.833,383.5 241.167,383.5 227.5,383.5C 227.5,364.833 227.5,346.167 227.5,327.5C 231.5,327.5 235.5,327.5 239.5,327.5C 239.5,326.5 239.5,325.5 239.5,324.5 Z"/></g>
<g><path style="opacity:1" fill="#656464" d="M 362.5,325.5 C 369.5,326.833 376.5,326.833 383.5,325.5C 385.579,325.971 387.579,326.637 389.5,327.5C 389.44,328.043 389.107,328.376 388.5,328.5C 378.863,327.857 369.196,327.19 359.5,326.5C 360.325,325.614 361.325,325.281 362.5,325.5 Z"/></g>
<g><path style="opacity:1" fill="#a6a6a6" d="M 175.5,327.5 C 175.5,333.833 175.5,340.167 175.5,346.5C 177.167,346.5 178.833,346.5 180.5,346.5C 180.5,347.5 180.5,348.5 180.5,349.5C 185.695,349.821 190.695,349.487 195.5,348.5C 195.5,347.167 194.833,346.5 193.5,346.5C 194.776,343.664 195.442,340.664 195.5,337.5C 195.216,334.223 195.549,331.057 196.5,328C 200.821,327.501 205.154,327.334 209.5,327.5C 209.5,346.167 209.5,364.833 209.5,383.5C 204.833,383.5 200.167,383.5 195.5,383.5C 196.113,377.729 195.446,372.396 193.5,367.5C 193.5,365.5 193.5,363.5 193.5,361.5C 187.5,361.5 181.5,361.5 175.5,361.5C 175.5,368.833 175.5,376.167 175.5,383.5C 170.833,383.5 166.167,383.5 161.5,383.5C 161.5,364.833 161.5,346.167 161.5,327.5C 166.167,327.5 170.833,327.5 175.5,327.5 Z"/></g>
<g><path style="opacity:1" fill="#aaaaaa" d="M 178.5,327.5 C 180.446,332.396 181.113,337.729 180.5,343.5C 178.554,338.604 177.887,333.271 178.5,327.5 Z"/></g>
<g><path style="opacity:1" fill="#a6a6a6" d="M 271.5,327.5 C 272.167,327.833 272.833,328.167 273.5,328.5C 273.181,333.363 273.514,338.03 274.5,342.5C 265.167,343.167 255.833,343.833 246.5,344.5C 244.952,344.179 244.285,343.179 244.5,341.5C 252.507,341.666 260.507,341.5 268.5,341C 269.333,340.167 270.167,339.333 271,338.5C 271.499,334.848 271.665,331.182 271.5,327.5 Z"/></g>
<g><path style="opacity:1" fill="#a5a5a5" d="M 318.5,325.5 C 320.136,326.749 321.303,328.416 322,330.5C 324.667,337.833 327.333,345.167 330,352.5C 330.5,362.828 330.666,373.161 330.5,383.5C 325.833,383.5 321.167,383.5 316.5,383.5C 317.055,379.988 316.388,376.988 314.5,374.5C 314.5,372.5 314.5,370.5 314.5,368.5C 308.5,368.5 302.5,368.5 296.5,368.5C 296.5,373.5 296.5,378.5 296.5,383.5C 291.833,383.5 287.167,383.5 282.5,383.5C 282.334,374.827 282.5,366.16 283,357.5C 286.274,347.678 289.941,338.011 294,328.5C 302.485,328.177 310.651,327.177 318.5,325.5 Z"/></g>
<g><path style="opacity:1" fill="#a6a5a5" d="M 345.5,325.5 C 348.973,324.217 352.473,324.551 356,326.5C 358.059,325.382 360.226,324.715 362.5,324.5C 362.5,324.833 362.5,325.167 362.5,325.5C 361.325,325.281 360.325,325.614 359.5,326.5C 369.196,327.19 378.863,327.857 388.5,328.5C 389.107,328.376 389.44,328.043 389.5,327.5C 392.231,329.071 394.065,331.405 395,334.5C 395.667,346.833 395.667,359.167 395,371.5C 394.043,377.127 390.876,380.96 385.5,383C 372.838,383.5 360.171,383.667 347.5,383.5C 346.833,334.167 346.167,334.167 345.5,383.5C 344.504,370.344 344.171,357.01 344.5,343.5C 345.5,343.5 346.5,343.5 347.5,343.5C 347.5,341.5 347.5,339.5 347.5,337.5C 347.335,334.15 347.502,330.817 348,327.5C 349.399,326.773 350.899,326.273 352.5,326C 350.19,325.503 347.857,325.337 345.5,325.5 Z"/></g>
<g><path style="opacity:1" fill="#a1a1a1" d="M 215.5,299.5 C 215.5,313.833 215.5,328.167 215.5,342.5C 215.5,343.833 215.5,345.167 215.5,346.5C 215.667,360.504 215.5,374.504 215,388.5C 208.916,389.642 202.749,389.809 196.5,389C 195.944,388.617 195.611,388.117 195.5,387.5C 200.511,387.666 205.511,387.499 210.5,387C 211,386.5 211.5,386 212,385.5C 212.5,365.503 212.667,345.503 212.5,325.5C 213.222,325.918 213.722,326.584 214,327.5C 214.17,317.991 214.67,308.658 215.5,299.5 Z"/></g>
<g><path style="opacity:1" fill="#777777" d="M 239.5,308.5 C 234.5,308.5 229.5,308.5 224.5,308.5C 224.5,312.833 224.5,317.167 224.5,321.5C 223.542,321.953 222.708,322.619 222,323.5C 221.5,331.159 221.334,338.826 221.5,346.5C 219.5,346.5 217.5,346.5 215.5,346.5C 215.5,345.167 215.5,343.833 215.5,342.5C 217.752,342.084 219.252,340.751 220,338.5C 220.5,327.172 220.667,315.838 220.5,304.5C 226.833,304.5 233.167,304.5 239.5,304.5C 239.5,305.833 239.5,307.167 239.5,308.5 Z"/></g>
<g><path style="opacity:1" fill="#e3e1e1" d="M 303.5,356.5 C 303.167,356.5 302.833,356.5 302.5,356.5C 300.5,356.5 298.5,356.5 296.5,356.5C 297.486,351.04 298.986,345.707 301,340.5C 304.523,336.299 307.523,336.632 310,341.5C 311.482,346.108 312.649,350.775 313.5,355.5C 309.958,355.187 306.625,355.521 303.5,356.5 Z"/></g>
<g><path style="opacity:1" fill="#e2dfdf" d="M 378.5,367.5 C 377.738,369.262 376.404,370.262 374.5,370.5C 371.833,370.5 369.167,370.5 366.5,370.5C 364.833,370.5 363.167,370.5 361.5,370.5C 361.5,359.5 361.5,348.5 361.5,337.5C 366.179,337.334 370.845,337.501 375.5,338C 376.416,338.374 377.25,338.874 378,339.5C 378.5,348.827 378.666,358.161 378.5,367.5 Z"/></g>
<g><path style="opacity:1" fill="#a8a8a8" d="M 398.5,335.5 C 399.931,336.78 400.598,338.447 400.5,340.5C 400.946,354.24 400.446,367.907 399,381.5C 395.603,385.949 391.103,388.449 385.5,389C 377.841,389.5 370.174,389.666 362.5,389.5C 357.821,389.666 353.155,389.499 348.5,389C 347.944,388.617 347.611,388.117 347.5,387.5C 359.171,387.667 370.838,387.5 382.5,387C 390.834,385.992 396.001,381.492 398,373.5C 398.5,360.838 398.667,348.171 398.5,335.5 Z"/></g>
<g><path style="opacity:1" fill="#a6a6a6" d="M 307.5,344.5 C 305.603,346.698 304.603,349.364 304.5,352.5C 303.5,352.5 302.5,352.5 301.5,352.5C 302.167,348.833 302.833,345.167 303.5,341.5C 305.619,341.468 306.952,342.468 307.5,344.5 Z"/></g>
<g><path style="opacity:1" fill="#acacac" d="M 375.5,343.5 C 372.5,343.5 369.5,343.5 366.5,343.5C 366.5,351.5 366.5,359.5 366.5,367.5C 364.53,359.231 363.864,350.565 364.5,341.5C 368.649,340.92 372.316,341.586 375.5,343.5 Z"/></g>
<g><path style="opacity:1" fill="#858484" d="M 342.5,384.5 C 341.505,372.011 341.171,359.344 341.5,346.5C 338.287,346.19 335.287,346.523 332.5,347.5C 331.751,346.469 331.085,345.302 330.5,344C 334.486,343.501 338.486,343.334 342.5,343.5C 342.5,357.167 342.5,370.833 342.5,384.5 Z"/></g>
<g><path style="opacity:1" fill="#2c2a2a" d="M 375.5,343.5 C 375.5,351.5 375.5,359.5 375.5,367.5C 372.5,367.5 369.5,367.5 366.5,367.5C 366.5,359.5 366.5,351.5 366.5,343.5C 369.5,343.5 372.5,343.5 375.5,343.5 Z"/></g>
<g><path style="opacity:1" fill="#343232" d="M 307.5,344.5 C 308.475,347.067 309.142,349.733 309.5,352.5C 307.833,352.5 306.167,352.5 304.5,352.5C 304.603,349.364 305.603,346.698 307.5,344.5 Z"/></g>
<g><path style="opacity:1" fill="#2e2c2c" d="M 379.5,372.5 C 375.486,372.666 371.486,372.499 367.5,372C 370.036,371.814 372.369,371.314 374.5,370.5C 376.404,370.262 377.738,369.262 378.5,367.5C 379.329,360.011 379.829,352.344 380,344.5C 380.333,344.833 380.667,345.167 381,345.5C 381.667,354.167 381.667,362.833 381,371.5C 380.617,372.056 380.117,372.389 379.5,372.5 Z"/></g>
<g><path style="opacity:1" fill="#272525" d="M 181.5,346.5 C 185.5,346.5 189.5,346.5 193.5,346.5C 194.833,346.5 195.5,347.167 195.5,348.5C 190.381,349.103 185.715,348.436 181.5,346.5 Z"/></g>
<g><path style="opacity:1" fill="#3c3b3b" d="M 347.5,383.5 C 346.833,383.5 346.167,383.5 345.5,383.5C 346.167,334.167 346.833,334.167 347.5,383.5 Z"/></g>
<g><path style="opacity:1" fill="#6c6b6b" d="M 180.5,346.5 C 180.833,346.5 181.167,346.5 181.5,346.5C 185.715,348.436 190.381,349.103 195.5,348.5C 190.695,349.487 185.695,349.821 180.5,349.5C 180.5,348.5 180.5,347.5 180.5,346.5 Z"/></g>
<g><path style="opacity:1" fill="#4f4d4d" d="M 246.5,347.5 C 251.179,347.334 255.845,347.501 260.5,348C 261.252,348.671 261.586,349.504 261.5,350.5C 256.5,350.5 251.5,350.5 246.5,350.5C 246.5,349.5 246.5,348.5 246.5,347.5 Z"/></g>
<g><path style="opacity:1" fill="#a4a4a4" d="M 264.5,350.5 C 265.117,350.611 265.617,350.944 266,351.5C 266.799,356.087 266.632,360.587 265.5,365C 258.754,364.869 252.421,365.702 246.5,367.5C 244.824,366.817 244.157,365.483 244.5,363.5C 250.561,363.79 256.561,363.457 262.5,362.5C 263.192,361.975 263.692,361.308 264,360.5C 264.498,357.183 264.665,353.85 264.5,350.5 Z"/></g>
<g><path style="opacity:1" fill="#2e2c2c" d="M 302.5,356.5 C 302.833,356.5 303.167,356.5 303.5,356.5C 307.437,356.793 311.27,356.46 315,355.5C 315.483,356.448 315.649,357.448 315.5,358.5C 310.706,359.097 306.373,358.43 302.5,356.5 Z"/></g>
<g><path style="opacity:1" fill="#a0a0a0" d="M 333.5,351.5 C 334.6,353.277 335.434,355.277 336,357.5C 336.667,367.833 336.667,378.167 336,388.5C 332.919,389.146 329.752,389.479 326.5,389.5C 323.087,389.483 320.087,388.816 317.5,387.5C 322.179,387.666 326.845,387.499 331.5,387C 332.333,386.167 333.167,385.333 334,384.5C 334.74,373.473 334.574,362.473 333.5,351.5 Z"/></g>
<g><path style="opacity:1" fill="#a7a7a7" d="M 189.5,366.5 C 186.5,366.5 183.5,366.5 180.5,366.5C 180.5,373.5 180.5,380.5 180.5,387.5C 180.389,388.117 180.056,388.617 179.5,389C 173.833,389.667 168.167,389.667 162.5,389C 161.944,388.617 161.611,388.117 161.5,387.5C 166.762,387.805 171.928,387.471 177,386.5C 178.429,379.281 178.929,371.947 178.5,364.5C 182.649,363.92 186.316,364.586 189.5,366.5 Z"/></g>
<g><path style="opacity:1" fill="#646363" d="M 189.5,366.5 C 189.5,366.833 189.5,367.167 189.5,367.5C 186.833,367.5 184.167,367.5 181.5,367.5C 181.824,374.354 181.491,381.021 180.5,387.5C 180.5,380.5 180.5,373.5 180.5,366.5C 183.5,366.5 186.5,366.5 189.5,366.5 Z"/></g>
<g><path style="opacity:1" fill="#2c2a2a" d="M 193.5,367.5 C 195.446,372.396 196.113,377.729 195.5,383.5C 193.554,378.604 192.887,373.271 193.5,367.5 Z"/></g>
<g><path style="opacity:1" fill="#373434" d="M 246.5,370.5 C 253.687,370.175 260.687,370.509 267.5,371.5C 260.687,372.491 253.687,372.825 246.5,372.5C 246.5,371.833 246.5,371.167 246.5,370.5 Z"/></g>
<g><path style="opacity:1" fill="#5e5c5c" d="M 267.5,371.5 C 268.338,371.842 268.672,372.508 268.5,373.5C 260.981,373.825 253.648,373.492 246.5,372.5C 253.687,372.825 260.687,372.491 267.5,371.5 Z"/></g>
<g><path style="opacity:1" fill="#a2a2a2" d="M 311.5,374.5 C 308.167,374.5 304.833,374.5 301.5,374.5C 301.803,379.43 301.469,384.263 300.5,389C 294.833,389.667 289.167,389.667 283.5,389C 282.944,388.617 282.611,388.117 282.5,387.5C 296.656,391.008 302.323,385.675 299.5,371.5C 303.5,371.5 307.5,371.5 311.5,371.5C 311.5,372.5 311.5,373.5 311.5,374.5 Z"/></g>
<g><path style="opacity:1" fill="#5e5c5c" d="M 366.5,370.5 C 369.167,370.5 371.833,370.5 374.5,370.5C 372.369,371.314 370.036,371.814 367.5,372C 371.486,372.499 375.486,372.666 379.5,372.5C 375.366,373.485 371.032,373.818 366.5,373.5C 366.5,372.5 366.5,371.5 366.5,370.5 Z"/></g>
<g><path style="opacity:1" fill="#a5a5a5" d="M 271.5,373.5 C 272.117,373.611 272.617,373.944 273,374.5C 273.802,379.419 273.635,384.252 272.5,389C 257.833,389.667 243.167,389.667 228.5,389C 227.944,388.617 227.611,388.117 227.5,387.5C 241.171,387.667 254.837,387.5 268.5,387C 269.667,386.5 270.5,385.667 271,384.5C 271.499,380.848 271.665,377.182 271.5,373.5 Z"/></g>
<g><path style="opacity:1" fill="#333131" d="M 314.5,374.5 C 316.388,376.988 317.055,379.988 316.5,383.5C 314.612,381.012 313.945,378.012 314.5,374.5 Z"/></g>
<g><path style="opacity:1" fill="#c2c2c2" d="M 203.5,405.5 C 202.833,405.833 202.167,406.167 201.5,406.5C 199.052,407.473 196.385,407.806 193.5,407.5C 193.5,403.167 193.5,398.833 193.5,394.5C 196.5,394.5 199.5,394.5 202.5,394.5C 202.34,396.199 202.506,397.866 203,399.5C 203.333,398.5 203.667,397.5 204,396.5C 204.684,398.479 204.184,400.146 202.5,401.5C 203.246,402.736 203.579,404.07 203.5,405.5 Z"/></g>
<g><path style="opacity:1" fill="#d5d5d5" d="M 251.5,396.5 C 251.633,399.925 250.967,400.258 249.5,397.5C 249.5,396.833 249.167,396.5 248.5,396.5C 247.081,395.549 245.415,395.216 243.5,395.5C 243.232,397.099 243.566,398.432 244.5,399.5C 246.042,400.301 247.708,400.634 249.5,400.5C 247.735,401.461 245.735,401.795 243.5,401.5C 243.795,403.735 243.461,405.735 242.5,407.5C 242.5,403.167 242.5,398.833 242.5,394.5C 245.187,394.336 247.854,394.503 250.5,395C 251.056,395.383 251.389,395.883 251.5,396.5 Z"/></g>
<g><path style="opacity:1" fill="#b4b4b4" d="M 256.5,398.5 C 256.611,399.117 256.944,399.617 257.5,400C 257.154,402.94 256.154,405.44 254.5,407.5C 254.173,402.786 254.507,398.12 255.5,393.5C 256.452,395.045 256.785,396.712 256.5,398.5 Z"/></g>
<g><path style="opacity:1" fill="#686767" d="M 199.5,396.5 C 198.329,397.345 196.995,398.011 195.5,398.5C 195.5,397.5 195.5,396.5 195.5,395.5C 197.099,395.232 198.432,395.566 199.5,396.5 Z"/></g>
<g><path style="opacity:1" fill="#787878" d="M 248.5,396.5 C 246.924,397.143 245.59,398.143 244.5,399.5C 243.566,398.432 243.232,397.099 243.5,395.5C 245.415,395.216 247.081,395.549 248.5,396.5 Z"/></g>
<g><path style="opacity:1" fill="#201f1f" d="M 199.5,396.5 C 200.478,396.811 201.145,397.478 201.5,398.5C 199.364,399.793 197.364,399.793 195.5,398.5C 196.995,398.011 198.329,397.345 199.5,396.5 Z"/></g>
<g><path style="opacity:1" fill="#b8b8b8" d="M 215.5,393.5 C 217.655,393.372 219.655,393.872 221.5,395C 221,395.5 220.5,396 220,396.5C 217.8,395.01 215.966,395.343 214.5,397.5C 216.003,399.422 218.003,400.588 220.5,401C 224.209,404.39 224.042,407.223 220,409.5C 210.002,406.394 210.168,405.394 220.5,406.5C 220.67,405.178 220.337,404.011 219.5,403C 212.018,402.195 210.685,399.028 215.5,393.5 Z"/></g>
<g><path style="opacity:1" fill="#1f1e1e" d="M 248.5,396.5 C 249.167,396.5 249.5,396.833 249.5,397.5C 249.5,398.5 249.5,399.5 249.5,400.5C 247.708,400.634 246.042,400.301 244.5,399.5C 245.59,398.143 246.924,397.143 248.5,396.5 Z"/></g>
<g><path style="opacity:1" fill="#bfbebe" d="M 258.5,398.5 C 263.987,399.125 265.653,402.125 263.5,407.5C 263.026,404.783 262.026,402.45 260.5,400.5C 259.833,399.833 259.167,399.167 258.5,398.5 Z"/></g>
<g><path style="opacity:1" fill="#c8c8c8" d="M 291.5,407.5 C 290.833,407.5 290.167,407.5 289.5,407.5C 290.167,395.5 290.833,395.5 291.5,407.5 Z"/></g>
<g><path style="opacity:1" fill="#575656" d="M 289.5,407.5 C 290.167,407.5 290.833,407.5 291.5,407.5C 292.375,405.28 292.875,402.28 293,398.5C 293.499,402.152 293.665,405.818 293.5,409.5C 291.517,409.843 290.183,409.176 289.5,407.5 Z"/></g>
<g><path style="opacity:1" fill="#9c9b9b" d="M 266.5,399.5 C 266.735,398.903 267.235,398.57 268,398.5C 269.502,400.175 271.002,401.841 272.5,403.5C 273.667,401.833 274.833,400.167 276,398.5C 276.92,398.93 277.753,399.264 278.5,399.5C 276.43,404.209 274.263,408.876 272,413.5C 271.683,411.699 271.016,411.366 270,412.5C 271.177,407.543 270.011,403.21 266.5,399.5 Z"/></g>
<g><path style="opacity:1" fill="#9c9c9c" d="M 281.5,398.5 C 283.831,398.498 285.831,399.331 287.5,401C 285.833,401.333 284.167,401.667 282.5,402C 285.005,402.51 286.505,404.01 287,406.5C 287.333,405.833 287.667,405.167 288,404.5C 287.583,409.816 285.083,410.816 280.5,407.5C 281.833,406.833 283.167,406.167 284.5,405.5C 282.611,404.396 280.945,403.063 279.5,401.5C 280.193,400.482 280.859,399.482 281.5,398.5 Z"/></g>
<g><path style="opacity:1" fill="#a4a4a4" d="M 297.5,398.5 C 299.288,398.215 300.955,398.548 302.5,399.5C 300.677,400.491 299.177,401.824 298,403.5C 297.667,402.833 297.333,402.167 297,401.5C 296.333,402.833 296.333,404.167 297,405.5C 299.069,406.264 301.236,406.764 303.5,407C 304.833,407.667 304.833,408.333 303.5,409C 295.038,408.761 293.038,405.261 297.5,398.5 Z"/></g>
<g><path style="opacity:1" fill="#a8a7a7" d="M 227.5,398.5 C 229.604,398.201 231.604,398.534 233.5,399.5C 230.848,400.653 228.848,402.487 227.5,405C 229.285,406.163 231.285,406.83 233.5,407C 227.148,409.399 224.648,407.232 226,400.5C 226.717,399.956 227.217,399.289 227.5,398.5 Z"/></g>
<g><path style="opacity:1" fill="#2c2b2b" d="M 201.5,406.5 C 199.5,406.5 197.5,406.5 195.5,406.5C 195.5,404.833 195.5,403.167 195.5,401.5C 199.938,400.425 201.938,402.092 201.5,406.5 Z"/></g>
<g><path style="opacity:1" fill="#767676" d="M 251.5,396.5 C 253.84,397.572 254.173,399.239 252.5,401.5C 250.49,403.171 248.157,403.838 245.5,403.5C 245.5,405.5 245.5,407.5 245.5,409.5C 243.821,409.715 242.821,409.048 242.5,407.5C 243.461,405.735 243.795,403.735 243.5,401.5C 245.735,401.795 247.735,401.461 249.5,400.5C 249.5,399.5 249.5,398.5 249.5,397.5C 250.967,400.258 251.633,399.925 251.5,396.5 Z"/></g>
<g><path style="opacity:1" fill="#5b5a5a" d="M 256.5,398.5 C 257.167,398.5 257.833,398.5 258.5,398.5C 259.167,399.167 259.833,399.833 260.5,400.5C 258.758,403.145 258.091,406.145 258.5,409.5C 256.517,409.843 255.183,409.176 254.5,407.5C 256.154,405.44 257.154,402.94 257.5,400C 256.944,399.617 256.611,399.117 256.5,398.5 Z"/></g>
<g><path style="opacity:1" fill="#757575" d="M 203.5,405.5 C 204.828,406.91 204.495,408.076 202.5,409C 201,409.167 199.5,409.333 198,409.5C 196.014,409.431 194.514,408.765 193.5,407.5C 196.385,407.806 199.052,407.473 201.5,406.5C 202.167,406.167 202.833,405.833 203.5,405.5 Z"/></g>
<g><path style="opacity:1" fill="#898888" d="M 206.5,406.5 C 207.913,407.766 209.246,408.432 210.5,408.5C 208.167,409.941 206.834,409.275 206.5,406.5 Z"/></g>
<g><path style="opacity:1" fill="#8d8d8d" d="M 307.5,398.5 C 309.831,398.498 311.831,399.331 313.5,401C 311.833,401.333 310.167,401.667 308.5,402C 311.293,402.744 312.793,404.577 313,407.5C 313.333,406.5 313.667,405.5 314,404.5C 314.986,406.925 314.319,408.591 312,409.5C 309.964,409.046 308.13,408.213 306.5,407C 311.652,405.806 311.652,404.64 306.5,403.5C 306.366,401.708 306.699,400.042 307.5,398.5 Z"/></g>
</svg>
