<?xml version="1.0" encoding="UTF-8"?>
<!DOCTYPE svg PUBLIC "-//W3C//DTD SVG 1.1//EN" "http://www.w3.org/Graphics/SVG/1.1/DTD/svg11.dtd">
<svg xmlns="http://www.w3.org/2000/svg" version="1.1" width="400px" height="400px" style="shape-rendering:geometricPrecision; text-rendering:geometricPrecision; image-rendering:optimizeQuality; fill-rule:evenodd; clip-rule:evenodd" xmlns:xlink="http://www.w3.org/1999/xlink">
<g><path style="opacity:1" fill="#81615e" d="M 189.5,74.5 C 190.822,74.33 191.989,74.6634 193,75.5C 193.532,78.2635 194.366,80.9302 195.5,83.5C 195.167,83.8333 194.833,84.1667 194.5,84.5C 191.914,81.0155 188.914,80.6822 185.5,83.5C 184.893,83.3764 184.56,83.0431 184.5,82.5C 185.655,79.5251 187.322,76.8584 189.5,74.5 Z"/></g>
<g><path style="opacity:1" fill="#432e2d" d="M 193.5,89.5 C 193.22,85.7747 191.22,84.608 187.5,86C 183.458,87.8792 181.125,91.0459 180.5,95.5C 179.411,90.4334 180.744,86.1001 184.5,82.5C 184.56,83.0431 184.893,83.3764 185.5,83.5C 188.914,80.6822 191.914,81.0155 194.5,84.5C 194.833,84.1667 195.167,83.8333 195.5,83.5C 194.366,80.9302 193.532,78.2635 193,75.5C 191.989,74.6634 190.822,74.33 189.5,74.5C 190.167,73.5 190.833,72.5 191.5,71.5C 193.017,71.4894 194.184,70.8228 195,69.5C 195.333,72.1667 195.667,74.8333 196,77.5C 196.333,77.1667 196.667,76.8333 197,76.5C 198.54,78.6431 198.706,80.8098 197.5,83C 199.96,85.7494 200.793,88.916 200,92.5C 199.517,91.552 199.351,90.552 199.5,89.5C 197.5,89.5 195.5,89.5 193.5,89.5 Z"/></g>
<g><path style="opacity:1" fill="#140a08" d="M 215.5,77.5 C 214.448,77.6495 213.448,77.4828 212.5,77C 207.757,73.657 202.924,70.4904 198,67.5C 195.122,67.8306 192.956,69.164 191.5,71.5C 190.833,72.5 190.167,73.5 189.5,74.5C 187.322,76.8584 185.655,79.5251 184.5,82.5C 180.744,86.1001 179.411,90.4334 180.5,95.5C 181.125,91.0459 183.458,87.8792 187.5,86C 191.22,84.608 193.22,85.7747 193.5,89.5C 194.423,91.767 195.256,94.1003 196,96.5C 200.759,99.531 200.259,101.864 194.5,103.5C 193.384,106.124 192.384,108.79 191.5,111.5C 192.655,114.011 193.322,116.678 193.5,119.5C 190.507,118.865 187.507,118.699 184.5,119C 176.116,127.384 169.283,136.884 164,147.5C 161.276,155.279 157.776,162.612 153.5,169.5C 155.952,163.42 158.286,157.253 160.5,151C 159.67,148.721 160.503,146.888 163,145.5C 166.277,134.283 169.11,122.95 171.5,111.5C 171.137,110.817 170.804,110.15 170.5,109.5C 174.687,98.4364 179.521,87.4364 185,76.5C 187.667,73.1667 190.333,69.8333 193,66.5C 195.699,66.6638 198.532,66.8305 201.5,67C 206.018,70.7524 210.684,74.2524 215.5,77.5 Z"/></g>
<g><path style="opacity:1" fill="#1e1110" d="M 215.5,77.5 C 217.553,77.4021 219.22,78.0687 220.5,79.5C 216.55,79.5361 212.717,78.8694 209,77.5C 208.5,77.8333 208,78.1667 207.5,78.5C 209.297,80.9553 210.63,83.622 211.5,86.5C 210.596,87.209 210.263,88.209 210.5,89.5C 209.475,90.3739 208.808,91.5405 208.5,93C 208.987,95.8368 208.987,98.8368 208.5,102C 209.266,109.273 211.266,116.106 214.5,122.5C 215.17,120.709 215.837,119.042 216.5,117.5C 217.692,120.539 219.525,123.206 222,125.5C 222.671,126.252 223.504,126.586 224.5,126.5C 224.5,127.167 224.167,127.5 223.5,127.5C 213.489,124.831 203.489,122.164 193.5,119.5C 193.322,116.678 192.655,114.011 191.5,111.5C 192.384,108.79 193.384,106.124 194.5,103.5C 200.259,101.864 200.759,99.531 196,96.5C 195.256,94.1003 194.423,91.767 193.5,89.5C 195.5,89.5 197.5,89.5 199.5,89.5C 199.351,90.552 199.517,91.552 200,92.5C 200.793,88.916 199.96,85.7494 197.5,83C 198.706,80.8098 198.54,78.6431 197,76.5C 196.667,76.8333 196.333,77.1667 196,77.5C 195.667,74.8333 195.333,72.1667 195,69.5C 194.184,70.8228 193.017,71.4894 191.5,71.5C 192.956,69.164 195.122,67.8306 198,67.5C 202.924,70.4904 207.757,73.657 212.5,77C 213.448,77.4828 214.448,77.6495 215.5,77.5 Z"/></g>
<g><path style="opacity:1" fill="#684842" d="M 211.5,86.5 C 220.154,93.1575 228.488,100.157 236.5,107.5C 236.461,108.583 236.127,109.583 235.5,110.5C 238.983,113.104 242.316,115.938 245.5,119C 244.5,119.667 243.5,119.667 242.5,119C 238.049,116.217 233.883,113.05 230,109.5C 229.536,110.094 229.369,110.761 229.5,111.5C 226.875,109.397 225.375,106.73 225,103.5C 226.615,105.905 227.281,105.905 227,103.5C 222.249,99.0913 220.749,99.7579 222.5,105.5C 222.176,107.569 221.342,107.902 220,106.5C 219.536,107.094 219.369,107.761 219.5,108.5C 218.503,108.47 217.836,108.97 217.5,110C 218.94,113.911 220.94,117.411 223.5,120.5C 222.448,120.351 221.448,120.517 220.5,121C 221.965,122.774 223.298,124.608 224.5,126.5C 223.504,126.586 222.671,126.252 222,125.5C 219.525,123.206 217.692,120.539 216.5,117.5C 213.856,108.28 211.856,98.9464 210.5,89.5C 210.263,88.209 210.596,87.209 211.5,86.5 Z"/></g>
<g><path style="opacity:0.004" fill="#010000" d="M 170.5,109.5 C 169.833,108.167 169.833,108.167 170.5,109.5 Z"/></g>
<g><path style="opacity:1" fill="#402825" d="M 210.5,89.5 C 211.856,98.9464 213.856,108.28 216.5,117.5C 215.837,119.042 215.17,120.709 214.5,122.5C 211.266,116.106 209.266,109.273 208.5,102C 208.987,98.8368 208.987,95.8368 208.5,93C 208.808,91.5405 209.475,90.3739 210.5,89.5 Z"/></g>
<g><path style="opacity:1" fill="#4e3128" d="M 219.5,108.5 C 223.37,115.377 228.037,121.711 233.5,127.5C 232.998,128.521 232.332,128.688 231.5,128C 228.964,125.295 226.297,122.795 223.5,120.5C 220.94,117.411 218.94,113.911 217.5,110C 217.836,108.97 218.503,108.47 219.5,108.5 Z"/></g>
<g><path style="opacity:1" fill="#7d5f56" d="M 229.5,111.5 C 231.78,114.607 234.78,116.773 238.5,118C 240.304,120.971 242.637,123.471 245.5,125.5C 241.417,124.699 237.751,122.533 234.5,119C 233.241,118.018 231.908,117.685 230.5,118C 233.545,121.047 236.878,123.713 240.5,126C 239.167,126 237.833,126 236.5,126C 238.891,127.309 238.891,128.309 236.5,129C 238.037,130.11 238.703,131.61 238.5,133.5C 233.36,131.761 228.36,129.761 223.5,127.5C 224.167,127.5 224.5,127.167 224.5,126.5C 223.298,124.608 221.965,122.774 220.5,121C 221.448,120.517 222.448,120.351 223.5,120.5C 226.297,122.795 228.964,125.295 231.5,128C 232.332,128.688 232.998,128.521 233.5,127.5C 228.037,121.711 223.37,115.377 219.5,108.5C 219.369,107.761 219.536,107.094 220,106.5C 221.342,107.902 222.176,107.569 222.5,105.5C 220.749,99.7579 222.249,99.0913 227,103.5C 227.281,105.905 226.615,105.905 225,103.5C 225.375,106.73 226.875,109.397 229.5,111.5 Z"/></g>
<g><path style="opacity:1" fill="#50342e" d="M 236.5,107.5 C 238.532,108.048 239.532,109.381 239.5,111.5C 240.552,111.351 241.552,111.517 242.5,112C 243.631,114.374 245.298,116.208 247.5,117.5C 249.812,118.478 251.478,120.145 252.5,122.5C 252.322,123.695 251.989,124.862 251.5,126C 251.836,128.199 253.169,130.032 255.5,131.5C 253.542,131.247 251.375,131.581 249,132.5C 247.97,132.836 247.47,133.503 247.5,134.5C 246.662,134.842 246.328,135.508 246.5,136.5C 243.828,135.499 241.162,134.499 238.5,133.5C 238.703,131.61 238.037,130.11 236.5,129C 238.891,128.309 238.891,127.309 236.5,126C 237.833,126 239.167,126 240.5,126C 236.878,123.713 233.545,121.047 230.5,118C 231.908,117.685 233.241,118.018 234.5,119C 237.751,122.533 241.417,124.699 245.5,125.5C 242.637,123.471 240.304,120.971 238.5,118C 234.78,116.773 231.78,114.607 229.5,111.5C 229.369,110.761 229.536,110.094 230,109.5C 233.883,113.05 238.049,116.217 242.5,119C 243.5,119.667 244.5,119.667 245.5,119C 242.316,115.938 238.983,113.104 235.5,110.5C 236.127,109.583 236.461,108.583 236.5,107.5 Z"/></g>
<g><path style="opacity:1" fill="#f0d7bc" d="M 193.5,119.5 C 203.489,122.164 213.489,124.831 223.5,127.5C 228.36,129.761 233.36,131.761 238.5,133.5C 241.162,134.499 243.828,135.499 246.5,136.5C 251.916,138.305 257.249,140.305 262.5,142.5C 263.995,142.989 265.329,143.655 266.5,144.5C 266.721,146.664 267.721,148.33 269.5,149.5C 268.009,149.901 266.342,150.068 264.5,150C 262.054,152.471 260.054,155.305 258.5,158.5C 257.675,159.386 256.675,159.719 255.5,159.5C 255.004,164.502 254.671,169.502 254.5,174.5C 250.288,174.276 245.954,174.276 241.5,174.5C 235.206,173.01 228.873,171.677 222.5,170.5C 220.139,170.674 217.806,171.007 215.5,171.5C 215.354,175.619 213.354,178.619 209.5,180.5C 208.808,179.975 208.308,179.308 208,178.5C 207.503,181.146 207.336,183.813 207.5,186.5C 203.828,186.183 202.162,187.849 202.5,191.5C 198.833,191.5 195.167,191.5 191.5,191.5C 190.267,195.132 187.601,196.798 183.5,196.5C 183.5,197.5 183.5,198.5 183.5,199.5C 178.049,199.534 175.382,202.2 175.5,207.5C 174.5,207.5 173.5,207.5 172.5,207.5C 165.833,207.5 159.167,207.5 152.5,207.5C 152.373,204.184 151.373,201.184 149.5,198.5C 152.353,194.279 152.686,189.945 150.5,185.5C 149.248,187.001 148.248,188.668 147.5,190.5C 146.311,191.429 144.978,191.762 143.5,191.5C 143.328,190.508 143.662,189.842 144.5,189.5C 149.014,184.8 151.681,179.134 152.5,172.5C 152.263,171.209 152.596,170.209 153.5,169.5C 157.776,162.612 161.276,155.279 164,147.5C 169.283,136.884 176.116,127.384 184.5,119C 187.507,118.699 190.507,118.865 193.5,119.5 Z"/></g>
<g><path style="opacity:1" fill="#371818" d="M 220.5,79.5 C 248.606,86.8973 275.272,97.564 300.5,111.5C 302.144,113.96 304.477,115.46 307.5,116C 308.337,117.011 308.67,118.178 308.5,119.5C 312.522,120.01 315.189,122.176 316.5,126C 319.881,126.182 320.881,127.682 319.5,130.5C 314.52,127.17 309.187,125.503 303.5,125.5C 308.977,127.403 313.977,130.07 318.5,133.5C 319.487,136.768 319.82,140.102 319.5,143.5C 314.243,142.91 308.91,142.91 303.5,143.5C 300.833,143.5 298.167,143.5 295.5,143.5C 295.5,142.5 295.5,141.5 295.5,140.5C 292.67,140.306 290.004,139.639 287.5,138.5C 287.5,137.5 287.5,136.5 287.5,135.5C 281.871,133.723 276.538,131.223 271.5,128C 268.854,127.503 266.187,127.336 263.5,127.5C 263.785,123.283 261.785,121.117 257.5,121C 254.605,118.744 251.605,116.577 248.5,114.5C 247.614,115.325 247.281,116.325 247.5,117.5C 245.298,116.208 243.631,114.374 242.5,112C 241.552,111.517 240.552,111.351 239.5,111.5C 239.532,109.381 238.532,108.048 236.5,107.5C 228.488,100.157 220.154,93.1575 211.5,86.5C 210.63,83.622 209.297,80.9553 207.5,78.5C 208,78.1667 208.5,77.8333 209,77.5C 212.717,78.8694 216.55,79.5361 220.5,79.5 Z"/></g>
<g><path style="opacity:1" fill="#35221f" d="M 252.5,122.5 C 254.086,123.148 255.753,123.648 257.5,124C 258.337,125.011 258.67,126.178 258.5,127.5C 260.308,127.491 261.975,127.991 263.5,129C 259.815,129.741 259.149,131.241 261.5,133.5C 263.078,134.298 264.744,134.798 266.5,135C 261.536,135.728 256.702,136.228 252,136.5C 250.272,136.101 248.772,135.434 247.5,134.5C 247.47,133.503 247.97,132.836 249,132.5C 251.375,131.581 253.542,131.247 255.5,131.5C 253.169,130.032 251.836,128.199 251.5,126C 251.989,124.862 252.322,123.695 252.5,122.5 Z"/></g>
<g><path style="opacity:1" fill="#21100f" d="M 295.5,143.5 C 293.712,144.622 291.712,144.789 289.5,144C 287.138,141.644 284.305,140.144 281,139.5C 280,140.167 279,140.833 278,141.5C 272.538,138.691 267.371,139.024 262.5,142.5C 257.249,140.305 251.916,138.305 246.5,136.5C 246.328,135.508 246.662,134.842 247.5,134.5C 248.772,135.434 250.272,136.101 252,136.5C 256.702,136.228 261.536,135.728 266.5,135C 264.744,134.798 263.078,134.298 261.5,133.5C 259.149,131.241 259.815,129.741 263.5,129C 261.975,127.991 260.308,127.491 258.5,127.5C 258.67,126.178 258.337,125.011 257.5,124C 255.753,123.648 254.086,123.148 252.5,122.5C 251.478,120.145 249.812,118.478 247.5,117.5C 247.281,116.325 247.614,115.325 248.5,114.5C 251.605,116.577 254.605,118.744 257.5,121C 261.785,121.117 263.785,123.283 263.5,127.5C 266.187,127.336 268.854,127.503 271.5,128C 276.538,131.223 281.871,133.723 287.5,135.5C 287.5,136.5 287.5,137.5 287.5,138.5C 290.004,139.639 292.67,140.306 295.5,140.5C 295.5,141.5 295.5,142.5 295.5,143.5 Z"/></g>
<g><path style="opacity:1" fill="#251011" d="M 300.5,111.5 C 307.258,114.082 313.092,118.082 318,123.5C 318.414,123.043 318.914,122.709 319.5,122.5C 318.945,124.393 319.612,126.06 321.5,127.5C 323.8,132.685 325.8,138.019 327.5,143.5C 326.167,143.5 324.833,143.5 323.5,143.5C 323.5,146.167 323.5,148.833 323.5,151.5C 322.022,151.762 320.689,151.429 319.5,150.5C 318.655,148.238 317.322,147.571 315.5,148.5C 315.977,149.478 316.643,150.311 317.5,151C 316.5,151.167 315.5,151.333 314.5,151.5C 310.889,150.296 307.222,149.296 303.5,148.5C 303.5,146.833 303.5,145.167 303.5,143.5C 308.91,142.91 314.243,142.91 319.5,143.5C 319.82,140.102 319.487,136.768 318.5,133.5C 313.977,130.07 308.977,127.403 303.5,125.5C 309.187,125.503 314.52,127.17 319.5,130.5C 320.881,127.682 319.881,126.182 316.5,126C 315.189,122.176 312.522,120.01 308.5,119.5C 308.67,118.178 308.337,117.011 307.5,116C 304.477,115.46 302.144,113.96 300.5,111.5 Z"/></g>
<g><path style="opacity:1" fill="#342e27" d="M 175.5,139.5 C 177.655,139.372 179.655,139.872 181.5,141C 185.277,145.379 189.61,149.046 194.5,152C 195.872,154.533 196.872,157.2 197.5,160C 197,160.5 196.5,161 196,161.5C 192.304,160.045 188.804,158.212 185.5,156C 182.543,151.92 179.71,147.753 177,143.5C 175.933,142.809 174.766,142.309 173.5,142C 174.381,141.292 175.047,140.458 175.5,139.5 Z"/></g>
<g><path style="opacity:1" fill="#140607" d="M 321.5,127.5 C 325.097,130.612 327.764,134.445 329.5,139C 331.751,147.055 333.084,155.221 333.5,163.5C 332.833,163.833 332.167,164.167 331.5,164.5C 331.839,159.07 331.339,153.736 330,148.5C 329.501,152.152 329.335,155.818 329.5,159.5C 327.076,159.192 324.743,159.526 322.5,160.5C 321.069,165.418 321.735,170.085 324.5,174.5C 323.675,175.386 322.675,175.719 321.5,175.5C 320.127,180.312 319.293,185.312 319,190.5C 317.842,190.998 317.009,191.831 316.5,193C 317.933,196.467 319.266,199.967 320.5,203.5C 321.409,201.625 322.743,200.292 324.5,199.5C 321.362,210.956 319.196,222.622 318,234.5C 315.033,245.433 310.2,255.433 303.5,264.5C 301.113,266.913 298.946,269.58 297,272.5C 296.617,271.944 296.117,271.611 295.5,271.5C 300.553,265.943 305.053,259.943 309,253.5C 313.391,245.67 315.725,237.336 316,228.5C 314.127,226.291 311.96,224.458 309.5,223C 307.934,222.235 306.601,222.402 305.5,223.5C 305.167,223.5 304.833,223.5 304.5,223.5C 303.473,222.152 302.14,221.652 300.5,222C 297.639,224.894 295.139,228.061 293,231.5C 289.333,235.833 286.5,235.5 284.5,230.5C 284.772,228.022 285.438,225.689 286.5,223.5C 289.099,217.035 291.099,210.369 292.5,203.5C 291.698,199.764 290.698,196.098 289.5,192.5C 291.335,191.878 292.502,190.544 293,188.5C 296.762,178.833 297.262,169.167 294.5,159.5C 293.5,157.833 292.167,156.5 290.5,155.5C 283.013,150.757 275.013,147.09 266.5,144.5C 265.329,143.655 263.995,142.989 262.5,142.5C 267.371,139.024 272.538,138.691 278,141.5C 279,140.833 280,140.167 281,139.5C 284.305,140.144 287.138,141.644 289.5,144C 291.712,144.789 293.712,144.622 295.5,143.5C 298.167,143.5 300.833,143.5 303.5,143.5C 303.5,145.167 303.5,146.833 303.5,148.5C 307.222,149.296 310.889,150.296 314.5,151.5C 315.5,151.333 316.5,151.167 317.5,151C 316.643,150.311 315.977,149.478 315.5,148.5C 317.322,147.571 318.655,148.238 319.5,150.5C 320.689,151.429 322.022,151.762 323.5,151.5C 323.5,148.833 323.5,146.167 323.5,143.5C 324.833,143.5 326.167,143.5 327.5,143.5C 325.8,138.019 323.8,132.685 321.5,127.5 Z"/></g>
<g><path style="opacity:0.004" fill="#010103" d="M 333.5,163.5 C 334.833,164.167 334.833,164.167 333.5,163.5 Z"/></g>
<g><path style="opacity:1" fill="#271812" d="M 185.5,172.5 C 183.5,171.5 181.5,170.5 179.5,169.5C 176.281,166.511 172.947,166.177 169.5,168.5C 167.26,169.568 165.426,171.234 164,173.5C 162.842,173.002 162.009,172.169 161.5,171C 165.851,161.996 172.184,160.329 180.5,166C 182.765,167.758 184.432,169.925 185.5,172.5 Z"/></g>
<g><path style="opacity:1" fill="#6c4a43" d="M 179.5,169.5 C 179.5,171.833 179.5,174.167 179.5,176.5C 178.636,177.688 177.636,178.855 176.5,180C 175.251,180.74 174.251,180.573 173.5,179.5C 174.167,178.5 174.833,177.5 175.5,176.5C 178.022,174.998 178.022,173.665 175.5,172.5C 175.278,169.924 173.945,169.09 171.5,170C 168.543,172.025 167.21,174.858 167.5,178.5C 166.503,178.53 165.836,178.03 165.5,177C 166.195,173.781 167.528,170.947 169.5,168.5C 172.947,166.177 176.281,166.511 179.5,169.5 Z"/></g>
<g><path style="opacity:1" fill="#f0e7e1" d="M 175.5,172.5 C 178.022,173.665 178.022,174.998 175.5,176.5C 172.833,175.167 172.833,173.833 175.5,172.5 Z"/></g>
<g><path style="opacity:1" fill="#1e0807" d="M 175.5,172.5 C 172.833,173.833 172.833,175.167 175.5,176.5C 174.833,177.5 174.167,178.5 173.5,179.5C 171.435,179.483 169.435,179.15 167.5,178.5C 167.21,174.858 168.543,172.025 171.5,170C 173.945,169.09 175.278,169.924 175.5,172.5 Z"/></g>
<g><path style="opacity:0.971" fill="#19151c" d="M 331.5,164.5 C 330.922,172.303 329.588,179.969 327.5,187.5C 327.863,188.183 328.196,188.85 328.5,189.5C 327.883,189.611 327.383,189.944 327,190.5C 326.594,193.742 325.761,196.742 324.5,199.5C 322.743,200.292 321.409,201.625 320.5,203.5C 319.266,199.967 317.933,196.467 316.5,193C 317.009,191.831 317.842,190.998 319,190.5C 319.293,185.312 320.127,180.312 321.5,175.5C 322.675,175.719 323.675,175.386 324.5,174.5C 321.735,170.085 321.069,165.418 322.5,160.5C 324.743,159.526 327.076,159.192 329.5,159.5C 329.335,155.818 329.501,152.152 330,148.5C 331.339,153.736 331.839,159.07 331.5,164.5 Z"/></g>
<g><path style="opacity:1" fill="#e6e1d7" d="M 179.5,169.5 C 181.5,170.5 183.5,171.5 185.5,172.5C 186.591,175.272 187.591,178.105 188.5,181C 188.355,181.772 188.022,182.439 187.5,183C 182.149,184.048 179.483,181.881 179.5,176.5C 179.5,174.167 179.5,171.833 179.5,169.5 Z"/></g>
<g><path style="opacity:0.165" fill="#3a2f2a" d="M 152.5,172.5 C 151.681,179.134 149.014,184.8 144.5,189.5C 144.833,188.167 145.167,186.833 145.5,185.5C 148.398,181.473 150.732,177.14 152.5,172.5 Z"/></g>
<g><path style="opacity:1" fill="#e5c5a5" d="M 239.5,236.5 C 238.804,231.838 239.804,227.671 242.5,224C 242.152,221.492 242.819,218.992 244.5,216.5C 245.689,215.571 247.022,215.238 248.5,215.5C 248.798,212.735 249.798,210.235 251.5,208C 249.1,207.814 246.766,207.314 244.5,206.5C 247.576,204.213 250.909,203.88 254.5,205.5C 256.634,204.307 257.967,202.473 258.5,200C 257.167,199.333 255.833,199.333 254.5,200C 253.888,201.303 253.554,202.47 253.5,203.5C 252.583,202.873 251.583,202.539 250.5,202.5C 250.5,202.167 250.5,201.833 250.5,201.5C 251.239,201.631 251.906,201.464 252.5,201C 245.727,194.893 238.393,189.56 230.5,185C 224.3,182.434 219.966,184.267 217.5,190.5C 216.833,190.5 216.5,190.833 216.5,191.5C 213.5,191.5 210.5,191.5 207.5,191.5C 207.5,198.167 207.5,204.833 207.5,211.5C 206.5,211.5 205.5,211.5 204.5,211.5C 203.915,206.485 203.248,201.485 202.5,196.5C 200.418,196.472 198.584,197.139 197,198.5C 196.059,201.815 195.226,205.148 194.5,208.5C 188.097,209.646 181.764,210.146 175.5,210C 173.368,211.62 173.035,213.454 174.5,215.5C 174.5,216.167 174.5,216.833 174.5,217.5C 173.504,217.586 172.671,217.252 172,216.5C 171.505,213.469 171.671,210.469 172.5,207.5C 173.5,207.5 174.5,207.5 175.5,207.5C 175.382,202.2 178.049,199.534 183.5,199.5C 183.5,198.5 183.5,197.5 183.5,196.5C 187.601,196.798 190.267,195.132 191.5,191.5C 195.167,191.5 198.833,191.5 202.5,191.5C 202.162,187.849 203.828,186.183 207.5,186.5C 207.336,183.813 207.503,181.146 208,178.5C 208.308,179.308 208.808,179.975 209.5,180.5C 213.354,178.619 215.354,175.619 215.5,171.5C 217.806,171.007 220.139,170.674 222.5,170.5C 221.542,171.962 220.376,173.295 219,174.5C 218.251,175.635 218.417,176.635 219.5,177.5C 229.563,182.849 240.23,184.682 251.5,183C 254.324,182.772 256.657,181.605 258.5,179.5C 257.5,178.667 256.5,177.833 255.5,177C 250.685,176.197 246.019,175.363 241.5,174.5C 245.954,174.276 250.288,174.276 254.5,174.5C 254.671,169.502 255.004,164.502 255.5,159.5C 256.675,159.719 257.675,159.386 258.5,158.5C 260.054,155.305 262.054,152.471 264.5,150C 266.342,150.068 268.009,149.901 269.5,149.5C 272.608,148.572 275.608,149.072 278.5,151C 276.432,151.687 274.432,151.52 272.5,150.5C 271.191,153.751 271.858,156.585 274.5,159C 272.383,161.156 270.716,163.656 269.5,166.5C 269.709,167.086 270.043,167.586 270.5,168C 269.159,172.605 266.992,176.772 264,180.5C 263.667,180.167 263.333,179.833 263,179.5C 260.597,180.781 258.763,182.614 257.5,185C 252.845,185.499 248.179,185.666 243.5,185.5C 243.5,186.5 243.5,187.5 243.5,188.5C 248.833,189.5 254.167,190.5 259.5,191.5C 259.608,196.87 259.275,202.203 258.5,207.5C 257.5,207.5 256.5,207.5 255.5,207.5C 255.82,210.898 255.487,214.232 254.5,217.5C 249.06,222.159 245.06,227.825 242.5,234.5C 241.643,235.425 240.643,236.092 239.5,236.5 Z"/></g>
<g><path style="opacity:1" fill="#322a25" d="M 222.5,170.5 C 228.873,171.677 235.206,173.01 241.5,174.5C 246.019,175.363 250.685,176.197 255.5,177C 256.5,177.833 257.5,178.667 258.5,179.5C 256.657,181.605 254.324,182.772 251.5,183C 240.23,184.682 229.563,182.849 219.5,177.5C 218.417,176.635 218.251,175.635 219,174.5C 220.376,173.295 221.542,171.962 222.5,170.5 Z"/></g>
<g><path style="opacity:1" fill="#c98766" d="M 292.5,167.5 C 292.1,175.765 290.434,183.765 287.5,191.5C 286.5,191.5 285.5,191.5 284.5,191.5C 281.514,198.474 279.514,205.807 278.5,213.5C 275.406,216.111 274.073,219.445 274.5,223.5C 273.5,223.5 272.5,223.5 271.5,223.5C 271.5,220.833 271.5,218.167 271.5,215.5C 272.5,215.5 273.5,215.5 274.5,215.5C 275.386,201.301 279.386,187.968 286.5,175.5C 287.149,171.322 288.316,167.322 290,163.5C 290.934,164.858 291.768,166.192 292.5,167.5 Z"/></g>
<g><path style="opacity:1" fill="#66443a" d="M 294.5,159.5 C 297.262,169.167 296.762,178.833 293,188.5C 292.502,190.544 291.335,191.878 289.5,192.5C 290.935,186.832 292.435,181.166 294,175.5C 294.499,170.177 294.666,164.844 294.5,159.5 Z"/></g>
<g><path style="opacity:0.004" fill="#000000" d="M 145.5,185.5 C 144.833,184.167 144.833,184.167 145.5,185.5 Z"/></g>
<g><path style="opacity:1" fill="#20130d" d="M 250.5,201.5 C 245.678,197.589 240.678,193.922 235.5,190.5C 233.695,189.091 231.695,188.591 229.5,189C 230.056,189.383 230.389,189.883 230.5,190.5C 228.896,191.287 228.229,192.62 228.5,194.5C 228.833,195.167 229.167,195.833 229.5,196.5C 226.673,195.892 224.007,194.892 221.5,193.5C 221.393,191.097 222.393,189.264 224.5,188C 221.793,187.683 219.46,188.516 217.5,190.5C 219.966,184.267 224.3,182.434 230.5,185C 238.393,189.56 245.727,194.893 252.5,201C 251.906,201.464 251.239,201.631 250.5,201.5 Z"/></g>
<g><path style="opacity:0.004" fill="#000005" d="M 328.5,189.5 C 329.833,190.167 329.833,190.167 328.5,189.5 Z"/></g>
<g><path style="opacity:1" fill="#eed6b9" d="M 235.5,190.5 C 240.678,193.922 245.678,197.589 250.5,201.5C 250.5,201.833 250.5,202.167 250.5,202.5C 247.145,203.618 243.812,203.618 240.5,202.5C 237.924,203.282 235.924,204.782 234.5,207C 232.866,207.494 231.199,207.66 229.5,207.5C 229.366,211.302 230.033,214.968 231.5,218.5C 231.167,219.5 230.833,220.5 230.5,221.5C 227.555,222.834 224.555,224.167 221.5,225.5C 219.675,224.349 217.675,223.682 215.5,223.5C 215.66,225.199 215.494,226.866 215,228.5C 212.637,230.52 210.137,232.187 207.5,233.5C 202.876,233.527 198.21,233.194 193.5,232.5C 187.347,231.672 181.013,231.172 174.5,231C 172.623,228.894 170.29,227.561 167.5,227C 164.526,224.014 164.193,220.514 166.5,216.5C 167.308,216.808 167.975,217.308 168.5,218C 167.594,219.699 167.261,221.533 167.5,223.5C 176.867,224.504 186.2,225.838 195.5,227.5C 206.318,228.649 210.818,223.983 209,213.5C 208.617,212.944 208.117,212.611 207.5,212.5C 207.5,212.167 207.5,211.833 207.5,211.5C 207.5,204.833 207.5,198.167 207.5,191.5C 210.5,191.5 213.5,191.5 216.5,191.5C 218.05,192.441 219.716,193.107 221.5,193.5C 224.007,194.892 226.673,195.892 229.5,196.5C 234.478,197.996 236.478,195.996 235.5,190.5 Z"/></g>
<g><path style="opacity:1" fill="#715244" d="M 221.5,193.5 C 219.716,193.107 218.05,192.441 216.5,191.5C 216.5,190.833 216.833,190.5 217.5,190.5C 219.46,188.516 221.793,187.683 224.5,188C 222.393,189.264 221.393,191.097 221.5,193.5 Z"/></g>
<g><path style="opacity:1" fill="#f3e9df" d="M 230.5,190.5 C 232.176,191.183 232.843,192.517 232.5,194.5C 231.167,194.5 229.833,194.5 228.5,194.5C 228.229,192.62 228.896,191.287 230.5,190.5 Z"/></g>
<g><path style="opacity:1" fill="#715145" d="M 235.5,190.5 C 236.478,195.996 234.478,197.996 229.5,196.5C 229.167,195.833 228.833,195.167 228.5,194.5C 229.833,194.5 231.167,194.5 232.5,194.5C 232.843,192.517 232.176,191.183 230.5,190.5C 230.389,189.883 230.056,189.383 229.5,189C 231.695,188.591 233.695,189.091 235.5,190.5 Z"/></g>
<g><path style="opacity:1" fill="#dba680" d="M 207.5,211.5 C 207.5,211.833 207.5,212.167 207.5,212.5C 207.817,215.572 207.484,218.572 206.5,221.5C 199.918,224.465 193.251,225.132 186.5,223.5C 192.764,223.982 198.764,223.149 204.5,221C 205.791,219.708 205.791,218.542 204.5,217.5C 205.219,215.305 204.219,213.805 201.5,213C 195.212,212.125 189.046,212.625 183,214.5C 181.467,214.227 179.967,213.894 178.5,213.5C 177.432,212.566 176.099,212.232 174.5,212.5C 174.5,213.5 174.5,214.5 174.5,215.5C 173.035,213.454 173.368,211.62 175.5,210C 181.764,210.146 188.097,209.646 194.5,208.5C 195.226,205.148 196.059,201.815 197,198.5C 198.584,197.139 200.418,196.472 202.5,196.5C 203.248,201.485 203.915,206.485 204.5,211.5C 205.5,211.5 206.5,211.5 207.5,211.5 Z"/></g>
<g><path style="opacity:1" fill="#d1936f" d="M 289.5,158.5 C 289.842,159.338 290.508,159.672 291.5,159.5C 292.497,159.47 293.164,159.97 293.5,161C 292.713,163.099 292.38,165.266 292.5,167.5C 291.768,166.192 290.934,164.858 290,163.5C 288.316,167.322 287.149,171.322 286.5,175.5C 279.386,187.968 275.386,201.301 274.5,215.5C 273.5,215.5 272.5,215.5 271.5,215.5C 271.5,218.167 271.5,220.833 271.5,223.5C 271.5,224.5 271.5,225.5 271.5,226.5C 269.299,226.858 267.965,228.192 267.5,230.5C 266.311,231.429 264.978,231.762 263.5,231.5C 263.657,232.873 263.49,234.207 263,235.5C 258.619,241.479 256.119,248.146 255.5,255.5C 250.642,255.827 247.975,258.494 247.5,263.5C 244.327,265.125 240.994,266.625 237.5,268C 236.663,269.011 236.33,270.178 236.5,271.5C 231.506,270.813 228.506,272.813 227.5,277.5C 223.576,279.465 219.576,280.132 215.5,279.5C 215.371,281.216 215.038,282.883 214.5,284.5C 214.5,285.5 214.5,286.5 214.5,287.5C 213.469,289.961 212.802,292.627 212.5,295.5C 211.833,296.167 211.167,296.833 210.5,297.5C 209.583,297.494 209.083,298.494 209,300.5C 208.667,300.167 208.333,299.833 208,299.5C 207.5,308.827 207.334,318.161 207.5,327.5C 206.5,327.5 205.5,327.5 204.5,327.5C 203.258,325.75 201.758,324.083 200,322.5C 199.814,320.1 199.314,317.766 198.5,315.5C 195.938,314.038 193.605,313.038 191.5,312.5C 190.593,309.579 190.26,306.579 190.5,303.5C 198.091,304.032 204.091,301.365 208.5,295.5C 211.541,287.63 214.208,279.63 216.5,271.5C 218.569,268.685 221.069,266.352 224,264.5C 224.483,265.448 224.649,266.448 224.5,267.5C 223.225,269.608 222.725,271.942 223,274.5C 225.958,273.039 228.458,271.039 230.5,268.5C 233.854,267.901 236.854,266.568 239.5,264.5C 243.839,259.438 246.672,253.771 248,247.5C 249.993,245.182 251.159,242.516 251.5,239.5C 252.833,239.5 254.167,239.5 255.5,239.5C 255.343,238.127 255.51,236.793 256,235.5C 258.987,231.174 262.32,227.174 266,223.5C 265.337,215.781 267.004,208.447 271,201.5C 272.185,190.947 275.185,180.947 280,171.5C 282.647,167.686 285.813,164.353 289.5,161.5C 288.347,160.313 288.347,159.313 289.5,158.5 Z"/></g>
<g><path style="opacity:1" fill="#e9cdac" d="M 172.5,207.5 C 171.671,210.469 171.505,213.469 172,216.5C 172.671,217.252 173.504,217.586 174.5,217.5C 178.481,219.62 182.481,221.62 186.5,223.5C 193.251,225.132 199.918,224.465 206.5,221.5C 207.484,218.572 207.817,215.572 207.5,212.5C 208.117,212.611 208.617,212.944 209,213.5C 210.818,223.983 206.318,228.649 195.5,227.5C 186.2,225.838 176.867,224.504 167.5,223.5C 167.261,221.533 167.594,219.699 168.5,218C 167.975,217.308 167.308,216.808 166.5,216.5C 164.193,220.514 164.526,224.014 167.5,227C 170.29,227.561 172.623,228.894 174.5,231C 181.013,231.172 187.347,231.672 193.5,232.5C 188.502,232.998 183.502,233.331 178.5,233.5C 175.725,234.246 173.392,235.579 171.5,237.5C 170.069,236.554 168.736,235.388 167.5,234C 163.514,233.501 159.514,233.334 155.5,233.5C 155.949,237.048 156.949,240.381 158.5,243.5C 159.675,243.281 160.675,243.614 161.5,244.5C 162.083,246.002 162.916,247.335 164,248.5C 164.893,247.289 165.726,247.289 166.5,248.5C 166.069,249.293 165.735,250.127 165.5,251C 166.315,252.643 167.315,254.143 168.5,255.5C 167.167,255.5 165.833,255.5 164.5,255.5C 164.5,253.5 164.5,251.5 164.5,249.5C 162.071,249.415 160.071,248.415 158.5,246.5C 155.442,241.95 153.442,236.95 152.5,231.5C 150.929,230.691 149.262,230.357 147.5,230.5C 148.66,235.816 151.16,240.483 155,244.5C 156.009,246.025 156.509,247.692 156.5,249.5C 157.675,249.281 158.675,249.614 159.5,250.5C 160.5,252.5 161.5,254.5 162.5,256.5C 159.771,258.367 160.104,259.367 163.5,259.5C 163.343,260.873 163.51,262.207 164,263.5C 165.904,262.353 167.404,262.853 168.5,265C 168.355,265.772 168.022,266.439 167.5,267C 169.606,269.977 170.939,273.31 171.5,277C 170.591,280.556 169.591,284.056 168.5,287.5C 165.5,287.5 162.5,287.5 159.5,287.5C 159.627,290.245 158.46,292.245 156,293.5C 155.333,292.167 154.667,292.167 154,293.5C 153.026,291.122 152.359,291.456 152,294.5C 151.333,292.5 150.667,290.5 150,288.5C 149.26,294.218 149.427,299.885 150.5,305.5C 150.167,305.5 149.833,305.5 149.5,305.5C 149.5,304.833 149.167,304.5 148.5,304.5C 148.59,301.848 147.924,299.515 146.5,297.5C 146.217,290.652 146.217,283.652 146.5,276.5C 146.702,274.05 146.369,271.717 145.5,269.5C 146.897,268.181 147.563,266.514 147.5,264.5C 146.474,261.96 146.474,259.46 147.5,257C 147.056,255.238 146.556,255.405 146,257.5C 145.751,256.376 145.251,255.376 144.5,254.5C 144.095,256.119 143.595,258.119 143,260.5C 141.268,257.062 139.601,254.062 138,251.5C 135.771,239.953 134.937,228.286 135.5,216.5C 135.36,214.876 136.027,213.71 137.5,213C 136.663,211.989 136.33,210.822 136.5,209.5C 137.324,202.832 139.658,196.832 143.5,191.5C 144.978,191.762 146.311,191.429 147.5,190.5C 148.248,188.668 149.248,187.001 150.5,185.5C 152.686,189.945 152.353,194.279 149.5,198.5C 151.373,201.184 152.373,204.184 152.5,207.5C 159.167,207.5 165.833,207.5 172.5,207.5 Z"/></g>
<g><path style="opacity:1" fill="#ce8664" d="M 204.5,217.5 C 203.855,218.812 202.855,219.812 201.5,220.5C 200.333,218.921 199,217.588 197.5,216.5C 197.5,215.833 197.167,215.5 196.5,215.5C 196.038,214.12 195.038,213.453 193.5,213.5C 190.104,213.94 186.937,214.94 184,216.5C 181.704,216.141 179.871,215.141 178.5,213.5C 179.967,213.894 181.467,214.227 183,214.5C 189.046,212.625 195.212,212.125 201.5,213C 204.219,213.805 205.219,215.305 204.5,217.5 Z"/></g>
<g><path style="opacity:0.149" fill="#5c4f42" d="M 136.5,209.5 C 136.33,210.822 136.663,211.989 137.5,213C 136.027,213.71 135.36,214.876 135.5,216.5C 135.167,216.5 134.833,216.5 134.5,216.5C 134.41,213.848 135.076,211.515 136.5,209.5 Z"/></g>
<g><path style="opacity:1" fill="#a96849" d="M 178.5,213.5 C 179.871,215.141 181.704,216.141 184,216.5C 186.937,214.94 190.104,213.94 193.5,213.5C 195.038,213.453 196.038,214.12 196.5,215.5C 190.811,214.059 187.478,216.059 186.5,221.5C 190.5,221.5 194.5,221.5 198.5,221.5C 198.371,219.784 198.038,218.117 197.5,216.5C 199,217.588 200.333,218.921 201.5,220.5C 202.855,219.812 203.855,218.812 204.5,217.5C 205.791,218.542 205.791,219.708 204.5,221C 198.764,223.149 192.764,223.982 186.5,223.5C 182.481,221.62 178.481,219.62 174.5,217.5C 174.5,216.833 174.5,216.167 174.5,215.5C 174.5,214.5 174.5,213.5 174.5,212.5C 176.099,212.232 177.432,212.566 178.5,213.5 Z"/></g>
<g><path style="opacity:1" fill="#823220" d="M 196.5,215.5 C 197.167,215.5 197.5,215.833 197.5,216.5C 198.038,218.117 198.371,219.784 198.5,221.5C 194.5,221.5 190.5,221.5 186.5,221.5C 187.478,216.059 190.811,214.059 196.5,215.5 Z"/></g>
<g><path style="opacity:1" fill="#b3745d" d="M 290.5,155.5 C 292.167,156.5 293.5,157.833 294.5,159.5C 294.666,164.844 294.499,170.177 294,175.5C 292.435,181.166 290.935,186.832 289.5,192.5C 290.698,196.098 291.698,199.764 292.5,203.5C 291.099,210.369 289.099,217.035 286.5,223.5C 285.5,223.5 284.5,223.5 283.5,223.5C 283.251,226.002 282.917,228.502 282.5,231C 284.508,233.528 284.508,235.861 282.5,238C 283.167,238.333 283.833,238.667 284.5,239C 281.774,239.182 279.107,239.682 276.5,240.5C 277.5,241.167 278.5,241.833 279.5,242.5C 277.142,244.287 274.475,245.287 271.5,245.5C 271.5,248.833 271.5,252.167 271.5,255.5C 270.325,255.281 269.325,255.614 268.5,256.5C 267.833,258.5 267.167,260.5 266.5,262.5C 265.675,263.386 264.675,263.719 263.5,263.5C 263.618,268.8 260.951,271.466 255.5,271.5C 255.5,269.5 255.5,267.5 255.5,265.5C 255.338,263.473 255.505,261.473 256,259.5C 259.831,255.76 262.498,251.427 264,246.5C 266.853,244.839 269.353,242.839 271.5,240.5C 272.8,237.434 273.8,234.267 274.5,231C 274.443,228.791 273.443,227.291 271.5,226.5C 271.5,225.5 271.5,224.5 271.5,223.5C 272.5,223.5 273.5,223.5 274.5,223.5C 274.073,219.445 275.406,216.111 278.5,213.5C 279.514,205.807 281.514,198.474 284.5,191.5C 285.5,191.5 286.5,191.5 287.5,191.5C 290.434,183.765 292.1,175.765 292.5,167.5C 292.38,165.266 292.713,163.099 293.5,161C 293.164,159.97 292.497,159.47 291.5,159.5C 291.167,158.167 290.833,156.833 290.5,155.5 Z"/></g>
<g><path style="opacity:1" fill="#eacfae" d="M 239.5,236.5 C 239.5,237.5 239.5,238.5 239.5,239.5C 236.753,239.187 234.086,239.52 231.5,240.5C 232.245,246.374 230.912,251.874 227.5,257C 223.356,256.978 219.356,257.145 215.5,257.5C 215.5,251.5 215.5,245.5 215.5,239.5C 220.244,239.962 221.244,238.462 218.5,235C 214.94,233.763 211.273,233.263 207.5,233.5C 210.137,232.187 212.637,230.52 215,228.5C 215.494,226.866 215.66,225.199 215.5,223.5C 217.675,223.682 219.675,224.349 221.5,225.5C 224.555,224.167 227.555,222.834 230.5,221.5C 230.833,220.5 231.167,219.5 231.5,218.5C 230.033,214.968 229.366,211.302 229.5,207.5C 231.199,207.66 232.866,207.494 234.5,207C 235.924,204.782 237.924,203.282 240.5,202.5C 243.812,203.618 247.145,203.618 250.5,202.5C 251.583,202.539 252.583,202.873 253.5,203.5C 253.554,202.47 253.888,201.303 254.5,200C 255.833,199.333 257.167,199.333 258.5,200C 257.967,202.473 256.634,204.307 254.5,205.5C 250.909,203.88 247.576,204.213 244.5,206.5C 246.766,207.314 249.1,207.814 251.5,208C 249.798,210.235 248.798,212.735 248.5,215.5C 247.022,215.238 245.689,215.571 244.5,216.5C 242.819,218.992 242.152,221.492 242.5,224C 239.804,227.671 238.804,231.838 239.5,236.5 Z"/></g>
<g><path style="opacity:1" fill="#d29575" d="M 304.5,223.5 C 304.833,223.5 305.167,223.5 305.5,223.5C 306.732,224.772 308.732,225.772 311.5,226.5C 308.64,227.244 305.64,227.911 302.5,228.5C 301.337,227.944 300.337,227.611 299.5,227.5C 300.444,225.312 302.111,223.979 304.5,223.5 Z"/></g>
<g><path style="opacity:1" fill="#dbaf8c" d="M 193.5,232.5 C 198.21,233.194 202.876,233.527 207.5,233.5C 211.273,233.263 214.94,233.763 218.5,235C 221.244,238.462 220.244,239.962 215.5,239.5C 214.167,239.5 212.833,239.5 211.5,239.5C 212.244,242.95 210.91,244.616 207.5,244.5C 207.5,245.5 207.5,246.5 207.5,247.5C 206.167,247.5 204.833,247.5 203.5,247.5C 203.292,245.08 203.626,242.747 204.5,240.5C 203.332,238.783 201.665,238.116 199.5,238.5C 190.159,238.333 180.826,238 171.5,237.5C 173.392,235.579 175.725,234.246 178.5,233.5C 183.502,233.331 188.502,232.998 193.5,232.5 Z"/></g>
<g><path style="opacity:1" fill="#9f6f61" d="M 304.5,223.5 C 302.111,223.979 300.444,225.312 299.5,227.5C 298.566,228.568 298.232,229.901 298.5,231.5C 300.167,231.5 301.833,231.5 303.5,231.5C 303.5,233.167 303.5,234.833 303.5,236.5C 299.603,237.541 295.77,238.875 292,240.5C 290.477,246.863 288.81,253.196 287,259.5C 286.51,258.207 286.343,256.873 286.5,255.5C 284.167,255.5 281.833,255.5 279.5,255.5C 279.22,259.827 279.053,264.161 279,268.5C 280.57,269.358 282.237,270.025 284,270.5C 286.112,269.614 288.278,269.614 290.5,270.5C 288.924,271.143 287.59,272.143 286.5,273.5C 282.569,272.868 279.235,271.201 276.5,268.5C 276.5,267.5 276.5,266.5 276.5,265.5C 274.712,265.215 273.045,265.548 271.5,266.5C 268.94,269.885 266.607,273.385 264.5,277C 259.664,280.417 254.331,282.75 248.5,284C 247.663,285.011 247.33,286.178 247.5,287.5C 244.833,287.5 242.167,287.5 239.5,287.5C 241.579,285.127 244.246,283.794 247.5,283.5C 247.5,282.5 247.5,281.5 247.5,280.5C 250.167,280.167 252.833,279.833 255.5,279.5C 255.5,276.833 255.5,274.167 255.5,271.5C 260.951,271.466 263.618,268.8 263.5,263.5C 264.675,263.719 265.675,263.386 266.5,262.5C 267.167,260.5 267.833,258.5 268.5,256.5C 269.325,255.614 270.325,255.281 271.5,255.5C 271.5,252.167 271.5,248.833 271.5,245.5C 274.475,245.287 277.142,244.287 279.5,242.5C 278.5,241.833 277.5,241.167 276.5,240.5C 279.107,239.682 281.774,239.182 284.5,239C 283.833,238.667 283.167,238.333 282.5,238C 284.508,235.861 284.508,233.528 282.5,231C 282.917,228.502 283.251,226.002 283.5,223.5C 284.5,223.5 285.5,223.5 286.5,223.5C 285.438,225.689 284.772,228.022 284.5,230.5C 286.5,235.5 289.333,235.833 293,231.5C 295.139,228.061 297.639,224.894 300.5,222C 302.14,221.652 303.473,222.152 304.5,223.5 Z"/></g>
<g><path style="opacity:1" fill="#f0d5b8" d="M 171.5,237.5 C 180.826,238 190.159,238.333 199.5,238.5C 197.244,239.483 195.577,241.15 194.5,243.5C 190.878,244.325 187.211,244.825 183.5,245C 182.328,245.419 181.328,246.085 180.5,247C 186.427,248.49 192.427,249.657 198.5,250.5C 200.488,253.854 200.488,257.354 198.5,261C 199.218,262.987 200.218,264.821 201.5,266.5C 200.606,266.517 199.606,266.851 198.5,267.5C 194.752,264.262 191.085,260.762 187.5,257C 181.982,254.422 176.315,253.922 170.5,255.5C 169.833,255.5 169.167,255.5 168.5,255.5C 167.315,254.143 166.315,252.643 165.5,251C 165.735,250.127 166.069,249.293 166.5,248.5C 165.726,247.289 164.893,247.289 164,248.5C 162.916,247.335 162.083,246.002 161.5,244.5C 160.675,243.614 159.675,243.281 158.5,243.5C 156.949,240.381 155.949,237.048 155.5,233.5C 159.514,233.334 163.514,233.501 167.5,234C 168.736,235.388 170.069,236.554 171.5,237.5 Z"/></g>
<g><path style="opacity:0.976" fill="#a99381" d="M 134.5,216.5 C 134.833,216.5 135.167,216.5 135.5,216.5C 134.937,228.286 135.771,239.953 138,251.5C 139.601,254.062 141.268,257.062 143,260.5C 143.595,258.119 144.095,256.119 144.5,254.5C 145.251,255.376 145.751,256.376 146,257.5C 146.556,255.405 147.056,255.238 147.5,257C 146.474,259.46 146.474,261.96 147.5,264.5C 147.563,266.514 146.897,268.181 145.5,269.5C 145.167,269.5 144.833,269.5 144.5,269.5C 141.045,264.254 138.378,258.587 136.5,252.5C 136.279,249.933 135.612,247.599 134.5,245.5C 133.183,235.932 133.183,226.265 134.5,216.5 Z"/></g>
<g><path style="opacity:0.055" fill="#150904" d="M 134.5,245.5 C 135.612,247.599 136.279,249.933 136.5,252.5C 134.837,250.562 134.171,248.228 134.5,245.5 Z"/></g>
<g><path style="opacity:1" fill="#e4a87f" d="M 308.5,247.5 C 306.438,249.901 304.771,252.567 303.5,255.5C 300.12,257.879 297.454,260.879 295.5,264.5C 293.5,264.5 291.5,264.5 289.5,264.5C 289.379,260.893 291.045,258.727 294.5,258C 295.577,254.587 297.744,252.087 301,250.5C 301.192,248.423 301.692,246.423 302.5,244.5C 304.738,243.147 306.071,241.147 306.5,238.5C 307.689,237.571 309.022,237.238 310.5,237.5C 310.845,241.115 310.178,244.448 308.5,247.5 Z"/></g>
<g><path style="opacity:1" fill="#a27d73" d="M 305.5,223.5 C 306.601,222.402 307.934,222.235 309.5,223C 311.96,224.458 314.127,226.291 316,228.5C 315.725,237.336 313.391,245.67 309,253.5C 305.053,259.943 300.553,265.943 295.5,271.5C 292.5,272.167 289.5,272.833 286.5,273.5C 287.59,272.143 288.924,271.143 290.5,270.5C 290.414,269.504 290.748,268.671 291.5,268C 293.888,267.697 296.055,266.863 298,265.5C 300.99,262.708 302.823,259.375 303.5,255.5C 304.771,252.567 306.438,249.901 308.5,247.5C 309.376,247.631 310.043,247.298 310.5,246.5C 313.169,241.168 314.003,235.502 313,229.5C 312.768,228.263 312.268,227.263 311.5,226.5C 308.732,225.772 306.732,224.772 305.5,223.5 Z"/></g>
<g><path style="opacity:1" fill="#e6c7a7" d="M 199.5,238.5 C 201.665,238.116 203.332,238.783 204.5,240.5C 203.626,242.747 203.292,245.08 203.5,247.5C 204.833,247.5 206.167,247.5 207.5,247.5C 207.5,246.5 207.5,245.5 207.5,244.5C 210.91,244.616 212.244,242.95 211.5,239.5C 212.833,239.5 214.167,239.5 215.5,239.5C 215.5,245.5 215.5,251.5 215.5,257.5C 219.356,257.145 223.356,256.978 227.5,257C 230.912,251.874 232.245,246.374 231.5,240.5C 234.086,239.52 236.753,239.187 239.5,239.5C 239.539,241.359 238.706,242.692 237,243.5C 236.472,247.943 235.472,252.277 234,256.5C 231.695,260.213 228.529,261.213 224.5,259.5C 223.833,260.833 223.167,262.167 222.5,263.5C 219.906,264.592 217.739,266.259 216,268.5C 212.901,276.163 209.734,283.83 206.5,291.5C 205.155,292.347 204.155,293.513 203.5,295C 200.854,295.497 198.187,295.664 195.5,295.5C 195.833,292.5 194.5,291.167 191.5,291.5C 191.232,289.901 191.566,288.568 192.5,287.5C 194.991,287.171 197.157,286.171 199,284.5C 201.534,276.586 205.7,269.753 211.5,264C 211.37,262.941 210.87,262.108 210,261.5C 208.533,264.266 206.7,266.766 204.5,269C 202.119,269.738 200.119,269.238 198.5,267.5C 199.606,266.851 200.606,266.517 201.5,266.5C 200.218,264.821 199.218,262.987 198.5,261C 200.488,257.354 200.488,253.854 198.5,250.5C 192.427,249.657 186.427,248.49 180.5,247C 181.328,246.085 182.328,245.419 183.5,245C 187.211,244.825 190.878,244.325 194.5,243.5C 195.577,241.15 197.244,239.483 199.5,238.5 Z"/></g>
<g><path style="opacity:1" fill="#ae6e52" d="M 311.5,226.5 C 312.268,227.263 312.768,228.263 313,229.5C 314.003,235.502 313.169,241.168 310.5,246.5C 310.043,247.298 309.376,247.631 308.5,247.5C 310.178,244.448 310.845,241.115 310.5,237.5C 309.022,237.238 307.689,237.571 306.5,238.5C 306.071,241.147 304.738,243.147 302.5,244.5C 301.692,246.423 301.192,248.423 301,250.5C 297.744,252.087 295.577,254.587 294.5,258C 291.045,258.727 289.379,260.893 289.5,264.5C 291.5,264.5 293.5,264.5 295.5,264.5C 297.454,260.879 300.12,257.879 303.5,255.5C 302.823,259.375 300.99,262.708 298,265.5C 296.055,266.863 293.888,267.697 291.5,268C 290.748,268.671 290.414,269.504 290.5,270.5C 288.278,269.614 286.112,269.614 284,270.5C 282.237,270.025 280.57,269.358 279,268.5C 279.053,264.161 279.22,259.827 279.5,255.5C 281.833,255.5 284.167,255.5 286.5,255.5C 286.343,256.873 286.51,258.207 287,259.5C 288.81,253.196 290.477,246.863 292,240.5C 295.77,238.875 299.603,237.541 303.5,236.5C 303.5,234.833 303.5,233.167 303.5,231.5C 301.833,231.5 300.167,231.5 298.5,231.5C 298.232,229.901 298.566,228.568 299.5,227.5C 300.337,227.611 301.337,227.944 302.5,228.5C 305.64,227.911 308.64,227.244 311.5,226.5 Z"/></g>
<g><path style="opacity:1" fill="#dca47d" d="M 289.5,158.5 C 288.347,159.313 288.347,160.313 289.5,161.5C 285.813,164.353 282.647,167.686 280,171.5C 275.185,180.947 272.185,190.947 271,201.5C 267.004,208.447 265.337,215.781 266,223.5C 262.32,227.174 258.987,231.174 256,235.5C 255.51,236.793 255.343,238.127 255.5,239.5C 254.167,239.5 252.833,239.5 251.5,239.5C 251.159,242.516 249.993,245.182 248,247.5C 246.672,253.771 243.839,259.438 239.5,264.5C 236.854,266.568 233.854,267.901 230.5,268.5C 228.458,271.039 225.958,273.039 223,274.5C 222.725,271.942 223.225,269.608 224.5,267.5C 226.086,266.587 227.586,266.587 229,267.5C 229.317,265.699 229.984,265.366 231,266.5C 231.483,265.552 231.649,264.552 231.5,263.5C 233.288,263.785 234.955,263.452 236.5,262.5C 242.053,255.728 245.719,248.061 247.5,239.5C 248.5,239.5 249.5,239.5 250.5,239.5C 253.297,231.796 257.464,224.796 263,218.5C 264.921,208.311 267.088,198.144 269.5,188C 267.943,184.917 268.61,183.417 271.5,183.5C 275.372,175.236 278.372,166.57 280.5,157.5C 282.199,157.38 283.865,157.046 285.5,156.5C 287.171,156.668 288.504,157.335 289.5,158.5 Z"/></g>
<g><path style="opacity:1" fill="#c37859" d="M 271.5,226.5 C 273.443,227.291 274.443,228.791 274.5,231C 273.8,234.267 272.8,237.434 271.5,240.5C 269.353,242.839 266.853,244.839 264,246.5C 262.498,251.427 259.831,255.76 256,259.5C 255.505,261.473 255.338,263.473 255.5,265.5C 254.153,266.171 252.986,266.171 252,265.5C 248.782,267.822 246.282,270.655 244.5,274C 234.905,278.809 224.905,282.309 214.5,284.5C 215.038,282.883 215.371,281.216 215.5,279.5C 219.576,280.132 223.576,279.465 227.5,277.5C 228.506,272.813 231.506,270.813 236.5,271.5C 236.33,270.178 236.663,269.011 237.5,268C 240.994,266.625 244.327,265.125 247.5,263.5C 247.975,258.494 250.642,255.827 255.5,255.5C 256.119,248.146 258.619,241.479 263,235.5C 263.49,234.207 263.657,232.873 263.5,231.5C 264.978,231.762 266.311,231.429 267.5,230.5C 267.965,228.192 269.299,226.858 271.5,226.5 Z"/></g>
<g><path style="opacity:0.004" fill="#000500" d="M 303.5,264.5 C 304.833,265.167 304.833,265.167 303.5,264.5 Z"/></g>
<g><path style="opacity:0.192" fill="#20140d" d="M 144.5,269.5 C 144.833,269.5 145.167,269.5 145.5,269.5C 146.369,271.717 146.702,274.05 146.5,276.5C 145.388,274.401 144.721,272.067 144.5,269.5 Z"/></g>
<g><path style="opacity:0.271" fill="#120a09" d="M 276.5,268.5 C 279.235,271.201 282.569,272.868 286.5,273.5C 289.5,272.833 292.5,272.167 295.5,271.5C 294.942,272.79 293.942,273.623 292.5,274C 290,274.5 287.5,275 285,275.5C 283.221,274.622 281.555,274.622 280,275.5C 278.51,272.919 276.343,272.085 273.5,273C 268.781,276.597 264.614,280.763 261,285.5C 260.667,285.167 260.333,284.833 260,284.5C 250.949,292.946 247.783,303.28 250.5,315.5C 247.001,305.52 248.334,296.187 254.5,287.5C 262.194,281.973 268.694,275.306 274,267.5C 274.671,268.252 275.504,268.586 276.5,268.5 Z"/></g>
<g><path style="opacity:1" fill="#2f2321" d="M 198.5,267.5 C 200.119,269.238 202.119,269.738 204.5,269C 206.7,266.766 208.533,264.266 210,261.5C 210.87,262.108 211.37,262.941 211.5,264C 205.7,269.753 201.534,276.586 199,284.5C 197.157,286.171 194.991,287.171 192.5,287.5C 191.282,286.839 189.949,286.172 188.5,285.5C 184.488,280.16 180.155,275.16 175.5,270.5C 172.941,265.927 169.941,261.594 166.5,257.5C 167.949,256.828 169.282,256.161 170.5,255.5C 176.315,253.922 181.982,254.422 187.5,257C 191.085,260.762 194.752,264.262 198.5,267.5 Z"/></g>
<g><path style="opacity:1" fill="#ad6449" d="M 255.5,265.5 C 255.5,267.5 255.5,269.5 255.5,271.5C 253.5,271.5 251.5,271.5 249.5,271.5C 248.361,274.004 247.694,276.67 247.5,279.5C 239.903,282.687 231.903,284.354 223.5,284.5C 223.5,285.5 223.5,286.5 223.5,287.5C 220.5,287.5 217.5,287.5 214.5,287.5C 214.5,286.5 214.5,285.5 214.5,284.5C 224.905,282.309 234.905,278.809 244.5,274C 246.282,270.655 248.782,267.822 252,265.5C 252.986,266.171 254.153,266.171 255.5,265.5 Z"/></g>
<g><path style="opacity:1" fill="#e5c3a3" d="M 168.5,255.5 C 169.167,255.5 169.833,255.5 170.5,255.5C 169.282,256.161 167.949,256.828 166.5,257.5C 169.941,261.594 172.941,265.927 175.5,270.5C 175.511,272.017 176.177,273.184 177.5,274C 177,274.5 176.5,275 176,275.5C 175.828,279.871 175.328,284.204 174.5,288.5C 170.093,291.758 165.593,294.758 161,297.5C 160.228,297.355 159.561,297.022 159,296.5C 156.542,299.777 154.375,303.111 152.5,306.5C 151.833,306.167 151.167,305.833 150.5,305.5C 149.427,299.885 149.26,294.218 150,288.5C 150.667,290.5 151.333,292.5 152,294.5C 152.359,291.456 153.026,291.122 154,293.5C 154.667,292.167 155.333,292.167 156,293.5C 158.46,292.245 159.627,290.245 159.5,287.5C 162.5,287.5 165.5,287.5 168.5,287.5C 169.591,284.056 170.591,280.556 171.5,277C 170.939,273.31 169.606,269.977 167.5,267C 168.022,266.439 168.355,265.772 168.5,265C 167.404,262.853 165.904,262.353 164,263.5C 163.51,262.207 163.343,260.873 163.5,259.5C 160.104,259.367 159.771,258.367 162.5,256.5C 161.5,254.5 160.5,252.5 159.5,250.5C 158.675,249.614 157.675,249.281 156.5,249.5C 156.509,247.692 156.009,246.025 155,244.5C 151.16,240.483 148.66,235.816 147.5,230.5C 149.262,230.357 150.929,230.691 152.5,231.5C 153.442,236.95 155.442,241.95 158.5,246.5C 160.071,248.415 162.071,249.415 164.5,249.5C 164.5,251.5 164.5,253.5 164.5,255.5C 165.833,255.5 167.167,255.5 168.5,255.5 Z"/></g>
<g><path style="opacity:1" fill="#ad9c9d" d="M 254.5,287.5 C 248.334,296.187 247.001,305.52 250.5,315.5C 251.338,315.842 251.672,316.508 251.5,317.5C 252.373,319.886 253.873,321.886 256,323.5C 256.692,324.437 256.525,325.103 255.5,325.5C 253.621,325.607 253.288,325.107 254.5,324C 252.239,322.187 249.905,320.687 247.5,319.5C 247.111,312.83 246.611,306.164 246,299.5C 244,298.167 242,296.833 240,295.5C 239.51,294.207 239.343,292.873 239.5,291.5C 244.651,290.707 249.318,288.707 253.5,285.5C 254.298,285.957 254.631,286.624 254.5,287.5 Z"/></g>
<g><path style="opacity:1" fill="#925b4d" d="M 255.5,271.5 C 255.5,274.167 255.5,276.833 255.5,279.5C 252.833,279.833 250.167,280.167 247.5,280.5C 247.5,281.5 247.5,282.5 247.5,283.5C 244.246,283.794 241.579,285.127 239.5,287.5C 239.5,288.5 239.5,289.5 239.5,290.5C 230.404,291.704 221.404,293.37 212.5,295.5C 212.802,292.627 213.469,289.961 214.5,287.5C 217.5,287.5 220.5,287.5 223.5,287.5C 223.5,286.5 223.5,285.5 223.5,284.5C 231.903,284.354 239.903,282.687 247.5,279.5C 247.694,276.67 248.361,274.004 249.5,271.5C 251.5,271.5 253.5,271.5 255.5,271.5 Z"/></g>
<g><path style="opacity:1" fill="#9d7e7d" d="M 276.5,268.5 C 275.504,268.586 274.671,268.252 274,267.5C 268.694,275.306 262.194,281.973 254.5,287.5C 254.631,286.624 254.298,285.957 253.5,285.5C 249.318,288.707 244.651,290.707 239.5,291.5C 239.343,292.873 239.51,294.207 240,295.5C 242,296.833 244,298.167 246,299.5C 246.611,306.164 247.111,312.83 247.5,319.5C 246.833,319.5 246.167,319.5 245.5,319.5C 245.5,316.833 245.5,314.167 245.5,311.5C 245.793,307.563 245.46,303.73 244.5,300C 233.505,299.5 222.505,299.333 211.5,299.5C 210.662,299.158 210.328,298.492 210.5,297.5C 211.167,296.833 211.833,296.167 212.5,295.5C 221.404,293.37 230.404,291.704 239.5,290.5C 239.5,289.5 239.5,288.5 239.5,287.5C 242.167,287.5 244.833,287.5 247.5,287.5C 247.33,286.178 247.663,285.011 248.5,284C 254.331,282.75 259.664,280.417 264.5,277C 266.607,273.385 268.94,269.885 271.5,266.5C 273.045,265.548 274.712,265.215 276.5,265.5C 276.5,266.5 276.5,267.5 276.5,268.5 Z"/></g>
<g><path style="opacity:0.031" fill="#271d18" d="M 146.5,297.5 C 147.924,299.515 148.59,301.848 148.5,304.5C 147.076,302.485 146.41,300.152 146.5,297.5 Z"/></g>
<g><path style="opacity:1" fill="#e2b58f" d="M 266.5,144.5 C 275.013,147.09 283.013,150.757 290.5,155.5C 290.833,156.833 291.167,158.167 291.5,159.5C 290.508,159.672 289.842,159.338 289.5,158.5C 288.504,157.335 287.171,156.668 285.5,156.5C 283.865,157.046 282.199,157.38 280.5,157.5C 278.372,166.57 275.372,175.236 271.5,183.5C 268.61,183.417 267.943,184.917 269.5,188C 267.088,198.144 264.921,208.311 263,218.5C 257.464,224.796 253.297,231.796 250.5,239.5C 249.5,239.5 248.5,239.5 247.5,239.5C 245.719,248.061 242.053,255.728 236.5,262.5C 234.955,263.452 233.288,263.785 231.5,263.5C 231.649,264.552 231.483,265.552 231,266.5C 229.984,265.366 229.317,265.699 229,267.5C 227.586,266.587 226.086,266.587 224.5,267.5C 224.649,266.448 224.483,265.448 224,264.5C 221.069,266.352 218.569,268.685 216.5,271.5C 214.208,279.63 211.541,287.63 208.5,295.5C 206.284,295.275 204.617,296.108 203.5,298C 200.446,298.821 197.446,298.655 194.5,297.5C 193.472,295.639 191.972,294.305 190,293.5C 189.187,291.564 188.687,289.564 188.5,287.5C 187.325,287.719 186.325,287.386 185.5,286.5C 184.459,284.415 182.959,282.748 181,281.5C 180.034,286.934 178.701,292.268 177,297.5C 176.667,296.833 176.333,296.167 176,295.5C 174.614,298.291 172.78,300.791 170.5,303C 172.134,303.494 173.801,303.66 175.5,303.5C 175.334,307.514 175.501,311.514 176,315.5C 177.5,316.333 178.667,317.5 179.5,319C 184.167,319.333 188.833,319.667 193.5,320C 196.937,322.902 200.604,325.402 204.5,327.5C 205.5,327.5 206.5,327.5 207.5,327.5C 208.75,329.932 210.25,332.266 212,334.5C 213.011,335.337 214.178,335.67 215.5,335.5C 215.833,335.5 216.167,335.5 216.5,335.5C 217.167,336.5 217.833,337.5 218.5,338.5C 218.5,338.833 218.5,339.167 218.5,339.5C 218.253,341.858 218.919,343.858 220.5,345.5C 215.193,345.107 211.693,342.44 210,337.5C 208.187,338.609 207.354,337.942 207.5,335.5C 200.5,335.5 193.5,335.5 186.5,335.5C 185.167,338.167 183.833,340.833 182.5,343.5C 181.167,343.5 179.833,343.5 178.5,343.5C 177.469,341.039 176.802,338.373 176.5,335.5C 172.683,334.695 170.016,332.362 168.5,328.5C 166.807,327.772 165.307,326.772 164,325.5C 160.301,318.881 156.467,312.548 152.5,306.5C 154.375,303.111 156.542,299.777 159,296.5C 159.561,297.022 160.228,297.355 161,297.5C 165.593,294.758 170.093,291.758 174.5,288.5C 175.328,284.204 175.828,279.871 176,275.5C 176.5,275 177,274.5 177.5,274C 176.177,273.184 175.511,272.017 175.5,270.5C 180.155,275.16 184.488,280.16 188.5,285.5C 189.949,286.172 191.282,286.839 192.5,287.5C 191.566,288.568 191.232,289.901 191.5,291.5C 194.5,291.167 195.833,292.5 195.5,295.5C 198.187,295.664 200.854,295.497 203.5,295C 204.155,293.513 205.155,292.347 206.5,291.5C 209.734,283.83 212.901,276.163 216,268.5C 217.739,266.259 219.906,264.592 222.5,263.5C 223.167,262.167 223.833,260.833 224.5,259.5C 228.529,261.213 231.695,260.213 234,256.5C 235.472,252.277 236.472,247.943 237,243.5C 238.706,242.692 239.539,241.359 239.5,239.5C 239.5,238.5 239.5,237.5 239.5,236.5C 240.643,236.092 241.643,235.425 242.5,234.5C 245.06,227.825 249.06,222.159 254.5,217.5C 255.487,214.232 255.82,210.898 255.5,207.5C 256.5,207.5 257.5,207.5 258.5,207.5C 259.275,202.203 259.608,196.87 259.5,191.5C 254.167,190.5 248.833,189.5 243.5,188.5C 243.5,187.5 243.5,186.5 243.5,185.5C 248.179,185.666 252.845,185.499 257.5,185C 258.763,182.614 260.597,180.781 263,179.5C 263.333,179.833 263.667,180.167 264,180.5C 266.992,176.772 269.159,172.605 270.5,168C 270.043,167.586 269.709,167.086 269.5,166.5C 270.716,163.656 272.383,161.156 274.5,159C 271.858,156.585 271.191,153.751 272.5,150.5C 274.432,151.52 276.432,151.687 278.5,151C 275.608,149.072 272.608,148.572 269.5,149.5C 267.721,148.33 266.721,146.664 266.5,144.5 Z"/></g>
<g><path style="opacity:1" fill="#926356" d="M 211.5,299.5 C 222.505,299.333 233.505,299.5 244.5,300C 245.46,303.73 245.793,307.563 245.5,311.5C 243.631,309.365 242.964,306.698 243.5,303.5C 232.833,303.5 222.167,303.5 211.5,303.5C 211.833,306.167 212.167,308.833 212.5,311.5C 211.778,311.918 211.278,312.584 211,313.5C 210.722,312.584 210.222,311.918 209.5,311.5C 209.782,307.426 210.448,303.426 211.5,299.5 Z"/></g>
<g><path style="opacity:1" fill="#dca881" d="M 208.5,295.5 C 204.091,301.365 198.091,304.032 190.5,303.5C 190.26,306.579 190.593,309.579 191.5,312.5C 193.605,313.038 195.938,314.038 198.5,315.5C 199.314,317.766 199.814,320.1 200,322.5C 201.758,324.083 203.258,325.75 204.5,327.5C 200.604,325.402 196.937,322.902 193.5,320C 188.833,319.667 184.167,319.333 179.5,319C 178.667,317.5 177.5,316.333 176,315.5C 175.501,311.514 175.334,307.514 175.5,303.5C 173.801,303.66 172.134,303.494 170.5,303C 172.78,300.791 174.614,298.291 176,295.5C 176.333,296.167 176.667,296.833 177,297.5C 178.701,292.268 180.034,286.934 181,281.5C 182.959,282.748 184.459,284.415 185.5,286.5C 186.325,287.386 187.325,287.719 188.5,287.5C 188.687,289.564 189.187,291.564 190,293.5C 191.972,294.305 193.472,295.639 194.5,297.5C 197.446,298.655 200.446,298.821 203.5,298C 204.617,296.108 206.284,295.275 208.5,295.5 Z"/></g>
<g><path style="opacity:1" fill="#a2624c" d="M 245.5,311.5 C 245.5,314.167 245.5,316.833 245.5,319.5C 244.624,319.631 243.957,319.298 243.5,318.5C 242.965,316.339 242.132,314.339 241,312.5C 240.086,313.654 239.253,313.487 238.5,312C 229.792,311.995 221.126,311.828 212.5,311.5C 212.167,308.833 211.833,306.167 211.5,303.5C 222.167,303.5 232.833,303.5 243.5,303.5C 242.964,306.698 243.631,309.365 245.5,311.5 Z"/></g>
<g><path style="opacity:0.992" fill="#2a2935" d="M 148.5,304.5 C 149.167,304.5 149.5,304.833 149.5,305.5C 151.422,309.013 153.088,312.679 154.5,316.5C 152.797,318.851 152.297,321.518 153,324.5C 155.016,328.542 157.516,332.209 160.5,335.5C 159.127,335.657 157.793,335.49 156.5,335C 154.135,332.291 152.135,329.291 150.5,326C 151.287,323.901 151.62,321.734 151.5,319.5C 148.833,319.5 146.167,319.5 143.5,319.5C 143.354,317.058 144.187,316.391 146,317.5C 146.691,315.109 147.691,315.109 149,317.5C 149.338,313.847 147.838,311.18 144.5,309.5C 141.7,310.732 138.7,311.399 135.5,311.5C 125.404,309.012 115.404,309.345 105.5,312.5C 106.476,314.123 105.976,315.457 104,316.5C 101.272,315.74 98.4385,315.406 95.5,315.5C 99.9775,312.76 104.644,310.26 109.5,308C 119.41,307.82 129.244,307.32 139,306.5C 141.333,309.167 143.667,309.167 146,306.5C 147.625,307.412 148.459,306.745 148.5,304.5 Z"/></g>
<g><path style="opacity:1" fill="#2d2e41" d="M 160.5,335.5 C 165.375,338.104 170.375,340.438 175.5,342.5C 177.808,346.795 180.474,350.795 183.5,354.5C 183.557,355.609 183.89,356.609 184.5,357.5C 185.471,359.483 186.471,361.483 187.5,363.5C 187.963,366.482 188.296,369.482 188.5,372.5C 190.592,372.561 192.092,373.561 193,375.5C 195.494,382.792 199.161,389.459 204,395.5C 204.49,396.793 204.657,398.127 204.5,399.5C 150.833,399.5 97.1667,399.5 43.5,399.5C 43.1832,395.298 43.5166,391.298 44.5,387.5C 51.2575,371.419 57.7575,355.086 64,338.5C 69.3802,335.287 73.5468,330.954 76.5,325.5C 82.4006,321.416 88.734,318.083 95.5,315.5C 98.4385,315.406 101.272,315.74 104,316.5C 105.976,315.457 106.476,314.123 105.5,312.5C 115.404,309.345 125.404,309.012 135.5,311.5C 138.7,311.399 141.7,310.732 144.5,309.5C 147.838,311.18 149.338,313.847 149,317.5C 147.691,315.109 146.691,315.109 146,317.5C 144.187,316.391 143.354,317.058 143.5,319.5C 146.167,319.5 148.833,319.5 151.5,319.5C 151.62,321.734 151.287,323.901 150.5,326C 152.135,329.291 154.135,332.291 156.5,335C 157.793,335.49 159.127,335.657 160.5,335.5 Z"/></g>
<g><path style="opacity:1" fill="#b5795c" d="M 212.5,311.5 C 221.126,311.828 229.792,311.995 238.5,312C 239.253,313.487 240.086,313.654 241,312.5C 242.132,314.339 242.965,316.339 243.5,318.5C 243.957,319.298 244.624,319.631 245.5,319.5C 246.167,319.5 246.833,319.5 247.5,319.5C 247.703,321.044 248.37,322.378 249.5,323.5C 248.68,325.111 247.346,325.778 245.5,325.5C 238.064,325.021 230.731,323.854 223.5,322C 222.027,321.29 221.36,320.124 221.5,318.5C 218.336,318.442 215.336,317.776 212.5,316.5C 212.5,314.833 212.5,313.167 212.5,311.5 Z"/></g>
<g><path style="opacity:1" fill="#eacdb6" d="M 154.5,316.5 C 155.496,316.414 156.329,316.748 157,317.5C 158,319.5 159,321.5 160,323.5C 165.054,330.041 170.221,336.375 175.5,342.5C 170.375,340.438 165.375,338.104 160.5,335.5C 157.516,332.209 155.016,328.542 153,324.5C 152.297,321.518 152.797,318.851 154.5,316.5 Z"/></g>
<g><path style="opacity:1" fill="#b68666" d="M 209.5,311.5 C 210.222,311.918 210.722,312.584 211,313.5C 211.278,312.584 211.778,311.918 212.5,311.5C 212.5,313.167 212.5,314.833 212.5,316.5C 215.336,317.776 218.336,318.442 221.5,318.5C 221.36,320.124 222.027,321.29 223.5,322C 230.731,323.854 238.064,325.021 245.5,325.5C 244.159,327.12 242.326,328.12 240,328.5C 237.902,328.552 235.736,328.218 233.5,327.5C 231.608,328.473 229.608,329.14 227.5,329.5C 223.593,328.189 219.593,327.522 215.5,327.5C 215.055,330.365 215.722,332.865 217.5,335C 217.272,335.399 216.938,335.565 216.5,335.5C 216.167,335.5 215.833,335.5 215.5,335.5C 213.887,332.714 212.054,330.047 210,327.5C 209.501,322.177 209.334,316.844 209.5,311.5 Z"/></g>
<g><path style="opacity:1" fill="#ba977a" d="M 247.5,319.5 C 249.905,320.687 252.239,322.187 254.5,324C 253.288,325.107 253.621,325.607 255.5,325.5C 255.5,325.833 255.5,326.167 255.5,326.5C 243.448,331.295 231.114,335.295 218.5,338.5C 217.833,337.5 217.167,336.5 216.5,335.5C 216.938,335.565 217.272,335.399 217.5,335C 215.722,332.865 215.055,330.365 215.5,327.5C 219.593,327.522 223.593,328.189 227.5,329.5C 229.608,329.14 231.608,328.473 233.5,327.5C 235.736,328.218 237.902,328.552 240,328.5C 242.326,328.12 244.159,327.12 245.5,325.5C 247.346,325.778 248.68,325.111 249.5,323.5C 248.37,322.378 247.703,321.044 247.5,319.5 Z"/></g>
<g><path style="opacity:1" fill="#c69a7c" d="M 149.5,305.5 C 149.833,305.5 150.167,305.5 150.5,305.5C 151.167,305.833 151.833,306.167 152.5,306.5C 156.467,312.548 160.301,318.881 164,325.5C 165.307,326.772 166.807,327.772 168.5,328.5C 170.016,332.362 172.683,334.695 176.5,335.5C 176.802,338.373 177.469,341.039 178.5,343.5C 180.622,346.957 182.289,350.623 183.5,354.5C 180.474,350.795 177.808,346.795 175.5,342.5C 170.221,336.375 165.054,330.041 160,323.5C 159,321.5 158,319.5 157,317.5C 156.329,316.748 155.496,316.414 154.5,316.5C 153.088,312.679 151.422,309.013 149.5,305.5 Z"/></g>
<g><path style="opacity:1" fill="#cb9d88" d="M 210.5,297.5 C 210.328,298.492 210.662,299.158 211.5,299.5C 210.448,303.426 209.782,307.426 209.5,311.5C 209.334,316.844 209.501,322.177 210,327.5C 212.054,330.047 213.887,332.714 215.5,335.5C 214.178,335.67 213.011,335.337 212,334.5C 210.25,332.266 208.75,329.932 207.5,327.5C 207.334,318.161 207.5,308.827 208,299.5C 208.333,299.833 208.667,300.167 209,300.5C 209.083,298.494 209.583,297.494 210.5,297.5 Z"/></g>
<g><path style="opacity:1" fill="#282936" d="M 251.5,317.5 C 252.794,318.29 253.961,319.29 255,320.5C 260.959,321.48 266.793,323.647 272.5,327C 281.893,330.034 291.226,332.867 300.5,335.5C 296.116,335.826 291.783,335.492 287.5,334.5C 285.979,333.063 284.145,332.396 282,332.5C 273.238,334.22 264.405,335.22 255.5,335.5C 256.741,345.967 253.075,354.133 244.5,360C 245.416,360.374 246.25,360.874 247,361.5C 246.556,365.37 248.223,368.37 252,370.5C 252.019,373.308 253.019,375.641 255,377.5C 255.333,377.167 255.667,376.833 256,376.5C 258.899,376.977 261.566,377.977 264,379.5C 264.783,381.433 264.283,382.933 262.5,384C 265.567,390.089 267.567,389.923 268.5,383.5C 269.5,383.5 270.5,383.5 271.5,383.5C 271.164,388.155 272.164,392.489 274.5,396.5C 273.675,397.386 272.675,397.719 271.5,397.5C 260.929,385.426 249.763,373.759 238,362.5C 234.951,358.957 232.118,355.291 229.5,351.5C 227.486,348.286 226.153,344.786 225.5,341C 229.114,339.68 232.781,338.513 236.5,337.5C 238.995,335.157 241.995,333.657 245.5,333C 245.167,332.667 244.833,332.333 244.5,332C 248.084,330.927 251.75,330.26 255.5,330C 254.829,329.014 254.829,327.847 255.5,326.5C 255.5,326.167 255.5,325.833 255.5,325.5C 256.525,325.103 256.692,324.437 256,323.5C 253.873,321.886 252.373,319.886 251.5,317.5 Z"/></g>
<g><path style="opacity:0.082" fill="#06060b" d="M 76.5,325.5 C 73.5468,330.954 69.3802,335.287 64,338.5C 57.7575,355.086 51.2575,371.419 44.5,387.5C 48.1531,374.039 52.3197,360.706 57,347.5C 59.0913,344.318 60.9246,340.985 62.5,337.5C 67.0939,333.945 71.7606,329.945 76.5,325.5 Z"/></g>
<g><path style="opacity:1" fill="#322a2d" d="M 255.5,326.5 C 254.829,327.847 254.829,329.014 255.5,330C 251.75,330.26 248.084,330.927 244.5,332C 244.833,332.333 245.167,332.667 245.5,333C 241.995,333.657 238.995,335.157 236.5,337.5C 232.781,338.513 229.114,339.68 225.5,341C 226.153,344.786 227.486,348.286 229.5,351.5C 225.833,347.5 222.167,343.5 218.5,339.5C 218.5,339.167 218.5,338.833 218.5,338.5C 231.114,335.295 243.448,331.295 255.5,326.5 Z"/></g>
<g><path style="opacity:1" fill="#a19f9c" d="M 163.5,342.5 C 171.579,341.834 173.246,344.667 168.5,351C 160.33,351.9 158.664,349.067 163.5,342.5 Z"/></g>
<g><path style="opacity:0.004" fill="#000004" d="M 329.5,348.5 C 330.833,349.167 330.833,349.167 329.5,348.5 Z"/></g>
<g><path style="opacity:1" fill="#21232f" d="M 300.5,335.5 C 305.11,337.136 309.444,339.136 313.5,341.5C 314.29,342.794 315.29,343.961 316.5,345C 321.496,346.675 325.996,349.175 330,352.5C 334.282,358.068 337.782,364.068 340.5,370.5C 344.253,379.822 347.253,389.489 349.5,399.5C 338.167,399.5 326.833,399.5 315.5,399.5C 315.356,392.644 315.689,385.81 316.5,379C 316.428,375.022 315.094,371.522 312.5,368.5C 313.407,365.579 313.74,362.579 313.5,359.5C 312.5,359.5 311.5,359.5 310.5,359.5C 310.223,356.552 310.556,353.719 311.5,351C 309.466,349.994 307.3,349.494 305,349.5C 301.834,350.305 298.667,350.972 295.5,351.5C 296.362,348.115 298.028,345.115 300.5,342.5C 299.5,341.833 298.5,341.167 297.5,340.5C 299.5,339.833 301.5,339.167 303.5,338.5C 302.007,337.859 301.007,336.859 300.5,335.5 Z"/></g>
<g><path style="opacity:0.281" fill="#05050a" d="M 313.5,341.5 C 319.396,343.115 324.729,345.781 329.5,349.5C 333.329,351.808 335.996,354.641 337.5,358C 337.043,358.414 336.709,358.914 336.5,359.5C 338.699,362.889 340.032,366.556 340.5,370.5C 337.782,364.068 334.282,358.068 330,352.5C 325.996,349.175 321.496,346.675 316.5,345C 315.29,343.961 314.29,342.794 313.5,341.5 Z"/></g>
<g><path style="opacity:1" fill="#2c2e40" d="M 300.5,335.5 C 301.007,336.859 302.007,337.859 303.5,338.5C 301.5,339.167 299.5,339.833 297.5,340.5C 298.5,341.167 299.5,341.833 300.5,342.5C 298.028,345.115 296.362,348.115 295.5,351.5C 298.667,350.972 301.834,350.305 305,349.5C 307.3,349.494 309.466,349.994 311.5,351C 310.556,353.719 310.223,356.552 310.5,359.5C 311.5,359.5 312.5,359.5 313.5,359.5C 313.74,362.579 313.407,365.579 312.5,368.5C 315.094,371.522 316.428,375.022 316.5,379C 315.689,385.81 315.356,392.644 315.5,399.5C 301.167,399.5 286.833,399.5 272.5,399.5C 272.167,398.833 271.833,398.167 271.5,397.5C 272.675,397.719 273.675,397.386 274.5,396.5C 272.164,392.489 271.164,388.155 271.5,383.5C 270.5,383.5 269.5,383.5 268.5,383.5C 267.567,389.923 265.567,390.089 262.5,384C 264.283,382.933 264.783,381.433 264,379.5C 261.566,377.977 258.899,376.977 256,376.5C 255.667,376.833 255.333,377.167 255,377.5C 253.019,375.641 252.019,373.308 252,370.5C 248.223,368.37 246.556,365.37 247,361.5C 246.25,360.874 245.416,360.374 244.5,360C 253.075,354.133 256.741,345.967 255.5,335.5C 264.405,335.22 273.238,334.22 282,332.5C 284.145,332.396 285.979,333.063 287.5,334.5C 291.783,335.492 296.116,335.826 300.5,335.5 Z"/></g>
<g><path style="opacity:1" fill="#a3a4a6" d="M 173.5,363.5 C 177.482,362.578 179.816,364.078 180.5,368C 178.126,371.614 174.959,372.781 171,371.5C 168.692,367.795 169.525,365.128 173.5,363.5 Z"/></g>
<g><path style="opacity:1" fill="#e6c7a5" d="M 220.5,345.5 C 220.577,346.75 221.244,347.583 222.5,348C 216.91,350.764 217.244,351.931 223.5,351.5C 223.489,357.489 226.489,360.489 232.5,360.5C 233.734,364.568 236.401,367.068 240.5,368C 239.24,369.814 239.24,371.647 240.5,373.5C 243.276,375.13 246.276,375.797 249.5,375.5C 249.666,378.168 250.666,380.502 252.5,382.5C 253.325,383.386 254.325,383.719 255.5,383.5C 255.247,385.827 255.914,387.827 257.5,389.5C 257.291,390.086 256.957,390.586 256.5,391C 259.146,391.497 261.813,391.664 264.5,391.5C 264.723,394.509 265.723,397.176 267.5,399.5C 264.167,399.5 260.833,399.5 257.5,399.5C 256.024,397.5 254.191,395.833 252,394.5C 251.529,392.754 250.862,391.087 250,389.5C 246.082,386.118 243.082,382.118 241,377.5C 238.037,375.636 235.203,373.636 232.5,371.5C 231.738,370.372 231.071,369.205 230.5,368C 226.514,367.501 222.514,367.334 218.5,367.5C 216.858,363.781 215.525,359.781 214.5,355.5C 212.364,354.528 211.197,352.861 211,350.5C 207.625,346.012 203.125,344.512 197.5,346C 198.578,346.674 199.245,347.674 199.5,349C 200.143,355.356 201.477,361.523 203.5,367.5C 204.833,367.5 206.167,367.5 207.5,367.5C 208.583,372.899 210.75,377.899 214,382.5C 217.057,383.451 220.223,383.784 223.5,383.5C 223.5,388.833 223.5,394.167 223.5,399.5C 218.167,399.5 212.833,399.5 207.5,399.5C 206.624,394.74 206.124,390.073 206,385.5C 205.026,387.878 204.359,387.544 204,384.5C 203.667,384.833 203.333,385.167 203,385.5C 197.278,377.893 192.444,369.726 188.5,361C 187.59,359.251 186.257,358.084 184.5,357.5C 183.89,356.609 183.557,355.609 183.5,354.5C 182.289,350.623 180.622,346.957 178.5,343.5C 179.833,343.5 181.167,343.5 182.5,343.5C 183.833,340.833 185.167,338.167 186.5,335.5C 193.5,335.5 200.5,335.5 207.5,335.5C 207.354,337.942 208.187,338.609 210,337.5C 211.693,342.44 215.193,345.107 220.5,345.5 Z"/></g>
<g><path style="opacity:1" fill="#eacfaf" d="M 257.5,399.5 C 246.167,399.5 234.833,399.5 223.5,399.5C 223.5,394.167 223.5,388.833 223.5,383.5C 220.223,383.784 217.057,383.451 214,382.5C 210.75,377.899 208.583,372.899 207.5,367.5C 206.167,367.5 204.833,367.5 203.5,367.5C 201.477,361.523 200.143,355.356 199.5,349C 199.245,347.674 198.578,346.674 197.5,346C 203.125,344.512 207.625,346.012 211,350.5C 211.197,352.861 212.364,354.528 214.5,355.5C 215.525,359.781 216.858,363.781 218.5,367.5C 222.514,367.334 226.514,367.501 230.5,368C 231.071,369.205 231.738,370.372 232.5,371.5C 235.203,373.636 238.037,375.636 241,377.5C 243.082,382.118 246.082,386.118 250,389.5C 250.862,391.087 251.529,392.754 252,394.5C 254.191,395.833 256.024,397.5 257.5,399.5 Z"/></g>
<g><path style="opacity:1" fill="#bda08c" d="M 184.5,357.5 C 186.257,358.084 187.59,359.251 188.5,361C 192.444,369.726 197.278,377.893 203,385.5C 203.333,385.167 203.667,384.833 204,384.5C 204.359,387.544 205.026,387.878 206,385.5C 206.124,390.073 206.624,394.74 207.5,399.5C 207.167,399.5 206.833,399.5 206.5,399.5C 201.187,386.871 194.854,374.871 187.5,363.5C 186.471,361.483 185.471,359.483 184.5,357.5 Z"/></g>
<g><path style="opacity:1" fill="#9e9e9f" d="M 163.5,381.5 C 171.061,380.86 173.061,383.693 169.5,390C 163.734,392.557 160.9,390.723 161,384.5C 162.045,383.627 162.878,382.627 163.5,381.5 Z"/></g>
<g><path style="opacity:1" fill="#3e2f34" d="M 187.5,363.5 C 194.854,374.871 201.187,386.871 206.5,399.5C 205.833,399.5 205.167,399.5 204.5,399.5C 204.657,398.127 204.49,396.793 204,395.5C 199.161,389.459 195.494,382.792 193,375.5C 192.092,373.561 190.592,372.561 188.5,372.5C 188.296,369.482 187.963,366.482 187.5,363.5 Z"/></g>
<g><path style="opacity:1" fill="#d7b09b" d="M 218.5,339.5 C 222.167,343.5 225.833,347.5 229.5,351.5C 232.118,355.291 234.951,358.957 238,362.5C 249.763,373.759 260.929,385.426 271.5,397.5C 271.833,398.167 272.167,398.833 272.5,399.5C 270.833,399.5 269.167,399.5 267.5,399.5C 265.723,397.176 264.723,394.509 264.5,391.5C 261.813,391.664 259.146,391.497 256.5,391C 256.957,390.586 257.291,390.086 257.5,389.5C 255.914,387.827 255.247,385.827 255.5,383.5C 254.325,383.719 253.325,383.386 252.5,382.5C 250.666,380.502 249.666,378.168 249.5,375.5C 246.276,375.797 243.276,375.13 240.5,373.5C 239.24,371.647 239.24,369.814 240.5,368C 236.401,367.068 233.734,364.568 232.5,360.5C 226.489,360.489 223.489,357.489 223.5,351.5C 217.244,351.931 216.91,350.764 222.5,348C 221.244,347.583 220.577,346.75 220.5,345.5C 218.919,343.858 218.253,341.858 218.5,339.5 Z"/></g>
</svg>
